{"glyphs":{"0":{"ha":963,"x_min":83,"x_max":879,"o":"m 464 -19 q 284 26 357 -19 q 167 148 211 72 q 103 316 122 224 q 83 500 83 408 q 112 701 83 607 q 194 865 140 794 q 325 976 249 936 q 499 1017 401 1017 q 709 951 625 1017 q 836 776 793 886 q 879 528 879 665 q 851 317 879 417 q 770 142 824 218 q 640 24 717 67 q 464 -19 563 -19 m 481 60 q 619 119 564 60 q 703 277 675 178 q 731 497 731 376 q 703 718 731 618 q 619 878 675 818 q 481 938 564 938 q 340 878 396 938 q 258 718 285 818 q 231 497 231 618 q 258 277 231 376 q 340 119 285 178 q 481 60 396 60 z "},"1":{"ha":581,"x_min":0,"x_max":485,"o":"m 135 0 l 118 47 l 178 63 q 233 84 214 72 q 259 119 251 96 q 267 185 267 142 l 267 854 l 96 746 q 39 782 64 753 q 0 840 14 811 l 385 1019 q 418 999 404 1014 q 440 968 432 983 l 404 944 l 404 279 q 418 144 404 194 q 467 47 432 93 l 485 22 l 467 0 l 135 0 z "},"2":{"ha":828,"x_min":51,"x_max":772,"o":"m 89 0 l 51 71 q 281 269 188 182 q 435 424 375 356 q 528 550 496 493 q 574 657 561 607 q 586 758 586 707 q 560 860 586 819 q 492 919 533 900 q 406 939 451 939 q 317 919 360 939 q 248 860 275 899 q 221 763 221 821 q 231 702 221 726 q 252 664 242 678 q 263 643 263 650 q 256 628 263 631 q 233 626 249 626 q 127 667 169 626 q 85 774 85 708 q 131 909 85 856 q 251 990 178 963 q 407 1017 325 1017 q 653 950 560 1017 q 746 757 746 883 q 705 604 746 682 q 594 447 664 526 q 434 286 524 367 q 246 126 344 206 l 772 126 q 763 58 772 94 q 725 0 753 22 l 89 0 z "},"3":{"ha":828,"x_min":79,"x_max":751,"o":"m 401 -19 q 246 6 319 -19 q 126 81 172 31 q 79 206 79 131 q 122 312 79 271 q 228 353 164 353 q 250 351 243 353 q 257 336 257 349 q 247 316 257 331 q 226 278 236 301 q 215 217 215 254 q 242 136 215 169 q 310 85 268 103 q 397 68 351 68 q 494 89 447 68 q 570 153 540 110 q 600 264 600 197 q 592 328 600 292 q 559 397 583 364 q 488 452 535 431 q 363 474 440 474 q 285 467 313 474 q 250 460 258 460 q 231 485 231 460 q 242 511 231 501 q 307 531 253 521 q 449 576 396 547 q 528 638 501 604 q 563 705 554 671 q 571 768 571 739 q 545 865 571 826 q 479 922 519 903 q 396 940 439 940 q 289 904 336 940 q 242 796 242 868 q 252 735 242 760 q 273 697 263 711 q 283 676 283 683 q 254 660 283 660 q 148 701 190 660 q 106 807 106 742 q 148 924 106 878 q 257 994 190 971 q 399 1017 324 1017 q 552 990 478 1017 q 674 910 626 964 q 722 776 722 857 q 667 621 722 683 q 517 522 613 558 q 693 423 635 496 q 751 256 751 350 q 656 51 751 122 q 401 -19 560 -19 z "},"4":{"ha":844,"x_min":42,"x_max":803,"o":"m 404 0 l 388 47 l 447 63 q 502 84 483 72 q 528 119 521 96 q 535 185 535 142 l 535 225 l 42 225 l 364 997 l 451 997 l 478 975 l 178 313 l 535 313 l 535 501 q 529 572 535 546 q 504 628 524 597 l 521 649 l 674 665 l 674 313 l 803 313 q 797 265 803 290 q 771 225 790 240 l 675 225 q 693 125 678 165 q 736 47 708 85 l 754 22 l 736 0 l 404 0 z "},"5":{"ha":828,"x_min":79,"x_max":751,"o":"m 401 -19 q 246 6 319 -19 q 126 81 172 31 q 79 206 79 131 q 122 312 79 271 q 228 353 164 353 q 250 351 243 353 q 257 336 257 349 q 247 316 257 331 q 226 278 236 301 q 215 217 215 254 q 242 136 215 169 q 310 85 268 103 q 397 68 351 68 q 494 90 447 68 q 570 157 540 113 q 600 268 600 201 q 590 341 600 301 q 550 417 579 381 q 463 478 521 454 q 311 501 406 501 q 242 497 279 501 q 165 483 206 492 l 136 535 l 161 997 l 701 997 q 692 929 701 965 q 654 871 682 893 l 246 871 l 229 558 q 319 574 276 569 q 400 578 361 578 q 602 533 525 578 q 715 418 679 489 q 751 268 751 347 q 708 115 751 179 q 585 15 664 50 q 401 -19 507 -19 z "},"6":{"ha":897,"x_min":81,"x_max":797,"o":"m 465 -19 q 297 18 369 -19 q 177 122 225 56 q 105 274 129 189 q 81 456 81 360 q 107 672 81 571 q 186 851 133 774 q 318 972 239 928 q 504 1017 397 1017 q 647 992 585 1017 q 744 926 708 968 q 779 829 779 885 q 737 712 779 757 q 631 667 694 667 q 601 683 601 667 q 612 705 601 690 q 633 742 622 719 q 643 797 643 765 q 604 900 643 863 q 500 938 565 938 q 372 893 424 938 q 289 776 319 849 q 244 619 258 704 q 231 453 231 535 q 231 419 231 436 q 232 388 231 403 q 329 527 258 472 q 515 582 400 582 q 674 544 611 582 q 767 444 736 507 q 797 303 797 381 q 760 142 797 215 q 650 24 724 68 q 465 -19 576 -19 m 446 68 q 583 129 536 68 q 629 282 629 190 q 590 427 629 367 q 465 488 551 488 q 365 457 406 488 q 305 377 325 426 q 285 271 285 328 q 322 127 285 186 q 446 68 360 68 z "},"7":{"ha":689,"x_min":3,"x_max":676,"o":"m 111 0 l 94 47 l 126 56 q 211 100 182 71 q 265 193 240 129 l 529 871 l 50 871 q 13 929 24 893 q 3 997 3 965 l 676 997 l 393 278 q 368 197 375 232 q 361 132 361 161 q 381 47 361 85 l 393 22 l 367 0 l 111 0 z "},"8":{"ha":856,"x_min":75,"x_max":781,"o":"m 417 -24 q 246 1 324 -24 q 122 83 168 26 q 75 231 75 139 q 102 340 75 292 q 172 427 129 389 q 260 492 215 465 q 141 592 182 535 q 100 739 100 650 q 134 874 100 810 q 238 980 168 939 q 418 1021 308 1021 q 588 995 511 1021 q 710 913 664 969 q 756 765 756 857 q 731 663 756 710 q 667 581 706 617 q 585 518 628 544 q 781 249 781 418 q 684 51 781 126 q 417 -24 588 -24 m 513 553 q 583 662 560 607 q 606 767 606 717 q 557 893 606 843 q 418 943 508 943 q 326 920 365 943 q 265 860 286 897 q 243 781 243 822 q 283 681 243 725 q 426 592 324 638 l 513 553 m 418 54 q 568 95 508 54 q 628 213 628 136 q 590 322 628 283 q 475 394 553 360 l 326 460 q 248 346 274 404 q 222 235 222 288 q 274 106 222 157 q 418 54 325 54 z "},"9":{"ha":897,"x_min":107,"x_max":797,"o":"m 406 -19 q 263 6 325 -19 q 165 74 200 31 q 129 175 129 118 q 169 267 129 232 q 268 301 208 301 q 299 285 299 301 q 281 251 299 275 q 264 183 264 226 q 303 93 264 126 q 404 60 343 60 q 522 95 475 60 q 597 189 569 131 q 638 320 625 247 q 650 468 650 393 q 650 506 650 488 q 649 543 650 525 q 545 428 614 472 q 378 383 476 383 q 228 425 289 383 q 138 533 168 467 q 107 674 107 600 q 128 797 107 736 q 191 908 149 858 q 297 987 233 957 q 446 1017 361 1017 q 607 974 540 1017 q 716 856 674 931 q 778 682 758 781 q 797 472 797 583 q 755 224 797 335 q 626 47 713 113 q 406 -19 539 -19 m 442 483 q 547 515 506 483 q 610 598 589 547 q 631 703 631 649 q 611 810 631 758 q 553 894 592 861 q 457 926 515 926 q 355 894 396 926 q 294 810 314 861 q 274 704 274 760 q 292 598 274 649 q 349 515 311 547 q 442 483 386 483 z "},"A":{"ha":981,"x_min":-22,"x_max":965,"o":"m -6 0 l -22 47 l 10 56 q 69 79 47 65 q 108 117 92 93 q 138 185 124 142 l 356 813 q 367 851 363 835 q 371 881 371 867 q 356 920 371 907 q 308 942 340 933 l 276 950 l 293 997 l 561 997 l 840 192 q 874 117 857 146 q 914 67 892 88 q 965 22 936 46 l 947 0 l 635 0 l 618 47 l 650 56 q 697 77 682 64 q 713 117 713 90 q 708 147 713 131 q 697 185 704 163 l 631 379 l 310 379 l 276 278 q 253 196 261 231 q 244 132 244 161 q 264 47 244 85 l 276 22 l 250 0 l -6 0 m 339 465 l 601 465 l 468 854 l 339 465 z "},"Á":{"ha":981,"x_min":-22,"x_max":965,"o":"m -6 0 l -22 47 l 10 56 q 69 79 47 65 q 108 117 92 93 q 138 185 124 142 l 356 813 q 367 851 363 835 q 371 881 371 867 q 356 920 371 907 q 308 942 340 933 l 276 950 l 293 997 l 561 997 l 840 192 q 874 117 857 146 q 914 67 892 88 q 965 22 936 46 l 947 0 l 635 0 l 618 47 l 650 56 q 697 77 682 64 q 713 117 713 90 q 708 147 713 131 q 697 185 704 163 l 631 379 l 310 379 l 276 278 q 253 196 261 231 q 244 132 244 161 q 264 47 244 85 l 276 22 l 250 0 l -6 0 m 339 465 l 601 465 l 468 854 l 339 465 m 379 1097 l 339 1146 l 556 1363 q 598 1328 582 1350 q 614 1275 614 1306 q 597 1220 614 1244 q 536 1175 579 1196 l 379 1097 z "},"Ă":{"ha":981,"x_min":-22,"x_max":965,"o":"m -6 0 l -22 47 l 10 56 q 69 79 47 65 q 108 117 92 93 q 138 185 124 142 l 356 813 q 367 851 363 835 q 371 881 371 867 q 356 920 371 907 q 308 942 340 933 l 276 950 l 293 997 l 561 997 l 840 192 q 874 117 857 146 q 914 67 892 88 q 965 22 936 46 l 947 0 l 635 0 l 618 47 l 650 56 q 697 77 682 64 q 713 117 713 90 q 708 147 713 131 q 697 185 704 163 l 631 379 l 310 379 l 276 278 q 253 196 261 231 q 244 132 244 161 q 264 47 244 85 l 276 22 l 250 0 l -6 0 m 339 465 l 601 465 l 468 854 l 339 465 m 463 1113 q 339 1161 389 1113 q 289 1307 289 1210 l 365 1307 q 394 1242 365 1265 q 463 1218 422 1218 q 531 1242 503 1218 q 558 1307 558 1265 l 635 1307 q 585 1161 635 1210 q 463 1113 536 1113 z "},"Â":{"ha":981,"x_min":-22,"x_max":965,"o":"m -6 0 l -22 47 l 10 56 q 69 79 47 65 q 108 117 92 93 q 138 185 124 142 l 356 813 q 367 851 363 835 q 371 881 371 867 q 356 920 371 907 q 308 942 340 933 l 276 950 l 293 997 l 561 997 l 840 192 q 874 117 857 146 q 914 67 892 88 q 965 22 936 46 l 947 0 l 635 0 l 618 47 l 650 56 q 697 77 682 64 q 713 117 713 90 q 708 147 713 131 q 697 185 704 163 l 631 379 l 310 379 l 276 278 q 253 196 261 231 q 244 132 244 161 q 264 47 244 85 l 276 22 l 250 0 l -6 0 m 339 465 l 601 465 l 468 854 l 339 465 m 318 1097 l 272 1136 q 336 1235 303 1189 q 398 1313 369 1281 q 444 1356 426 1346 l 482 1356 q 526 1315 497 1347 q 588 1237 554 1283 q 653 1136 622 1190 l 608 1097 l 463 1213 l 318 1097 z "},"Ä":{"ha":981,"x_min":-22,"x_max":965,"o":"m -6 0 l -22 47 l 10 56 q 69 79 47 65 q 108 117 92 93 q 138 185 124 142 l 356 813 q 367 851 363 835 q 371 881 371 867 q 356 920 371 907 q 308 942 340 933 l 276 950 l 293 997 l 561 997 l 840 192 q 874 117 857 146 q 914 67 892 88 q 965 22 936 46 l 947 0 l 635 0 l 618 47 l 650 56 q 697 77 682 64 q 713 117 713 90 q 708 147 713 131 q 697 185 704 163 l 631 379 l 310 379 l 276 278 q 253 196 261 231 q 244 132 244 161 q 264 47 244 85 l 276 22 l 250 0 l -6 0 m 339 465 l 601 465 l 468 854 l 339 465 m 592 1131 q 556 1146 576 1131 q 522 1182 536 1161 q 507 1221 507 1203 q 522 1260 507 1239 q 556 1297 536 1282 q 592 1313 575 1313 q 630 1297 610 1313 q 665 1260 650 1282 q 679 1221 679 1239 q 665 1182 679 1203 q 630 1146 650 1161 q 592 1131 610 1131 m 329 1131 q 294 1146 314 1131 q 259 1182 274 1161 q 244 1221 244 1203 q 259 1260 244 1239 q 293 1297 274 1282 q 329 1313 313 1313 q 367 1297 347 1313 q 402 1260 388 1282 q 417 1221 417 1239 q 402 1182 417 1203 q 367 1146 388 1161 q 329 1131 347 1131 z "},"À":{"ha":981,"x_min":-22,"x_max":965,"o":"m -6 0 l -22 47 l 10 56 q 69 79 47 65 q 108 117 92 93 q 138 185 124 142 l 356 813 q 367 851 363 835 q 371 881 371 867 q 356 920 371 907 q 308 942 340 933 l 276 950 l 293 997 l 561 997 l 840 192 q 874 117 857 146 q 914 67 892 88 q 965 22 936 46 l 947 0 l 635 0 l 618 47 l 650 56 q 697 77 682 64 q 713 117 713 90 q 708 147 713 131 q 697 185 704 163 l 631 379 l 310 379 l 276 278 q 253 196 261 231 q 244 132 244 161 q 264 47 244 85 l 276 22 l 250 0 l -6 0 m 339 465 l 601 465 l 468 854 l 339 465 m 560 1097 l 403 1175 q 342 1220 360 1196 q 325 1275 325 1244 q 341 1328 325 1306 q 383 1363 357 1350 l 600 1146 l 560 1097 z "},"Ā":{"ha":981,"x_min":-22,"x_max":965,"o":"m -6 0 l -22 47 l 10 56 q 69 79 47 65 q 108 117 92 93 q 138 185 124 142 l 356 813 q 367 851 363 835 q 371 881 371 867 q 356 920 371 907 q 308 942 340 933 l 276 950 l 293 997 l 561 997 l 840 192 q 874 117 857 146 q 914 67 892 88 q 965 22 936 46 l 947 0 l 635 0 l 618 47 l 650 56 q 697 77 682 64 q 713 117 713 90 q 708 147 713 131 q 697 185 704 163 l 631 379 l 310 379 l 276 278 q 253 196 261 231 q 244 132 244 161 q 264 47 244 85 l 276 22 l 250 0 l -6 0 m 339 465 l 601 465 l 468 854 l 339 465 m 257 1164 q 265 1224 257 1192 q 293 1275 274 1257 l 667 1275 q 659 1215 667 1247 q 631 1164 651 1182 l 257 1164 z "},"Ą":{"ha":981,"x_min":-22,"x_max":1011,"o":"m -6 0 l -22 47 l 10 56 q 69 79 47 65 q 108 117 92 93 q 138 185 124 142 l 356 813 q 367 851 363 835 q 371 881 371 867 q 356 920 371 907 q 308 942 340 933 l 276 950 l 293 997 l 561 997 l 840 192 q 874 117 857 146 q 914 67 892 88 q 965 22 936 46 l 947 0 l 635 0 l 618 47 l 650 56 q 697 77 682 64 q 713 117 713 90 q 708 147 713 131 q 697 185 704 163 l 631 379 l 310 379 l 276 278 q 253 196 261 231 q 244 132 244 161 q 264 47 244 85 l 276 22 l 250 0 l -6 0 m 339 465 l 601 465 l 468 854 l 339 465 m 735 -412 q 617 -372 667 -412 q 568 -254 568 -331 q 639 -96 568 -169 q 846 68 710 -22 l 882 14 q 726 -120 772 -58 q 679 -231 679 -182 q 703 -299 679 -276 q 764 -321 728 -321 q 863 -289 808 -321 q 964 -194 918 -257 l 1011 -237 q 876 -369 949 -326 q 735 -412 804 -412 z "},"Å":{"ha":981,"x_min":-22,"x_max":965,"o":"m -6 0 l -22 47 l 10 56 q 69 79 47 65 q 108 117 92 93 q 138 185 124 142 l 356 813 q 367 851 363 835 q 371 881 371 867 q 356 920 371 907 q 308 942 340 933 l 276 950 l 293 997 l 561 997 l 840 192 q 874 117 857 146 q 914 67 892 88 q 965 22 936 46 l 947 0 l 635 0 l 618 47 l 650 56 q 697 77 682 64 q 713 117 713 90 q 708 147 713 131 q 697 185 704 163 l 631 379 l 310 379 l 276 278 q 253 196 261 231 q 244 132 244 161 q 264 47 244 85 l 276 22 l 250 0 l -6 0 m 339 465 l 601 465 l 468 854 l 339 465 m 460 1074 q 344 1116 383 1074 q 304 1221 304 1158 q 344 1326 304 1283 q 460 1369 383 1369 q 580 1326 540 1369 q 619 1221 619 1283 q 580 1116 619 1158 q 460 1074 540 1074 m 460 1140 q 506 1164 490 1140 q 521 1221 521 1188 q 506 1278 521 1254 q 460 1301 490 1301 q 417 1278 432 1301 q 401 1221 401 1254 q 417 1164 401 1188 q 460 1140 432 1140 z "},"Ã":{"ha":981,"x_min":-22,"x_max":965,"o":"m -6 0 l -22 47 l 10 56 q 69 79 47 65 q 108 117 92 93 q 138 185 124 142 l 356 813 q 367 851 363 835 q 371 881 371 867 q 356 920 371 907 q 308 942 340 933 l 276 950 l 293 997 l 561 997 l 840 192 q 874 117 857 146 q 914 67 892 88 q 965 22 936 46 l 947 0 l 635 0 l 618 47 l 650 56 q 697 77 682 64 q 713 117 713 90 q 708 147 713 131 q 697 185 704 163 l 631 379 l 310 379 l 276 278 q 253 196 261 231 q 244 132 244 161 q 264 47 244 85 l 276 22 l 250 0 l -6 0 m 339 465 l 601 465 l 468 854 l 339 465 m 285 1128 l 236 1171 q 328 1269 281 1232 q 415 1306 375 1306 q 467 1294 446 1306 q 506 1269 488 1282 q 546 1257 524 1257 q 587 1269 564 1257 q 640 1311 610 1282 l 688 1268 q 597 1170 644 1207 q 510 1133 550 1133 q 458 1146 479 1133 q 418 1170 436 1158 q 378 1182 400 1182 q 337 1169 361 1182 q 285 1128 313 1156 z "},"Æ":{"ha":1339,"x_min":-19,"x_max":1251,"o":"m 1224 -35 l 1213 -19 q 1154 0 1197 0 l 569 0 l 554 44 l 583 53 q 651 91 633 68 q 668 175 668 114 l 668 425 l 393 425 l 278 214 q 253 153 257 175 q 249 110 249 132 q 255 76 249 93 q 267 47 261 58 l 279 22 l 253 0 l -3 0 l -19 47 l 13 56 q 71 78 43 64 q 121 131 99 92 l 604 997 l 1031 997 q 1189 1026 1150 997 l 1214 1044 l 1236 1026 l 1236 779 l 1189 763 l 1181 794 q 1151 871 1168 844 q 1107 908 1135 897 q 1029 918 1079 918 l 894 918 q 823 898 840 918 q 806 813 806 878 l 806 504 l 982 504 q 1040 518 1014 504 q 1092 568 1065 532 l 1103 583 l 1131 568 l 1131 331 l 1083 314 l 1075 346 q 1030 410 1063 394 q 924 425 997 425 l 806 425 l 806 185 q 823 100 806 121 q 894 79 840 79 l 1044 79 q 1122 90 1094 79 q 1167 127 1150 100 q 1196 203 1183 154 l 1204 235 l 1251 218 l 1251 -19 l 1224 -35 m 438 504 l 668 504 l 668 924 l 438 504 z "},"B":{"ha":904,"x_min":56,"x_max":828,"o":"m 79 0 l 63 47 l 94 56 q 165 96 147 71 q 183 185 183 121 l 183 871 q 153 904 183 904 l 72 904 l 56 956 q 148 983 92 969 q 270 1007 204 997 q 400 1017 336 1017 q 617 980 535 1017 q 738 881 700 943 q 776 743 776 818 q 741 606 776 669 q 631 506 706 542 q 776 412 725 475 q 828 274 828 349 q 792 133 828 194 q 678 35 757 71 q 467 0 599 0 l 79 0 m 475 72 q 629 131 575 72 q 683 281 683 190 q 657 377 683 333 q 581 447 631 421 q 463 474 532 474 q 413 479 438 474 q 372 492 388 485 q 356 506 361 497 q 351 522 351 514 q 371 547 351 547 q 394 542 379 547 q 440 538 408 538 q 588 594 536 538 q 639 740 639 651 q 582 882 639 825 q 414 939 525 939 q 353 928 372 939 q 327 903 333 918 q 321 875 321 888 l 321 254 q 337 152 321 189 q 378 98 353 115 q 428 76 403 81 q 475 72 454 72 z "},"C":{"ha":857,"x_min":49,"x_max":821,"o":"m 493 -19 q 297 21 381 -19 q 158 132 214 61 q 76 297 103 203 q 49 497 49 390 q 76 699 49 604 q 158 865 103 793 q 299 976 214 936 q 497 1017 383 1017 q 660 991 589 1017 q 770 919 731 965 q 810 813 810 874 q 767 695 810 740 q 661 650 725 650 q 632 667 632 650 q 642 688 632 674 q 663 728 653 703 q 674 793 674 754 q 625 899 674 858 q 497 939 576 939 q 360 900 415 939 q 270 797 304 861 q 221 653 236 732 q 206 497 206 575 q 242 286 206 382 q 345 133 278 190 q 506 76 413 76 q 663 110 597 76 q 767 201 728 144 q 776 207 771 207 q 805 194 789 207 q 821 168 821 182 q 817 157 821 164 q 683 28 763 76 q 493 -19 604 -19 z "},"Ć":{"ha":857,"x_min":49,"x_max":821,"o":"m 493 -19 q 297 21 381 -19 q 158 132 214 61 q 76 297 103 203 q 49 497 49 390 q 76 699 49 604 q 158 865 103 793 q 299 976 214 936 q 497 1017 383 1017 q 660 991 589 1017 q 770 919 731 965 q 810 813 810 874 q 767 695 810 740 q 661 650 725 650 q 632 667 632 650 q 642 688 632 674 q 663 728 653 703 q 674 793 674 754 q 625 899 674 858 q 497 939 576 939 q 360 900 415 939 q 270 797 304 861 q 221 653 236 732 q 206 497 206 575 q 242 286 206 382 q 345 133 278 190 q 506 76 413 76 q 663 110 597 76 q 767 201 728 144 q 776 207 771 207 q 805 194 789 207 q 821 168 821 182 q 817 157 821 164 q 683 28 763 76 q 493 -19 604 -19 m 401 1097 l 361 1146 l 578 1363 q 620 1328 604 1350 q 636 1275 636 1306 q 619 1220 636 1244 q 558 1175 601 1196 l 401 1097 z "},"Č":{"ha":857,"x_min":49,"x_max":821,"o":"m 493 -19 q 297 21 381 -19 q 158 132 214 61 q 76 297 103 203 q 49 497 49 390 q 76 699 49 604 q 158 865 103 793 q 299 976 214 936 q 497 1017 383 1017 q 660 991 589 1017 q 770 919 731 965 q 810 813 810 874 q 767 695 810 740 q 661 650 725 650 q 632 667 632 650 q 642 688 632 674 q 663 728 653 703 q 674 793 674 754 q 625 899 674 858 q 497 939 576 939 q 360 900 415 939 q 270 797 304 861 q 221 653 236 732 q 206 497 206 575 q 242 286 206 382 q 345 133 278 190 q 506 76 413 76 q 663 110 597 76 q 767 201 728 144 q 776 207 771 207 q 805 194 789 207 q 821 168 821 182 q 817 157 821 164 q 683 28 763 76 q 493 -19 604 -19 m 467 1110 q 420 1153 449 1121 q 358 1231 392 1185 q 294 1329 325 1276 l 340 1368 l 485 1251 l 631 1368 l 675 1329 q 610 1228 644 1275 q 548 1151 576 1182 q 504 1110 519 1119 l 467 1110 z "},"Ç":{"ha":857,"x_min":49,"x_max":821,"o":"m 493 -19 q 297 21 381 -19 q 158 132 214 61 q 76 297 103 203 q 49 497 49 390 q 76 699 49 604 q 158 865 103 793 q 299 976 214 936 q 497 1017 383 1017 q 660 991 589 1017 q 770 919 731 965 q 810 813 810 874 q 767 695 810 740 q 661 650 725 650 q 632 667 632 650 q 642 688 632 674 q 663 728 653 703 q 674 793 674 754 q 625 899 674 858 q 497 939 576 939 q 360 900 415 939 q 270 797 304 861 q 221 653 236 732 q 206 497 206 575 q 242 286 206 382 q 345 133 278 190 q 506 76 413 76 q 663 110 597 76 q 767 201 728 144 q 776 207 771 207 q 805 194 789 207 q 821 168 821 182 q 817 157 821 164 q 683 28 763 76 q 493 -19 604 -19 m 413 -410 q 308 -383 356 -410 q 261 -303 261 -356 q 288 -244 261 -265 q 350 -222 314 -222 q 374 -236 374 -222 q 364 -256 374 -246 q 354 -297 354 -265 q 372 -337 354 -322 q 411 -351 389 -351 q 476 -318 454 -351 q 499 -246 499 -285 q 476 -175 499 -207 q 406 -143 453 -143 q 369 -149 389 -143 q 329 -167 350 -154 l 301 -142 l 465 71 l 499 40 l 392 -97 q 444 -92 415 -92 q 553 -130 506 -92 q 601 -249 601 -168 q 577 -328 601 -292 q 510 -387 553 -365 q 413 -410 467 -410 z "},"Ċ":{"ha":857,"x_min":49,"x_max":821,"o":"m 493 -19 q 297 21 381 -19 q 158 132 214 61 q 76 297 103 203 q 49 497 49 390 q 76 699 49 604 q 158 865 103 793 q 299 976 214 936 q 497 1017 383 1017 q 660 991 589 1017 q 770 919 731 965 q 810 813 810 874 q 767 695 810 740 q 661 650 725 650 q 632 667 632 650 q 642 688 632 674 q 663 728 653 703 q 674 793 674 754 q 625 899 674 858 q 497 939 576 939 q 360 900 415 939 q 270 797 304 861 q 221 653 236 732 q 206 497 206 575 q 242 286 206 382 q 345 133 278 190 q 506 76 413 76 q 663 110 597 76 q 767 201 728 144 q 776 207 771 207 q 805 194 789 207 q 821 168 821 182 q 817 157 821 164 q 683 28 763 76 q 493 -19 604 -19 m 483 1131 q 448 1146 468 1131 q 413 1182 428 1161 q 399 1221 399 1203 q 413 1260 399 1239 q 447 1297 428 1282 q 483 1313 467 1313 q 522 1297 501 1313 q 556 1260 542 1282 q 571 1221 571 1239 q 556 1182 571 1203 q 522 1146 542 1161 q 483 1131 501 1131 z "},"D":{"ha":1018,"x_min":49,"x_max":969,"o":"m 72 0 l 56 47 l 88 56 q 151 90 126 67 q 176 169 176 113 l 176 871 q 146 904 176 904 l 65 904 l 49 956 q 149 983 88 969 q 282 1007 210 997 q 425 1017 354 1017 q 685 975 581 1017 q 853 860 790 933 q 942 694 915 788 q 969 497 969 601 q 919 247 969 360 q 766 67 868 133 q 508 0 664 0 l 72 0 m 464 71 q 732 181 646 71 q 818 500 818 292 q 797 662 818 583 q 730 803 775 740 q 615 902 685 865 q 450 939 546 939 q 360 928 389 939 q 322 903 331 918 q 314 875 314 888 l 314 243 q 335 134 314 171 q 392 84 357 97 q 464 71 426 71 z "},"Ð":{"ha":1018,"x_min":14,"x_max":969,"o":"m 72 0 l 56 47 l 88 56 q 151 90 126 67 q 176 169 176 113 l 176 461 l 14 461 q 21 510 14 485 q 46 549 28 535 l 176 549 l 176 871 q 146 904 176 904 l 65 904 l 49 956 q 149 983 88 969 q 282 1007 210 997 q 425 1017 354 1017 q 685 975 581 1017 q 853 860 790 933 q 942 694 915 788 q 969 497 969 601 q 919 247 969 360 q 766 67 868 133 q 508 0 664 0 l 72 0 m 464 71 q 732 181 646 71 q 818 500 818 292 q 797 662 818 583 q 730 803 775 740 q 615 902 685 865 q 450 939 546 939 q 360 928 389 939 q 322 903 331 918 q 314 875 314 888 l 314 549 l 585 549 q 578 501 585 526 q 553 461 572 476 l 314 461 l 314 243 q 335 134 314 171 q 392 84 357 97 q 464 71 426 71 z "},"Ď":{"ha":1018,"x_min":49,"x_max":969,"o":"m 72 0 l 56 47 l 88 56 q 151 90 126 67 q 176 169 176 113 l 176 871 q 146 904 176 904 l 65 904 l 49 956 q 149 983 88 969 q 282 1007 210 997 q 425 1017 354 1017 q 685 975 581 1017 q 853 860 790 933 q 942 694 915 788 q 969 497 969 601 q 919 247 969 360 q 766 67 868 133 q 508 0 664 0 l 72 0 m 464 71 q 732 181 646 71 q 818 500 818 292 q 797 662 818 583 q 730 803 775 740 q 615 902 685 865 q 450 939 546 939 q 360 928 389 939 q 322 903 331 918 q 314 875 314 888 l 314 243 q 335 134 314 171 q 392 84 357 97 q 464 71 426 71 m 492 1110 q 445 1153 474 1121 q 383 1231 417 1185 q 319 1329 350 1276 l 365 1368 l 510 1251 l 656 1368 l 700 1329 q 635 1228 669 1275 q 573 1151 601 1182 q 529 1110 544 1119 l 492 1110 z "},"Đ":{"ha":1018,"x_min":14,"x_max":969,"o":"m 72 0 l 56 47 l 88 56 q 151 90 126 67 q 176 169 176 113 l 176 461 l 14 461 q 21 510 14 485 q 46 549 28 535 l 176 549 l 176 871 q 146 904 176 904 l 65 904 l 49 956 q 149 983 88 969 q 282 1007 210 997 q 425 1017 354 1017 q 685 975 581 1017 q 853 860 790 933 q 942 694 915 788 q 969 497 969 601 q 919 247 969 360 q 766 67 868 133 q 508 0 664 0 l 72 0 m 464 71 q 732 181 646 71 q 818 500 818 292 q 797 662 818 583 q 730 803 775 740 q 615 902 685 865 q 450 939 546 939 q 360 928 389 939 q 322 903 331 918 q 314 875 314 888 l 314 549 l 585 549 q 578 501 585 526 q 553 461 572 476 l 314 461 l 314 243 q 335 134 314 171 q 392 84 357 97 q 464 71 426 71 z "},"E":{"ha":847,"x_min":63,"x_max":760,"o":"m 732 -35 l 721 -19 q 663 0 706 0 l 78 0 l 63 44 l 92 53 q 159 91 142 68 q 176 175 176 114 l 176 718 q 162 853 176 803 q 114 950 147 903 l 96 975 l 114 997 l 539 997 q 697 1026 658 997 l 722 1044 l 744 1026 l 744 779 l 697 763 l 689 794 q 660 871 676 844 q 615 908 643 897 q 538 918 588 918 l 403 918 q 331 898 349 918 q 314 813 314 878 l 314 546 l 490 546 q 548 560 522 546 q 600 610 574 574 l 611 625 l 639 610 l 639 372 l 592 356 l 583 388 q 538 451 571 436 q 432 467 506 467 l 314 467 l 314 185 q 331 100 314 121 q 403 79 349 79 l 553 79 q 631 90 603 79 q 675 127 658 100 q 704 203 692 154 l 713 235 l 760 218 l 760 -19 l 732 -35 z "},"É":{"ha":847,"x_min":63,"x_max":760,"o":"m 732 -35 l 721 -19 q 663 0 706 0 l 78 0 l 63 44 l 92 53 q 159 91 142 68 q 176 175 176 114 l 176 718 q 162 853 176 803 q 114 950 147 903 l 96 975 l 114 997 l 539 997 q 697 1026 658 997 l 722 1044 l 744 1026 l 744 779 l 697 763 l 689 794 q 660 871 676 844 q 615 908 643 897 q 538 918 588 918 l 403 918 q 331 898 349 918 q 314 813 314 878 l 314 546 l 490 546 q 548 560 522 546 q 600 610 574 574 l 611 625 l 639 610 l 639 372 l 592 356 l 583 388 q 538 451 571 436 q 432 467 506 467 l 314 467 l 314 185 q 331 100 314 121 q 403 79 349 79 l 553 79 q 631 90 603 79 q 675 127 658 100 q 704 203 692 154 l 713 235 l 760 218 l 760 -19 l 732 -35 m 363 1097 l 322 1146 l 539 1363 q 581 1328 565 1350 q 597 1275 597 1306 q 580 1220 597 1244 q 519 1175 563 1196 l 363 1097 z "},"Ě":{"ha":847,"x_min":63,"x_max":760,"o":"m 732 -35 l 721 -19 q 663 0 706 0 l 78 0 l 63 44 l 92 53 q 159 91 142 68 q 176 175 176 114 l 176 718 q 162 853 176 803 q 114 950 147 903 l 96 975 l 114 997 l 539 997 q 697 1026 658 997 l 722 1044 l 744 1026 l 744 779 l 697 763 l 689 794 q 660 871 676 844 q 615 908 643 897 q 538 918 588 918 l 403 918 q 331 898 349 918 q 314 813 314 878 l 314 546 l 490 546 q 548 560 522 546 q 600 610 574 574 l 611 625 l 639 610 l 639 372 l 592 356 l 583 388 q 538 451 571 436 q 432 467 506 467 l 314 467 l 314 185 q 331 100 314 121 q 403 79 349 79 l 553 79 q 631 90 603 79 q 675 127 658 100 q 704 203 692 154 l 713 235 l 760 218 l 760 -19 l 732 -35 m 428 1110 q 381 1153 410 1121 q 319 1231 353 1185 q 256 1329 286 1276 l 301 1368 l 446 1251 l 592 1368 l 636 1329 q 572 1228 606 1275 q 509 1151 538 1182 q 465 1110 481 1119 l 428 1110 z "},"Ê":{"ha":847,"x_min":63,"x_max":760,"o":"m 732 -35 l 721 -19 q 663 0 706 0 l 78 0 l 63 44 l 92 53 q 159 91 142 68 q 176 175 176 114 l 176 718 q 162 853 176 803 q 114 950 147 903 l 96 975 l 114 997 l 539 997 q 697 1026 658 997 l 722 1044 l 744 1026 l 744 779 l 697 763 l 689 794 q 660 871 676 844 q 615 908 643 897 q 538 918 588 918 l 403 918 q 331 898 349 918 q 314 813 314 878 l 314 546 l 490 546 q 548 560 522 546 q 600 610 574 574 l 611 625 l 639 610 l 639 372 l 592 356 l 583 388 q 538 451 571 436 q 432 467 506 467 l 314 467 l 314 185 q 331 100 314 121 q 403 79 349 79 l 553 79 q 631 90 603 79 q 675 127 658 100 q 704 203 692 154 l 713 235 l 760 218 l 760 -19 l 732 -35 m 301 1097 l 256 1136 q 319 1235 286 1189 q 381 1313 353 1281 q 428 1356 410 1346 l 465 1356 q 509 1315 481 1347 q 572 1237 538 1283 q 636 1136 606 1190 l 592 1097 l 446 1213 l 301 1097 z "},"Ë":{"ha":847,"x_min":63,"x_max":760,"o":"m 732 -35 l 721 -19 q 663 0 706 0 l 78 0 l 63 44 l 92 53 q 159 91 142 68 q 176 175 176 114 l 176 718 q 162 853 176 803 q 114 950 147 903 l 96 975 l 114 997 l 539 997 q 697 1026 658 997 l 722 1044 l 744 1026 l 744 779 l 697 763 l 689 794 q 660 871 676 844 q 615 908 643 897 q 538 918 588 918 l 403 918 q 331 898 349 918 q 314 813 314 878 l 314 546 l 490 546 q 548 560 522 546 q 600 610 574 574 l 611 625 l 639 610 l 639 372 l 592 356 l 583 388 q 538 451 571 436 q 432 467 506 467 l 314 467 l 314 185 q 331 100 314 121 q 403 79 349 79 l 553 79 q 631 90 603 79 q 675 127 658 100 q 704 203 692 154 l 713 235 l 760 218 l 760 -19 l 732 -35 m 575 1131 q 540 1146 560 1131 q 505 1182 519 1161 q 490 1221 490 1203 q 505 1260 490 1239 q 539 1297 519 1282 q 575 1313 558 1313 q 613 1297 593 1313 q 648 1260 633 1282 q 663 1221 663 1239 q 648 1182 663 1203 q 613 1146 633 1161 q 575 1131 593 1131 m 313 1131 q 277 1146 297 1131 q 242 1182 257 1161 q 228 1221 228 1203 q 242 1260 228 1239 q 276 1297 257 1282 q 313 1313 296 1313 q 351 1297 331 1313 q 385 1260 371 1282 q 400 1221 400 1239 q 385 1182 400 1203 q 351 1146 371 1161 q 313 1131 331 1131 z "},"Ė":{"ha":847,"x_min":63,"x_max":760,"o":"m 732 -35 l 721 -19 q 663 0 706 0 l 78 0 l 63 44 l 92 53 q 159 91 142 68 q 176 175 176 114 l 176 718 q 162 853 176 803 q 114 950 147 903 l 96 975 l 114 997 l 539 997 q 697 1026 658 997 l 722 1044 l 744 1026 l 744 779 l 697 763 l 689 794 q 660 871 676 844 q 615 908 643 897 q 538 918 588 918 l 403 918 q 331 898 349 918 q 314 813 314 878 l 314 546 l 490 546 q 548 560 522 546 q 600 610 574 574 l 611 625 l 639 610 l 639 372 l 592 356 l 583 388 q 538 451 571 436 q 432 467 506 467 l 314 467 l 314 185 q 331 100 314 121 q 403 79 349 79 l 553 79 q 631 90 603 79 q 675 127 658 100 q 704 203 692 154 l 713 235 l 760 218 l 760 -19 l 732 -35 m 444 1131 q 409 1146 429 1131 q 374 1182 389 1161 q 360 1221 360 1203 q 374 1260 360 1239 q 408 1297 389 1282 q 444 1313 428 1313 q 483 1297 463 1313 q 517 1260 503 1282 q 532 1221 532 1239 q 517 1182 532 1203 q 483 1146 503 1161 q 444 1131 463 1131 z "},"È":{"ha":847,"x_min":63,"x_max":760,"o":"m 732 -35 l 721 -19 q 663 0 706 0 l 78 0 l 63 44 l 92 53 q 159 91 142 68 q 176 175 176 114 l 176 718 q 162 853 176 803 q 114 950 147 903 l 96 975 l 114 997 l 539 997 q 697 1026 658 997 l 722 1044 l 744 1026 l 744 779 l 697 763 l 689 794 q 660 871 676 844 q 615 908 643 897 q 538 918 588 918 l 403 918 q 331 898 349 918 q 314 813 314 878 l 314 546 l 490 546 q 548 560 522 546 q 600 610 574 574 l 611 625 l 639 610 l 639 372 l 592 356 l 583 388 q 538 451 571 436 q 432 467 506 467 l 314 467 l 314 185 q 331 100 314 121 q 403 79 349 79 l 553 79 q 631 90 603 79 q 675 127 658 100 q 704 203 692 154 l 713 235 l 760 218 l 760 -19 l 732 -35 m 543 1097 l 386 1175 q 326 1220 343 1196 q 308 1275 308 1244 q 324 1328 308 1306 q 367 1363 340 1350 l 583 1146 l 543 1097 z "},"Ē":{"ha":847,"x_min":63,"x_max":760,"o":"m 732 -35 l 721 -19 q 663 0 706 0 l 78 0 l 63 44 l 92 53 q 159 91 142 68 q 176 175 176 114 l 176 718 q 162 853 176 803 q 114 950 147 903 l 96 975 l 114 997 l 539 997 q 697 1026 658 997 l 722 1044 l 744 1026 l 744 779 l 697 763 l 689 794 q 660 871 676 844 q 615 908 643 897 q 538 918 588 918 l 403 918 q 331 898 349 918 q 314 813 314 878 l 314 546 l 490 546 q 548 560 522 546 q 600 610 574 574 l 611 625 l 639 610 l 639 372 l 592 356 l 583 388 q 538 451 571 436 q 432 467 506 467 l 314 467 l 314 185 q 331 100 314 121 q 403 79 349 79 l 553 79 q 631 90 603 79 q 675 127 658 100 q 704 203 692 154 l 713 235 l 760 218 l 760 -19 l 732 -35 m 240 1164 q 249 1224 240 1192 q 276 1275 257 1257 l 650 1275 q 642 1215 650 1247 q 614 1164 635 1182 l 240 1164 z "},"Ę":{"ha":847,"x_min":63,"x_max":850,"o":"m 732 -35 l 721 -19 q 663 0 706 0 l 78 0 l 63 44 l 92 53 q 159 91 142 68 q 176 175 176 114 l 176 718 q 162 853 176 803 q 114 950 147 903 l 96 975 l 114 997 l 539 997 q 697 1026 658 997 l 722 1044 l 744 1026 l 744 779 l 697 763 l 689 794 q 660 871 676 844 q 615 908 643 897 q 538 918 588 918 l 403 918 q 331 898 349 918 q 314 813 314 878 l 314 546 l 490 546 q 548 560 522 546 q 600 610 574 574 l 611 625 l 639 610 l 639 372 l 592 356 l 583 388 q 538 451 571 436 q 432 467 506 467 l 314 467 l 314 185 q 331 100 314 121 q 403 79 349 79 l 553 79 q 631 90 603 79 q 675 127 658 100 q 704 203 692 154 l 713 235 l 760 218 l 760 -19 l 732 -35 m 574 -412 q 456 -372 506 -412 q 407 -254 407 -331 q 478 -96 407 -169 q 685 68 549 -22 l 721 14 q 565 -120 611 -58 q 518 -231 518 -182 q 542 -299 518 -276 q 603 -321 567 -321 q 702 -289 647 -321 q 803 -194 757 -257 l 850 -237 q 715 -369 788 -326 q 574 -412 643 -412 z "},"F":{"ha":760,"x_min":63,"x_max":697,"o":"m 81 0 l 63 22 l 81 47 q 129 144 115 93 q 143 279 143 194 l 143 718 q 129 853 143 803 q 81 950 115 904 l 63 975 l 81 997 l 492 997 q 650 1026 611 997 l 675 1044 l 697 1026 l 697 779 l 650 763 l 642 794 q 613 871 629 844 q 568 908 596 897 q 490 918 540 918 l 369 918 q 298 898 315 918 q 281 813 281 878 l 281 532 l 443 532 q 501 546 475 532 q 553 596 526 560 l 564 611 l 592 596 l 592 358 l 544 342 l 536 374 q 491 438 524 422 q 385 453 458 453 l 281 453 l 281 185 q 299 96 281 121 q 369 56 318 71 l 401 47 l 385 0 l 81 0 z "},"G":{"ha":960,"x_min":49,"x_max":929,"o":"m 518 -386 q 377 -357 433 -386 q 293 -282 321 -328 q 265 -187 265 -236 q 285 -106 265 -144 q 345 -44 306 -68 q 442 -19 385 -19 q 463 -24 457 -19 q 468 -35 468 -29 q 451 -59 468 -43 q 417 -104 435 -75 q 400 -185 400 -133 q 437 -276 400 -237 q 542 -314 474 -314 q 676 -247 629 -314 q 724 -17 724 -179 l 724 114 q 613 48 674 72 q 479 24 553 24 q 238 91 333 24 q 96 272 143 158 q 49 522 49 385 q 76 710 49 621 q 162 867 104 799 q 306 976 219 936 q 508 1017 392 1017 q 682 989 607 1017 q 800 913 757 961 q 843 799 843 864 q 801 681 843 726 q 694 636 758 636 q 669 640 672 636 q 665 653 665 643 q 676 674 665 660 q 697 715 686 689 q 707 779 707 740 q 653 894 707 850 q 508 939 599 939 q 361 901 421 939 q 266 801 301 863 q 215 667 231 739 q 199 529 199 596 q 233 320 199 415 q 334 169 268 225 q 492 113 400 113 q 622 138 564 113 q 724 207 679 163 l 724 278 q 706 368 724 343 q 635 407 688 393 l 603 415 l 619 463 l 911 463 l 929 440 l 911 415 q 863 318 878 368 q 849 183 849 268 l 849 22 q 808 -215 849 -125 q 693 -346 767 -306 q 518 -386 619 -386 z "},"Ğ":{"ha":960,"x_min":49,"x_max":929,"o":"m 518 -386 q 377 -357 433 -386 q 293 -282 321 -328 q 265 -187 265 -236 q 285 -106 265 -144 q 345 -44 306 -68 q 442 -19 385 -19 q 463 -24 457 -19 q 468 -35 468 -29 q 451 -59 468 -43 q 417 -104 435 -75 q 400 -185 400 -133 q 437 -276 400 -237 q 542 -314 474 -314 q 676 -247 629 -314 q 724 -17 724 -179 l 724 114 q 613 48 674 72 q 479 24 553 24 q 238 91 333 24 q 96 272 143 158 q 49 522 49 385 q 76 710 49 621 q 162 867 104 799 q 306 976 219 936 q 508 1017 392 1017 q 682 989 607 1017 q 800 913 757 961 q 843 799 843 864 q 801 681 843 726 q 694 636 758 636 q 669 640 672 636 q 665 653 665 643 q 676 674 665 660 q 697 715 686 689 q 707 779 707 740 q 653 894 707 850 q 508 939 599 939 q 361 901 421 939 q 266 801 301 863 q 215 667 231 739 q 199 529 199 596 q 233 320 199 415 q 334 169 268 225 q 492 113 400 113 q 622 138 564 113 q 724 207 679 163 l 724 278 q 706 368 724 343 q 635 407 688 393 l 603 415 l 619 463 l 911 463 l 929 440 l 911 415 q 863 318 878 368 q 849 183 849 268 l 849 22 q 808 -215 849 -125 q 693 -346 767 -306 q 518 -386 619 -386 m 494 1113 q 371 1161 421 1113 q 321 1307 321 1210 l 397 1307 q 426 1242 397 1265 q 494 1218 454 1218 q 563 1242 535 1218 q 590 1307 590 1265 l 667 1307 q 617 1161 667 1210 q 494 1113 568 1113 z "},"Ģ":{"ha":960,"x_min":49,"x_max":929,"o":"m 518 -386 q 377 -357 433 -386 q 293 -282 321 -328 q 265 -187 265 -236 q 285 -106 265 -144 q 345 -44 306 -68 q 442 -19 385 -19 q 463 -24 457 -19 q 468 -35 468 -29 q 451 -59 468 -43 q 417 -104 435 -75 q 400 -185 400 -133 q 437 -276 400 -237 q 542 -314 474 -314 q 676 -247 629 -314 q 724 -17 724 -179 l 724 114 q 613 48 674 72 q 479 24 553 24 q 238 91 333 24 q 96 272 143 158 q 49 522 49 385 q 76 710 49 621 q 162 867 104 799 q 306 976 219 936 q 508 1017 392 1017 q 682 989 607 1017 q 800 913 757 961 q 843 799 843 864 q 801 681 843 726 q 694 636 758 636 q 669 640 672 636 q 665 653 665 643 q 676 674 665 660 q 697 715 686 689 q 707 779 707 740 q 653 894 707 850 q 508 939 599 939 q 361 901 421 939 q 266 801 301 863 q 215 667 231 739 q 199 529 199 596 q 233 320 199 415 q 334 169 268 225 q 492 113 400 113 q 622 138 564 113 q 724 207 679 163 l 724 278 q 706 368 724 343 q 635 407 688 393 l 603 415 l 619 463 l 911 463 l 929 440 l 911 415 q 863 318 878 368 q 849 183 849 268 l 849 22 q 808 -215 849 -125 q 693 -346 767 -306 q 518 -386 619 -386 m 451 -806 l 411 -779 l 475 -654 q 492 -597 492 -621 q 460 -546 492 -569 l 435 -529 l 428 -496 l 451 -486 q 491 -474 471 -479 q 529 -469 511 -469 q 593 -490 567 -469 q 619 -562 619 -511 q 587 -650 619 -606 q 506 -747 554 -694 l 451 -806 z "},"Ġ":{"ha":960,"x_min":49,"x_max":929,"o":"m 518 -386 q 377 -357 433 -386 q 293 -282 321 -328 q 265 -187 265 -236 q 285 -106 265 -144 q 345 -44 306 -68 q 442 -19 385 -19 q 463 -24 457 -19 q 468 -35 468 -29 q 451 -59 468 -43 q 417 -104 435 -75 q 400 -185 400 -133 q 437 -276 400 -237 q 542 -314 474 -314 q 676 -247 629 -314 q 724 -17 724 -179 l 724 114 q 613 48 674 72 q 479 24 553 24 q 238 91 333 24 q 96 272 143 158 q 49 522 49 385 q 76 710 49 621 q 162 867 104 799 q 306 976 219 936 q 508 1017 392 1017 q 682 989 607 1017 q 800 913 757 961 q 843 799 843 864 q 801 681 843 726 q 694 636 758 636 q 669 640 672 636 q 665 653 665 643 q 676 674 665 660 q 697 715 686 689 q 707 779 707 740 q 653 894 707 850 q 508 939 599 939 q 361 901 421 939 q 266 801 301 863 q 215 667 231 739 q 199 529 199 596 q 233 320 199 415 q 334 169 268 225 q 492 113 400 113 q 622 138 564 113 q 724 207 679 163 l 724 278 q 706 368 724 343 q 635 407 688 393 l 603 415 l 619 463 l 911 463 l 929 440 l 911 415 q 863 318 878 368 q 849 183 849 268 l 849 22 q 808 -215 849 -125 q 693 -346 767 -306 q 518 -386 619 -386 m 493 1131 q 458 1146 478 1131 q 423 1182 438 1161 q 408 1221 408 1203 q 423 1260 408 1239 q 457 1297 438 1282 q 493 1313 476 1313 q 531 1297 511 1313 q 566 1260 551 1282 q 581 1221 581 1239 q 566 1182 581 1203 q 531 1146 551 1161 q 493 1131 511 1131 z "},"H":{"ha":1082,"x_min":56,"x_max":1019,"o":"m 72 0 l 56 47 l 88 56 q 158 96 140 71 q 176 185 176 121 l 176 813 q 158 902 176 878 q 88 942 140 926 l 56 950 l 72 997 l 376 997 l 394 975 l 376 950 q 328 853 342 904 q 314 718 314 803 l 314 549 l 768 549 l 768 813 q 750 902 768 878 q 679 942 732 926 l 647 950 l 664 997 l 968 997 l 986 975 l 968 950 q 919 853 933 904 q 906 718 906 803 l 906 175 q 923 91 906 114 q 990 53 940 68 l 1019 44 l 1004 0 l 664 0 l 647 47 l 679 56 q 750 96 732 71 q 768 185 768 121 l 768 464 l 314 464 l 314 175 q 331 91 314 114 q 399 53 349 68 l 428 44 l 413 0 l 72 0 z "},"Ħ":{"ha":1082,"x_min":51,"x_max":1029,"o":"m 75 0 l 58 47 l 90 56 q 161 96 143 71 q 179 185 179 121 l 179 697 l 51 697 q 57 740 51 717 q 79 775 63 763 l 179 775 l 179 813 q 161 902 179 878 q 90 942 143 926 l 58 950 l 75 997 l 379 997 l 397 975 l 379 950 q 337 873 351 913 q 318 775 322 833 l 771 775 l 771 813 q 753 902 771 878 q 682 942 735 926 l 650 950 l 667 997 l 971 997 l 989 975 l 971 950 q 928 873 943 913 q 910 775 914 833 l 1029 775 q 1024 733 1029 756 q 1001 697 1018 711 l 908 697 l 908 175 q 926 91 908 114 q 993 53 943 68 l 1022 44 l 1007 0 l 667 0 l 650 47 l 682 56 q 753 96 735 71 q 771 185 771 121 l 771 464 l 317 464 l 317 175 q 334 91 317 114 q 401 53 351 68 l 431 44 l 415 0 l 75 0 m 317 549 l 771 549 l 771 697 l 317 697 l 317 549 z "},"I":{"ha":490,"x_min":56,"x_max":428,"o":"m 72 0 l 56 47 l 88 56 q 158 95 140 69 q 176 185 176 121 l 176 813 q 158 903 176 878 q 88 942 140 928 l 56 950 l 72 997 l 376 997 l 394 975 l 376 950 q 328 853 343 903 q 314 718 314 803 l 314 175 q 331 91 314 114 q 399 53 349 68 l 428 44 l 413 0 l 72 0 z "},"Ĳ":{"ha":1142,"x_min":56,"x_max":1086,"o":"m 72 0 l 56 47 l 88 56 q 158 95 140 69 q 176 185 176 121 l 176 813 q 158 903 176 878 q 88 942 140 928 l 56 950 l 72 997 l 376 997 l 394 975 l 376 950 q 328 853 343 903 q 314 718 314 803 l 314 175 q 331 91 314 114 q 399 53 349 68 l 428 44 l 413 0 l 72 0 m 715 -19 q 574 10 631 -19 q 490 85 518 39 q 463 179 463 131 q 483 260 463 222 q 542 323 503 299 q 639 347 582 347 q 660 342 654 347 q 665 332 665 338 q 649 308 665 324 q 615 263 632 292 q 597 182 597 233 q 631 91 597 129 q 725 53 664 53 q 795 69 763 53 q 848 126 828 85 q 868 243 868 167 l 868 813 q 850 902 868 878 q 779 942 832 926 l 747 950 l 764 997 l 1068 997 l 1086 975 l 1068 950 q 1019 853 1033 904 q 1006 718 1006 803 l 1006 328 q 969 126 1006 203 q 867 15 932 50 q 715 -19 801 -19 z "},"Í":{"ha":490,"x_min":56,"x_max":428,"o":"m 72 0 l 56 47 l 88 56 q 158 95 140 69 q 176 185 176 121 l 176 813 q 158 903 176 878 q 88 942 140 928 l 56 950 l 72 997 l 376 997 l 394 975 l 376 950 q 328 853 343 903 q 314 718 314 803 l 314 175 q 331 91 314 114 q 399 53 349 68 l 428 44 l 413 0 l 72 0 m 163 1097 l 122 1146 l 339 1363 q 381 1328 365 1350 q 397 1275 397 1306 q 380 1220 397 1244 q 319 1175 363 1196 l 163 1097 z "},"Î":{"ha":490,"x_min":56,"x_max":436,"o":"m 72 0 l 56 47 l 88 56 q 158 95 140 69 q 176 185 176 121 l 176 813 q 158 903 176 878 q 88 942 140 928 l 56 950 l 72 997 l 376 997 l 394 975 l 376 950 q 328 853 343 903 q 314 718 314 803 l 314 175 q 331 91 314 114 q 399 53 349 68 l 428 44 l 413 0 l 72 0 m 101 1097 l 56 1136 q 119 1235 86 1189 q 181 1313 153 1281 q 228 1356 210 1346 l 265 1356 q 309 1315 281 1347 q 372 1237 338 1283 q 436 1136 406 1190 l 392 1097 l 246 1213 l 101 1097 z "},"Ï":{"ha":490,"x_min":28,"x_max":463,"o":"m 72 0 l 56 47 l 88 56 q 158 95 140 69 q 176 185 176 121 l 176 813 q 158 903 176 878 q 88 942 140 928 l 56 950 l 72 997 l 376 997 l 394 975 l 376 950 q 328 853 343 903 q 314 718 314 803 l 314 175 q 331 91 314 114 q 399 53 349 68 l 428 44 l 413 0 l 72 0 m 375 1131 q 340 1146 360 1131 q 305 1182 319 1161 q 290 1221 290 1203 q 305 1260 290 1239 q 339 1297 319 1282 q 375 1313 358 1313 q 413 1297 393 1313 q 448 1260 433 1282 q 463 1221 463 1239 q 448 1182 463 1203 q 413 1146 433 1161 q 375 1131 393 1131 m 113 1131 q 77 1146 97 1131 q 42 1182 57 1161 q 28 1221 28 1203 q 42 1260 28 1239 q 76 1297 57 1282 q 113 1313 96 1313 q 151 1297 131 1313 q 185 1260 171 1282 q 200 1221 200 1239 q 185 1182 200 1203 q 151 1146 171 1161 q 113 1131 131 1131 z "},"İ":{"ha":490,"x_min":56,"x_max":428,"o":"m 72 0 l 56 47 l 88 56 q 158 95 140 69 q 176 185 176 121 l 176 813 q 158 903 176 878 q 88 942 140 928 l 56 950 l 72 997 l 376 997 l 394 975 l 376 950 q 328 853 343 903 q 314 718 314 803 l 314 175 q 331 91 314 114 q 399 53 349 68 l 428 44 l 413 0 l 72 0 m 244 1131 q 209 1146 229 1131 q 174 1182 189 1161 q 160 1221 160 1203 q 174 1260 160 1239 q 208 1297 189 1282 q 244 1313 228 1313 q 283 1297 263 1313 q 317 1260 303 1282 q 332 1221 332 1239 q 317 1182 332 1203 q 283 1146 303 1161 q 244 1131 263 1131 z "},"Ì":{"ha":490,"x_min":56,"x_max":428,"o":"m 72 0 l 56 47 l 88 56 q 158 95 140 69 q 176 185 176 121 l 176 813 q 158 903 176 878 q 88 942 140 928 l 56 950 l 72 997 l 376 997 l 394 975 l 376 950 q 328 853 343 903 q 314 718 314 803 l 314 175 q 331 91 314 114 q 399 53 349 68 l 428 44 l 413 0 l 72 0 m 343 1097 l 186 1175 q 126 1220 143 1196 q 108 1275 108 1244 q 124 1328 108 1306 q 167 1363 140 1350 l 383 1146 l 343 1097 z "},"Ī":{"ha":490,"x_min":40,"x_max":450,"o":"m 72 0 l 56 47 l 88 56 q 158 95 140 69 q 176 185 176 121 l 176 813 q 158 903 176 878 q 88 942 140 928 l 56 950 l 72 997 l 376 997 l 394 975 l 376 950 q 328 853 343 903 q 314 718 314 803 l 314 175 q 331 91 314 114 q 399 53 349 68 l 428 44 l 413 0 l 72 0 m 40 1164 q 49 1224 40 1192 q 76 1275 57 1257 l 450 1275 q 442 1215 450 1247 q 414 1164 435 1182 l 40 1164 z "},"Į":{"ha":490,"x_min":31,"x_max":474,"o":"m 72 0 l 56 47 l 88 56 q 158 95 140 69 q 176 185 176 121 l 176 813 q 158 903 176 878 q 88 942 140 928 l 56 950 l 72 997 l 376 997 l 394 975 l 376 950 q 328 853 343 903 q 314 718 314 803 l 314 175 q 331 91 314 114 q 399 53 349 68 l 428 44 l 413 0 l 72 0 m 197 -412 q 80 -372 129 -412 q 31 -254 31 -331 q 101 -96 31 -169 q 308 68 172 -22 l 344 14 q 188 -120 235 -58 q 142 -231 142 -182 q 166 -299 142 -276 q 226 -321 190 -321 q 326 -289 271 -321 q 426 -194 381 -257 l 474 -237 q 339 -369 411 -326 q 197 -412 267 -412 z "},"J":{"ha":651,"x_min":-28,"x_max":596,"o":"m 225 -19 q 84 10 140 -19 q 0 85 28 39 q -28 179 -28 131 q -8 260 -28 222 q 52 323 13 299 q 149 347 92 347 q 169 342 164 347 q 175 332 175 338 q 158 308 175 324 q 124 263 142 292 q 107 182 107 233 q 140 91 107 129 q 235 53 174 53 q 305 69 272 53 q 358 126 338 85 q 378 243 378 167 l 378 813 q 360 902 378 878 q 289 942 342 926 l 257 950 l 274 997 l 578 997 l 596 975 l 578 950 q 529 853 543 904 q 515 718 515 803 l 515 328 q 478 126 515 203 q 376 15 442 50 q 225 -19 311 -19 z "},"K":{"ha":928,"x_min":56,"x_max":904,"o":"m 776 -19 q 669 16 711 -19 q 590 115 626 51 l 425 418 q 395 458 410 446 q 354 481 381 469 q 347 496 347 485 q 352 517 347 506 q 375 529 357 529 q 392 529 383 529 q 408 528 400 529 l 597 810 q 622 855 617 839 q 626 888 626 871 q 620 922 626 904 q 608 950 614 939 l 596 975 l 622 997 l 874 997 l 890 950 l 858 942 q 801 918 828 933 q 750 867 775 903 l 500 506 q 552 472 528 493 q 596 415 576 450 l 774 100 q 797 69 785 82 q 826 57 808 57 q 881 76 853 57 l 904 36 q 841 -6 874 7 q 776 -19 808 -19 m 72 0 l 56 47 l 88 56 q 158 96 140 71 q 176 185 176 121 l 176 813 q 158 902 176 878 q 88 942 140 926 l 56 950 l 72 997 l 376 997 l 394 975 l 376 950 q 328 853 342 904 q 314 718 314 803 l 314 175 q 331 91 314 114 q 399 53 349 68 l 428 44 l 413 0 l 72 0 z "},"Ķ":{"ha":928,"x_min":56,"x_max":904,"o":"m 776 -19 q 669 16 711 -19 q 590 115 626 51 l 425 418 q 395 458 410 446 q 354 481 381 469 q 347 496 347 485 q 352 517 347 506 q 375 529 357 529 q 392 529 383 529 q 408 528 400 529 l 597 810 q 622 855 617 839 q 626 888 626 871 q 620 922 626 904 q 608 950 614 939 l 596 975 l 622 997 l 874 997 l 890 950 l 858 942 q 801 918 828 933 q 750 867 775 903 l 500 506 q 552 472 528 493 q 596 415 576 450 l 774 100 q 797 69 785 82 q 826 57 808 57 q 881 76 853 57 l 904 36 q 841 -6 874 7 q 776 -19 808 -19 m 72 0 l 56 47 l 88 56 q 158 96 140 71 q 176 185 176 121 l 176 813 q 158 902 176 878 q 88 942 140 926 l 56 950 l 72 997 l 376 997 l 394 975 l 376 950 q 328 853 342 904 q 314 718 314 803 l 314 175 q 331 91 314 114 q 399 53 349 68 l 428 44 l 413 0 l 72 0 m 400 -449 l 360 -422 l 424 -297 q 440 -240 440 -264 q 408 -189 440 -212 l 383 -172 l 376 -139 l 400 -129 q 440 -117 419 -122 q 478 -112 460 -112 q 542 -133 515 -112 q 568 -206 568 -154 q 535 -293 568 -249 q 454 -390 503 -337 l 400 -449 z "},"L":{"ha":764,"x_min":56,"x_max":731,"o":"m 703 -35 l 692 -19 q 633 0 676 0 l 78 0 l 63 44 l 92 53 q 159 91 142 68 q 176 175 176 114 l 176 813 q 158 903 176 878 q 88 942 140 928 l 56 950 l 72 997 l 376 997 l 394 975 l 376 950 q 328 853 343 903 q 314 718 314 803 l 314 185 q 331 100 314 121 q 403 79 349 79 l 524 79 q 601 90 574 79 q 646 127 629 100 q 675 203 663 154 l 683 235 l 731 218 l 731 -19 l 703 -35 z "},"Ĺ":{"ha":764,"x_min":56,"x_max":731,"o":"m 703 -35 l 692 -19 q 633 0 676 0 l 78 0 l 63 44 l 92 53 q 159 91 142 68 q 176 175 176 114 l 176 813 q 158 903 176 878 q 88 942 140 928 l 56 950 l 72 997 l 376 997 l 394 975 l 376 950 q 328 853 343 903 q 314 718 314 803 l 314 185 q 331 100 314 121 q 403 79 349 79 l 524 79 q 601 90 574 79 q 646 127 629 100 q 675 203 663 154 l 683 235 l 731 218 l 731 -19 l 703 -35 m 158 1097 l 118 1146 l 335 1363 q 377 1328 361 1350 q 393 1275 393 1306 q 376 1220 393 1244 q 315 1175 358 1196 l 158 1097 z "},"Ľ":{"ha":764,"x_min":56,"x_max":731,"o":"m 703 -35 l 692 -19 q 633 0 676 0 l 78 0 l 63 44 l 92 53 q 159 91 142 68 q 176 175 176 114 l 176 813 q 158 903 176 878 q 88 942 140 928 l 56 950 l 72 997 l 376 997 l 394 975 l 376 950 q 328 853 343 903 q 314 718 314 803 l 314 185 q 331 100 314 121 q 403 79 349 79 l 524 79 q 601 90 574 79 q 646 127 629 100 q 675 203 663 154 l 683 235 l 731 218 l 731 -19 l 703 -35 m 646 706 q 618 732 625 706 q 597 839 607 782 q 581 947 586 896 q 575 1028 575 999 q 646 1069 600 1069 q 717 1028 692 1069 q 712 956 717 1003 q 697 849 707 908 q 674 732 688 790 q 646 706 667 706 z "},"Ļ":{"ha":764,"x_min":56,"x_max":731,"o":"m 703 -35 l 692 -19 q 633 0 676 0 l 78 0 l 63 44 l 92 53 q 159 91 142 68 q 176 175 176 114 l 176 813 q 158 903 176 878 q 88 942 140 928 l 56 950 l 72 997 l 376 997 l 394 975 l 376 950 q 328 853 343 903 q 314 718 314 803 l 314 185 q 331 100 314 121 q 403 79 349 79 l 524 79 q 601 90 574 79 q 646 127 629 100 q 675 203 663 154 l 683 235 l 731 218 l 731 -19 l 703 -35 m 318 -449 l 278 -422 l 342 -297 q 358 -240 358 -264 q 326 -189 358 -212 l 301 -172 l 294 -139 l 318 -129 q 358 -117 338 -122 q 396 -112 378 -112 q 460 -133 433 -112 q 486 -206 486 -154 q 453 -293 486 -249 q 372 -390 421 -337 l 318 -449 z "},"Ł":{"ha":764,"x_min":35,"x_max":731,"o":"m 35 339 q 41 426 35 399 q 68 464 47 454 l 176 518 l 176 813 q 158 903 176 878 q 88 942 140 928 l 56 950 l 72 997 l 376 997 l 394 975 l 376 950 q 328 853 343 903 q 314 718 314 803 l 314 588 l 457 658 q 451 572 457 599 q 424 533 444 544 l 314 479 l 314 185 q 331 100 314 121 q 403 79 349 79 l 524 79 q 601 90 574 79 q 646 127 629 100 q 675 203 663 154 l 683 235 l 731 218 l 731 -19 l 703 -35 l 692 -19 q 633 0 676 0 l 78 0 l 63 44 l 92 53 q 159 91 142 68 q 176 175 176 114 l 176 410 l 35 339 z "},"M":{"ha":1279,"x_min":21,"x_max":1217,"o":"m 36 0 l 21 47 l 53 56 q 126 96 106 71 q 151 185 147 121 l 189 735 q 192 762 190 740 q 194 807 193 783 q 196 842 196 831 q 178 910 196 890 q 115 942 161 931 l 83 950 l 99 997 l 351 997 l 638 299 l 932 997 l 1132 997 l 1153 975 l 1136 950 q 1098 873 1110 913 q 1086 775 1086 833 q 1088 740 1086 767 q 1091 688 1089 714 q 1093 650 1093 661 l 1121 269 q 1149 127 1128 185 q 1217 22 1169 69 l 1199 0 l 894 0 l 878 47 l 910 56 q 972 91 954 69 q 989 156 989 113 q 988 181 989 165 q 986 207 988 196 l 946 786 l 656 100 l 581 100 l 290 786 l 260 358 q 256 306 258 335 q 253 253 254 276 q 251 222 251 231 q 263 124 251 164 q 301 47 275 85 l 318 22 l 297 0 l 36 0 z "},"N":{"ha":1082,"x_min":47,"x_max":996,"o":"m 64 0 l 47 47 l 79 56 q 150 95 132 69 q 168 185 168 121 l 168 813 q 150 903 168 878 q 79 942 132 928 l 47 950 l 64 997 l 288 997 l 818 210 l 818 813 q 800 903 818 878 q 729 942 782 928 l 697 950 l 714 997 l 978 997 l 996 975 l 978 950 q 930 853 944 903 q 915 718 915 803 l 915 122 q 920 79 915 96 q 935 47 925 63 l 953 22 l 935 0 l 794 0 l 265 785 l 265 279 q 280 144 265 194 q 328 47 294 94 l 346 22 l 328 0 l 64 0 z "},"Ń":{"ha":1082,"x_min":47,"x_max":996,"o":"m 64 0 l 47 47 l 79 56 q 150 95 132 69 q 168 185 168 121 l 168 813 q 150 903 168 878 q 79 942 132 928 l 47 950 l 64 997 l 288 997 l 818 210 l 818 813 q 800 903 818 878 q 729 942 782 928 l 697 950 l 714 997 l 978 997 l 996 975 l 978 950 q 930 853 944 903 q 915 718 915 803 l 915 122 q 920 79 915 96 q 935 47 925 63 l 953 22 l 935 0 l 794 0 l 265 785 l 265 279 q 280 144 265 194 q 328 47 294 94 l 346 22 l 328 0 l 64 0 m 471 1097 l 431 1146 l 647 1363 q 690 1328 674 1350 q 706 1275 706 1306 q 688 1220 706 1244 q 628 1175 671 1196 l 471 1097 z "},"Ň":{"ha":1082,"x_min":47,"x_max":996,"o":"m 64 0 l 47 47 l 79 56 q 150 95 132 69 q 168 185 168 121 l 168 813 q 150 903 168 878 q 79 942 132 928 l 47 950 l 64 997 l 288 997 l 818 210 l 818 813 q 800 903 818 878 q 729 942 782 928 l 697 950 l 714 997 l 978 997 l 996 975 l 978 950 q 930 853 944 903 q 915 718 915 803 l 915 122 q 920 79 915 96 q 935 47 925 63 l 953 22 l 935 0 l 794 0 l 265 785 l 265 279 q 280 144 265 194 q 328 47 294 94 l 346 22 l 328 0 l 64 0 m 536 1110 q 490 1153 518 1121 q 428 1231 461 1185 q 364 1329 394 1276 l 410 1368 l 554 1251 l 700 1368 l 744 1329 q 680 1228 714 1275 q 617 1151 646 1182 q 574 1110 589 1119 l 536 1110 z "},"Ņ":{"ha":1082,"x_min":47,"x_max":996,"o":"m 64 0 l 47 47 l 79 56 q 150 95 132 69 q 168 185 168 121 l 168 813 q 150 903 168 878 q 79 942 132 928 l 47 950 l 64 997 l 288 997 l 818 210 l 818 813 q 800 903 818 878 q 729 942 782 928 l 697 950 l 714 997 l 978 997 l 996 975 l 978 950 q 930 853 944 903 q 915 718 915 803 l 915 122 q 920 79 915 96 q 935 47 925 63 l 953 22 l 935 0 l 794 0 l 265 785 l 265 279 q 280 144 265 194 q 328 47 294 94 l 346 22 l 328 0 l 64 0 m 478 -449 l 438 -422 l 501 -297 q 518 -240 518 -264 q 486 -189 518 -212 l 461 -172 l 454 -139 l 478 -129 q 517 -117 497 -122 q 556 -112 538 -112 q 619 -133 593 -112 q 646 -206 646 -154 q 613 -293 646 -249 q 532 -390 581 -337 l 478 -449 z "},"Ñ":{"ha":1082,"x_min":47,"x_max":996,"o":"m 64 0 l 47 47 l 79 56 q 150 95 132 69 q 168 185 168 121 l 168 813 q 150 903 168 878 q 79 942 132 928 l 47 950 l 64 997 l 288 997 l 818 210 l 818 813 q 800 903 818 878 q 729 942 782 928 l 697 950 l 714 997 l 978 997 l 996 975 l 978 950 q 930 853 944 903 q 915 718 915 803 l 915 122 q 920 79 915 96 q 935 47 925 63 l 953 22 l 935 0 l 794 0 l 265 785 l 265 279 q 280 144 265 194 q 328 47 294 94 l 346 22 l 328 0 l 64 0 m 376 1128 l 328 1171 q 419 1269 372 1232 q 507 1306 467 1306 q 558 1294 538 1306 q 597 1269 579 1282 q 638 1257 615 1257 q 678 1269 656 1257 q 732 1311 701 1282 l 779 1268 q 689 1170 736 1207 q 601 1133 642 1133 q 549 1146 571 1133 q 510 1170 528 1158 q 469 1182 492 1182 q 428 1169 453 1182 q 376 1128 404 1156 z "},"Ŋ":{"ha":1082,"x_min":47,"x_max":996,"o":"m 64 0 l 47 47 l 79 56 q 150 95 132 69 q 168 185 168 121 l 168 813 q 150 903 168 878 q 79 942 132 928 l 47 950 l 64 997 l 288 997 l 818 210 l 818 813 q 800 903 818 878 q 729 942 782 928 l 697 950 l 714 997 l 978 997 l 996 975 l 978 950 q 930 853 944 903 q 915 718 915 803 l 915 0 q 883 -176 915 -107 q 794 -280 850 -244 q 667 -324 739 -315 l 653 -251 q 715 -231 688 -249 q 760 -172 743 -212 q 778 -62 778 -132 l 778 25 l 265 785 l 265 279 q 280 144 265 194 q 328 47 294 94 l 346 22 l 328 0 l 64 0 z "},"O":{"ha":1018,"x_min":49,"x_max":969,"o":"m 508 -19 q 251 50 353 -19 q 99 237 149 119 q 49 497 49 354 q 76 699 49 604 q 162 865 104 793 q 306 976 219 936 q 508 1017 392 1017 q 711 976 625 1017 q 855 865 797 936 q 941 699 913 793 q 969 497 969 604 q 919 237 969 354 q 766 50 868 119 q 508 -19 664 -19 m 503 63 q 674 120 603 63 q 781 276 744 178 q 818 493 818 374 q 809 605 818 544 q 779 724 800 665 q 724 831 758 783 q 638 908 689 879 q 515 938 586 938 q 343 876 414 938 q 235 712 272 814 q 199 486 199 610 q 233 272 199 368 q 335 119 267 176 q 503 63 403 63 z "},"Ó":{"ha":1018,"x_min":49,"x_max":969,"o":"m 508 -19 q 251 50 353 -19 q 99 237 149 119 q 49 497 49 354 q 76 699 49 604 q 162 865 104 793 q 306 976 219 936 q 508 1017 392 1017 q 711 976 625 1017 q 855 865 797 936 q 941 699 913 793 q 969 497 969 604 q 919 237 969 354 q 766 50 868 119 q 508 -19 664 -19 m 503 63 q 674 120 603 63 q 781 276 744 178 q 818 493 818 374 q 809 605 818 544 q 779 724 800 665 q 724 831 758 783 q 638 908 689 879 q 515 938 586 938 q 343 876 414 938 q 235 712 272 814 q 199 486 199 610 q 233 272 199 368 q 335 119 267 176 q 503 63 403 63 m 426 1097 l 386 1146 l 603 1363 q 645 1328 629 1350 q 661 1275 661 1306 q 644 1220 661 1244 q 583 1175 626 1196 l 426 1097 z "},"Ô":{"ha":1018,"x_min":49,"x_max":969,"o":"m 508 -19 q 251 50 353 -19 q 99 237 149 119 q 49 497 49 354 q 76 699 49 604 q 162 865 104 793 q 306 976 219 936 q 508 1017 392 1017 q 711 976 625 1017 q 855 865 797 936 q 941 699 913 793 q 969 497 969 604 q 919 237 969 354 q 766 50 868 119 q 508 -19 664 -19 m 503 63 q 674 120 603 63 q 781 276 744 178 q 818 493 818 374 q 809 605 818 544 q 779 724 800 665 q 724 831 758 783 q 638 908 689 879 q 515 938 586 938 q 343 876 414 938 q 235 712 272 814 q 199 486 199 610 q 233 272 199 368 q 335 119 267 176 q 503 63 403 63 m 365 1097 l 319 1136 q 383 1235 350 1189 q 445 1313 417 1281 q 492 1356 474 1346 l 529 1356 q 573 1315 544 1347 q 635 1237 601 1283 q 700 1136 669 1190 l 656 1097 l 510 1213 l 365 1097 z "},"Ö":{"ha":1018,"x_min":49,"x_max":969,"o":"m 508 -19 q 251 50 353 -19 q 99 237 149 119 q 49 497 49 354 q 76 699 49 604 q 162 865 104 793 q 306 976 219 936 q 508 1017 392 1017 q 711 976 625 1017 q 855 865 797 936 q 941 699 913 793 q 969 497 969 604 q 919 237 969 354 q 766 50 868 119 q 508 -19 664 -19 m 503 63 q 674 120 603 63 q 781 276 744 178 q 818 493 818 374 q 809 605 818 544 q 779 724 800 665 q 724 831 758 783 q 638 908 689 879 q 515 938 586 938 q 343 876 414 938 q 235 712 272 814 q 199 486 199 610 q 233 272 199 368 q 335 119 267 176 q 503 63 403 63 m 639 1131 q 603 1146 624 1131 q 569 1182 583 1161 q 554 1221 554 1203 q 569 1260 554 1239 q 603 1297 583 1282 q 639 1313 622 1313 q 677 1297 657 1313 q 712 1260 697 1282 q 726 1221 726 1239 q 712 1182 726 1203 q 677 1146 697 1161 q 639 1131 657 1131 m 376 1131 q 341 1146 361 1131 q 306 1182 321 1161 q 292 1221 292 1203 q 306 1260 292 1239 q 340 1297 321 1282 q 376 1313 360 1313 q 415 1297 394 1313 q 449 1260 435 1282 q 464 1221 464 1239 q 449 1182 464 1203 q 415 1146 435 1161 q 376 1131 394 1131 z "},"Ò":{"ha":1018,"x_min":49,"x_max":969,"o":"m 508 -19 q 251 50 353 -19 q 99 237 149 119 q 49 497 49 354 q 76 699 49 604 q 162 865 104 793 q 306 976 219 936 q 508 1017 392 1017 q 711 976 625 1017 q 855 865 797 936 q 941 699 913 793 q 969 497 969 604 q 919 237 969 354 q 766 50 868 119 q 508 -19 664 -19 m 503 63 q 674 120 603 63 q 781 276 744 178 q 818 493 818 374 q 809 605 818 544 q 779 724 800 665 q 724 831 758 783 q 638 908 689 879 q 515 938 586 938 q 343 876 414 938 q 235 712 272 814 q 199 486 199 610 q 233 272 199 368 q 335 119 267 176 q 503 63 403 63 m 607 1097 l 450 1175 q 390 1220 407 1196 q 372 1275 372 1244 q 388 1328 372 1306 q 431 1363 404 1350 l 647 1146 l 607 1097 z "},"Ő":{"ha":1018,"x_min":49,"x_max":969,"o":"m 508 -19 q 251 50 353 -19 q 99 237 149 119 q 49 497 49 354 q 76 699 49 604 q 162 865 104 793 q 306 976 219 936 q 508 1017 392 1017 q 711 976 625 1017 q 855 865 797 936 q 941 699 913 793 q 969 497 969 604 q 919 237 969 354 q 766 50 868 119 q 508 -19 664 -19 m 503 63 q 674 120 603 63 q 781 276 744 178 q 818 493 818 374 q 809 605 818 544 q 779 724 800 665 q 724 831 758 783 q 638 908 689 879 q 515 938 586 938 q 343 876 414 938 q 235 712 272 814 q 199 486 199 610 q 233 272 199 368 q 335 119 267 176 q 503 63 403 63 m 639 1097 l 599 1146 l 815 1363 q 858 1328 842 1350 q 874 1275 874 1306 q 856 1220 874 1244 q 796 1175 839 1196 l 639 1097 m 351 1097 l 311 1146 l 528 1363 q 570 1328 554 1350 q 586 1275 586 1306 q 569 1220 586 1244 q 508 1175 551 1196 l 351 1097 z "},"Ō":{"ha":1018,"x_min":49,"x_max":969,"o":"m 508 -19 q 251 50 353 -19 q 99 237 149 119 q 49 497 49 354 q 76 699 49 604 q 162 865 104 793 q 306 976 219 936 q 508 1017 392 1017 q 711 976 625 1017 q 855 865 797 936 q 941 699 913 793 q 969 497 969 604 q 919 237 969 354 q 766 50 868 119 q 508 -19 664 -19 m 503 63 q 674 120 603 63 q 781 276 744 178 q 818 493 818 374 q 809 605 818 544 q 779 724 800 665 q 724 831 758 783 q 638 908 689 879 q 515 938 586 938 q 343 876 414 938 q 235 712 272 814 q 199 486 199 610 q 233 272 199 368 q 335 119 267 176 q 503 63 403 63 m 304 1164 q 313 1224 304 1192 q 340 1275 321 1257 l 714 1275 q 706 1215 714 1247 q 678 1164 699 1182 l 304 1164 z "},"Ø":{"ha":1018,"x_min":49,"x_max":969,"o":"m 251 -87 l 292 28 q 109 215 169 89 q 49 497 49 340 q 76 699 49 604 q 162 865 104 793 q 306 976 219 936 q 508 1017 392 1017 q 638 1001 576 1017 l 667 1085 l 767 1085 l 725 969 q 909 781 849 907 q 969 497 969 654 q 919 237 969 354 q 766 50 868 119 q 508 -19 664 -19 q 379 -4 440 -19 l 350 -87 l 251 -87 m 199 486 q 231 276 199 371 q 326 126 263 182 l 608 921 q 515 938 565 938 q 343 876 414 938 q 235 712 272 814 q 199 486 199 610 m 503 63 q 674 120 603 63 q 781 276 744 178 q 818 493 818 374 q 806 623 818 553 q 767 758 794 693 q 690 869 739 824 l 408 78 q 503 63 453 63 z "},"Õ":{"ha":1018,"x_min":49,"x_max":969,"o":"m 508 -19 q 251 50 353 -19 q 99 237 149 119 q 49 497 49 354 q 76 699 49 604 q 162 865 104 793 q 306 976 219 936 q 508 1017 392 1017 q 711 976 625 1017 q 855 865 797 936 q 941 699 913 793 q 969 497 969 604 q 919 237 969 354 q 766 50 868 119 q 508 -19 664 -19 m 503 63 q 674 120 603 63 q 781 276 744 178 q 818 493 818 374 q 809 605 818 544 q 779 724 800 665 q 724 831 758 783 q 638 908 689 879 q 515 938 586 938 q 343 876 414 938 q 235 712 272 814 q 199 486 199 610 q 233 272 199 368 q 335 119 267 176 q 503 63 403 63 m 332 1128 l 283 1171 q 375 1269 328 1232 q 463 1306 422 1306 q 514 1294 493 1306 q 553 1269 535 1282 q 593 1257 571 1257 q 634 1269 611 1257 q 688 1311 657 1282 l 735 1268 q 644 1170 692 1207 q 557 1133 597 1133 q 505 1146 526 1133 q 465 1170 483 1158 q 425 1182 447 1182 q 384 1169 408 1182 q 332 1128 360 1156 z "},"Œ":{"ha":1328,"x_min":49,"x_max":1240,"o":"m 1213 -35 l 1201 -19 q 1143 0 1186 0 l 508 0 q 251 67 353 0 q 99 247 149 133 q 49 497 49 360 q 99 748 49 635 q 251 929 149 861 q 508 997 353 997 l 1019 997 q 1178 1026 1139 997 l 1203 1044 l 1225 1026 l 1225 779 l 1178 763 l 1169 794 q 1140 871 1157 844 q 1096 908 1124 897 q 1018 918 1068 918 l 883 918 q 812 898 829 918 q 794 813 794 878 l 794 546 l 971 546 q 1028 560 1003 546 q 1081 610 1054 574 l 1092 625 l 1119 610 l 1119 372 l 1072 356 l 1064 388 q 1019 451 1051 436 q 913 467 986 467 l 794 467 l 794 185 q 812 100 794 121 q 883 79 829 79 l 1033 79 q 1111 90 1083 79 q 1156 127 1139 100 q 1185 203 1172 154 l 1193 235 l 1240 218 l 1240 -19 l 1213 -35 m 521 63 q 657 97 596 63 l 657 879 q 581 921 622 906 q 493 936 539 936 q 353 897 410 936 q 263 794 296 858 q 214 653 229 731 q 199 497 199 575 q 238 278 199 378 q 349 121 276 179 q 521 63 421 63 z "},"P":{"ha":828,"x_min":49,"x_max":800,"o":"m 72 0 l 56 47 l 88 56 q 158 95 140 69 q 176 185 176 121 l 176 871 q 146 904 176 904 l 65 904 l 49 956 q 141 983 85 969 q 263 1007 197 997 q 394 1017 329 1017 q 628 972 539 1017 q 759 851 718 926 q 800 686 800 776 q 765 526 800 600 q 656 407 729 451 q 467 363 582 363 q 382 374 419 363 q 344 411 344 386 q 350 434 344 424 q 367 444 356 444 q 390 440 375 444 q 435 435 404 435 q 599 503 542 435 q 656 682 656 571 q 629 813 656 754 q 550 905 603 871 q 419 939 497 939 q 350 928 372 939 q 321 903 328 918 q 314 875 314 888 l 314 279 q 328 144 314 194 q 376 47 342 93 l 394 22 l 376 0 l 72 0 z "},"Þ":{"ha":828,"x_min":56,"x_max":800,"o":"m 72 0 l 56 47 l 88 56 q 158 96 140 71 q 176 185 176 121 l 176 813 q 158 902 176 878 q 88 942 140 926 l 56 950 l 72 997 l 376 997 l 394 975 l 376 950 q 339 885 353 918 q 318 807 325 851 q 397 828 358 822 q 472 835 436 835 q 642 790 568 835 q 758 672 715 746 q 800 504 800 597 q 765 344 800 418 q 656 225 729 269 q 467 181 582 181 q 382 192 419 181 q 344 229 344 204 q 350 252 344 242 q 367 263 356 263 q 390 258 375 263 q 435 253 404 253 q 599 321 542 253 q 656 500 656 389 q 631 633 656 574 q 557 726 606 692 q 435 761 508 761 q 355 749 381 761 q 322 722 329 738 q 314 692 314 706 l 314 175 q 331 91 314 114 q 399 53 349 68 l 428 44 l 413 0 l 72 0 z "},"Q":{"ha":1018,"x_min":49,"x_max":1088,"o":"m 958 -308 q 858 -281 900 -308 q 785 -208 815 -253 q 731 -111 754 -162 l 676 7 q 597 -12 639 -6 q 508 -19 556 -19 q 251 50 353 -19 q 99 237 149 119 q 49 497 49 354 q 76 699 49 604 q 162 865 104 793 q 306 976 219 936 q 508 1017 392 1017 q 711 976 625 1017 q 855 865 797 936 q 941 699 913 793 q 969 497 969 604 q 924 247 969 361 q 783 64 878 133 l 853 -90 q 913 -172 878 -146 q 999 -197 947 -197 q 1049 -188 1031 -197 q 1075 -179 1067 -179 q 1088 -193 1088 -179 q 1047 -276 1088 -244 q 958 -308 1007 -308 m 725 175 q 818 493 818 299 q 809 605 818 544 q 779 724 800 665 q 724 831 758 783 q 638 908 689 879 q 515 938 586 938 q 343 876 414 938 q 235 712 272 814 q 199 486 199 610 q 219 313 199 393 q 282 176 240 233 q 280 190 281 183 q 279 204 279 197 q 326 313 279 274 q 454 353 374 353 q 597 310 528 353 q 725 175 667 267 m 503 63 q 636 97 575 63 q 533 233 589 194 q 431 272 476 272 q 365 249 392 272 q 339 185 339 225 q 363 115 339 142 q 425 75 388 88 q 503 63 463 63 z "},"R":{"ha":889,"x_min":21,"x_max":863,"o":"m 735 -19 q 621 23 663 -19 q 543 143 579 65 l 438 367 q 403 410 424 397 q 343 436 383 422 q 317 468 317 446 q 322 491 317 481 q 339 501 328 501 q 362 497 347 501 q 407 492 376 492 q 571 551 514 492 q 628 708 628 611 q 568 872 628 806 q 392 939 508 939 q 322 928 344 939 q 293 903 300 918 q 286 875 286 888 l 286 279 q 301 144 286 194 q 349 47 315 93 l 367 22 l 349 0 l 44 0 l 28 47 l 60 56 q 131 95 113 69 q 149 185 149 121 l 149 871 q 118 904 149 904 l 38 904 l 21 956 q 113 983 57 969 q 235 1007 169 997 q 367 1017 301 1017 q 601 976 511 1017 q 731 865 690 935 q 772 713 772 796 q 717 537 772 615 q 547 431 663 458 q 579 401 567 418 q 603 363 592 385 l 732 100 q 754 69 742 82 q 785 57 767 57 q 839 76 811 57 l 863 36 q 799 -6 832 7 q 735 -19 767 -19 z "},"Ŕ":{"ha":889,"x_min":21,"x_max":863,"o":"m 735 -19 q 621 23 663 -19 q 543 143 579 65 l 438 367 q 403 410 424 397 q 343 436 383 422 q 317 468 317 446 q 322 491 317 481 q 339 501 328 501 q 362 497 347 501 q 407 492 376 492 q 571 551 514 492 q 628 708 628 611 q 568 872 628 806 q 392 939 508 939 q 322 928 344 939 q 293 903 300 918 q 286 875 286 888 l 286 279 q 301 144 286 194 q 349 47 315 93 l 367 22 l 349 0 l 44 0 l 28 47 l 60 56 q 131 95 113 69 q 149 185 149 121 l 149 871 q 118 904 149 904 l 38 904 l 21 956 q 113 983 57 969 q 235 1007 169 997 q 367 1017 301 1017 q 601 976 511 1017 q 731 865 690 935 q 772 713 772 796 q 717 537 772 615 q 547 431 663 458 q 579 401 567 418 q 603 363 592 385 l 732 100 q 754 69 742 82 q 785 57 767 57 q 839 76 811 57 l 863 36 q 799 -6 832 7 q 735 -19 767 -19 m 361 1097 l 321 1146 l 538 1363 q 580 1328 564 1350 q 596 1275 596 1306 q 578 1220 596 1244 q 518 1175 561 1196 l 361 1097 z "},"Ř":{"ha":889,"x_min":21,"x_max":863,"o":"m 735 -19 q 621 23 663 -19 q 543 143 579 65 l 438 367 q 403 410 424 397 q 343 436 383 422 q 317 468 317 446 q 322 491 317 481 q 339 501 328 501 q 362 497 347 501 q 407 492 376 492 q 571 551 514 492 q 628 708 628 611 q 568 872 628 806 q 392 939 508 939 q 322 928 344 939 q 293 903 300 918 q 286 875 286 888 l 286 279 q 301 144 286 194 q 349 47 315 93 l 367 22 l 349 0 l 44 0 l 28 47 l 60 56 q 131 95 113 69 q 149 185 149 121 l 149 871 q 118 904 149 904 l 38 904 l 21 956 q 113 983 57 969 q 235 1007 169 997 q 367 1017 301 1017 q 601 976 511 1017 q 731 865 690 935 q 772 713 772 796 q 717 537 772 615 q 547 431 663 458 q 579 401 567 418 q 603 363 592 385 l 732 100 q 754 69 742 82 q 785 57 767 57 q 839 76 811 57 l 863 36 q 799 -6 832 7 q 735 -19 767 -19 m 426 1110 q 380 1153 408 1121 q 318 1231 351 1185 q 254 1329 285 1276 l 300 1368 l 444 1251 l 590 1368 l 635 1329 q 570 1228 604 1275 q 508 1151 536 1182 q 464 1110 479 1119 l 426 1110 z "},"Ŗ":{"ha":889,"x_min":21,"x_max":863,"o":"m 735 -19 q 621 23 663 -19 q 543 143 579 65 l 438 367 q 403 410 424 397 q 343 436 383 422 q 317 468 317 446 q 322 491 317 481 q 339 501 328 501 q 362 497 347 501 q 407 492 376 492 q 571 551 514 492 q 628 708 628 611 q 568 872 628 806 q 392 939 508 939 q 322 928 344 939 q 293 903 300 918 q 286 875 286 888 l 286 279 q 301 144 286 194 q 349 47 315 93 l 367 22 l 349 0 l 44 0 l 28 47 l 60 56 q 131 95 113 69 q 149 185 149 121 l 149 871 q 118 904 149 904 l 38 904 l 21 956 q 113 983 57 969 q 235 1007 169 997 q 367 1017 301 1017 q 601 976 511 1017 q 731 865 690 935 q 772 713 772 796 q 717 537 772 615 q 547 431 663 458 q 579 401 567 418 q 603 363 592 385 l 732 100 q 754 69 742 82 q 785 57 767 57 q 839 76 811 57 l 863 36 q 799 -6 832 7 q 735 -19 767 -19 m 381 -449 l 340 -422 l 404 -297 q 421 -240 421 -264 q 389 -189 421 -212 l 364 -172 l 357 -139 l 381 -129 q 420 -117 400 -122 q 458 -112 440 -112 q 522 -133 496 -112 q 549 -206 549 -154 q 516 -293 549 -249 q 435 -390 483 -337 l 381 -449 z "},"S":{"ha":794,"x_min":63,"x_max":725,"o":"m 406 -19 q 228 9 306 -19 q 106 88 150 38 q 63 204 63 139 q 108 322 63 276 q 221 367 153 367 q 250 350 250 367 q 239 329 250 344 q 217 288 228 314 q 206 224 206 263 q 261 105 206 151 q 406 58 317 58 q 534 99 483 58 q 585 215 585 140 q 558 313 585 274 q 486 381 531 353 q 388 432 442 408 q 281 481 335 456 q 183 541 228 507 q 112 625 139 575 q 85 747 85 675 q 117 877 85 815 q 217 978 150 939 q 388 1017 285 1017 q 550 991 479 1017 q 660 919 621 965 q 700 813 700 874 q 658 695 700 740 q 551 650 615 650 q 522 667 522 650 q 533 688 522 674 q 553 728 543 703 q 564 793 564 754 q 515 899 564 858 q 388 939 467 939 q 259 890 301 939 q 217 779 217 840 q 244 692 217 728 q 317 628 272 656 q 417 578 363 601 q 525 527 471 554 q 624 464 579 500 q 697 376 669 428 q 725 251 725 325 q 644 56 725 131 q 406 -19 563 -19 z "},"Ś":{"ha":794,"x_min":63,"x_max":725,"o":"m 406 -19 q 228 9 306 -19 q 106 88 150 38 q 63 204 63 139 q 108 322 63 276 q 221 367 153 367 q 250 350 250 367 q 239 329 250 344 q 217 288 228 314 q 206 224 206 263 q 261 105 206 151 q 406 58 317 58 q 534 99 483 58 q 585 215 585 140 q 558 313 585 274 q 486 381 531 353 q 388 432 442 408 q 281 481 335 456 q 183 541 228 507 q 112 625 139 575 q 85 747 85 675 q 117 877 85 815 q 217 978 150 939 q 388 1017 285 1017 q 550 991 479 1017 q 660 919 621 965 q 700 813 700 874 q 658 695 700 740 q 551 650 615 650 q 522 667 522 650 q 533 688 522 674 q 553 728 543 703 q 564 793 564 754 q 515 899 564 858 q 388 939 467 939 q 259 890 301 939 q 217 779 217 840 q 244 692 217 728 q 317 628 272 656 q 417 578 363 601 q 525 527 471 554 q 624 464 579 500 q 697 376 669 428 q 725 251 725 325 q 644 56 725 131 q 406 -19 563 -19 m 322 1097 l 282 1146 l 499 1363 q 541 1328 525 1350 q 557 1275 557 1306 q 540 1220 557 1244 q 479 1175 522 1196 l 322 1097 z "},"Š":{"ha":794,"x_min":63,"x_max":725,"o":"m 406 -19 q 228 9 306 -19 q 106 88 150 38 q 63 204 63 139 q 108 322 63 276 q 221 367 153 367 q 250 350 250 367 q 239 329 250 344 q 217 288 228 314 q 206 224 206 263 q 261 105 206 151 q 406 58 317 58 q 534 99 483 58 q 585 215 585 140 q 558 313 585 274 q 486 381 531 353 q 388 432 442 408 q 281 481 335 456 q 183 541 228 507 q 112 625 139 575 q 85 747 85 675 q 117 877 85 815 q 217 978 150 939 q 388 1017 285 1017 q 550 991 479 1017 q 660 919 621 965 q 700 813 700 874 q 658 695 700 740 q 551 650 615 650 q 522 667 522 650 q 533 688 522 674 q 553 728 543 703 q 564 793 564 754 q 515 899 564 858 q 388 939 467 939 q 259 890 301 939 q 217 779 217 840 q 244 692 217 728 q 317 628 272 656 q 417 578 363 601 q 525 527 471 554 q 624 464 579 500 q 697 376 669 428 q 725 251 725 325 q 644 56 725 131 q 406 -19 563 -19 m 388 1110 q 341 1153 369 1121 q 279 1231 313 1185 q 215 1329 246 1276 l 261 1368 l 406 1251 l 551 1368 l 596 1329 q 531 1228 565 1275 q 469 1151 497 1182 q 425 1110 440 1119 l 388 1110 z "},"Ş":{"ha":794,"x_min":63,"x_max":725,"o":"m 406 -19 q 228 9 306 -19 q 106 88 150 38 q 63 204 63 139 q 108 322 63 276 q 221 367 153 367 q 250 350 250 367 q 239 329 250 344 q 217 288 228 314 q 206 224 206 263 q 261 105 206 151 q 406 58 317 58 q 534 99 483 58 q 585 215 585 140 q 558 313 585 274 q 486 381 531 353 q 388 432 442 408 q 281 481 335 456 q 183 541 228 507 q 112 625 139 575 q 85 747 85 675 q 117 877 85 815 q 217 978 150 939 q 388 1017 285 1017 q 550 991 479 1017 q 660 919 621 965 q 700 813 700 874 q 658 695 700 740 q 551 650 615 650 q 522 667 522 650 q 533 688 522 674 q 553 728 543 703 q 564 793 564 754 q 515 899 564 858 q 388 939 467 939 q 259 890 301 939 q 217 779 217 840 q 244 692 217 728 q 317 628 272 656 q 417 578 363 601 q 525 527 471 554 q 624 464 579 500 q 697 376 669 428 q 725 251 725 325 q 644 56 725 131 q 406 -19 563 -19 m 378 -421 q 274 -394 321 -421 q 226 -314 226 -367 q 253 -255 226 -276 q 315 -233 279 -233 q 339 -247 339 -233 q 329 -267 339 -257 q 319 -308 319 -276 q 337 -348 319 -333 q 376 -362 354 -362 q 442 -329 419 -362 q 464 -257 464 -296 q 441 -186 464 -218 q 371 -154 418 -154 q 335 -160 354 -154 q 294 -178 315 -165 l 267 -153 l 431 60 l 464 29 l 357 -108 q 410 -103 381 -103 q 519 -141 471 -103 q 567 -260 567 -179 q 542 -340 567 -303 q 475 -399 518 -376 q 378 -421 432 -421 z "},"Ș":{"ha":794,"x_min":63,"x_max":725,"o":"m 406 -19 q 228 9 306 -19 q 106 88 150 38 q 63 204 63 139 q 108 322 63 276 q 221 367 153 367 q 250 350 250 367 q 239 329 250 344 q 217 288 228 314 q 206 224 206 263 q 261 105 206 151 q 406 58 317 58 q 534 99 483 58 q 585 215 585 140 q 558 313 585 274 q 486 381 531 353 q 388 432 442 408 q 281 481 335 456 q 183 541 228 507 q 112 625 139 575 q 85 747 85 675 q 117 877 85 815 q 217 978 150 939 q 388 1017 285 1017 q 550 991 479 1017 q 660 919 621 965 q 700 813 700 874 q 658 695 700 740 q 551 650 615 650 q 522 667 522 650 q 533 688 522 674 q 553 728 543 703 q 564 793 564 754 q 515 899 564 858 q 388 939 467 939 q 259 890 301 939 q 217 779 217 840 q 244 692 217 728 q 317 628 272 656 q 417 578 363 601 q 525 527 471 554 q 624 464 579 500 q 697 376 669 428 q 725 251 725 325 q 644 56 725 131 q 406 -19 563 -19 m 333 -460 l 293 -433 l 357 -308 q 374 -251 374 -275 q 342 -200 374 -224 l 317 -183 l 310 -150 l 333 -140 q 373 -128 353 -133 q 411 -124 393 -124 q 475 -144 449 -124 q 501 -217 501 -165 q 469 -304 501 -260 q 388 -401 436 -349 l 333 -460 z "},"T":{"ha":826,"x_min":28,"x_max":799,"o":"m 282 0 l 264 22 l 282 47 q 331 144 317 93 q 344 279 344 194 l 344 813 q 335 898 344 878 q 297 918 326 918 l 235 918 q 158 908 186 918 q 113 871 129 897 q 83 794 97 844 l 75 763 l 28 779 l 28 1026 l 50 1044 l 75 1026 q 233 997 114 997 l 593 997 q 751 1026 713 997 l 776 1044 l 799 1026 l 799 779 l 751 763 l 743 794 q 714 871 731 844 q 669 908 697 897 q 592 918 642 918 l 529 918 q 491 898 500 918 q 482 813 482 878 l 482 185 q 501 96 482 121 q 571 56 519 71 l 603 47 l 586 0 l 282 0 z "},"Ť":{"ha":826,"x_min":28,"x_max":799,"o":"m 282 0 l 264 22 l 282 47 q 331 144 317 93 q 344 279 344 194 l 344 813 q 335 898 344 878 q 297 918 326 918 l 235 918 q 158 908 186 918 q 113 871 129 897 q 83 794 97 844 l 75 763 l 28 779 l 28 1026 l 50 1044 l 75 1026 q 233 997 114 997 l 593 997 q 751 1026 713 997 l 776 1044 l 799 1026 l 799 779 l 751 763 l 743 794 q 714 871 731 844 q 669 908 697 897 q 592 918 642 918 l 529 918 q 491 898 500 918 q 482 813 482 878 l 482 185 q 501 96 482 121 q 571 56 519 71 l 603 47 l 586 0 l 282 0 m 396 1110 q 349 1153 378 1121 q 288 1231 321 1185 q 224 1329 254 1276 l 269 1368 l 414 1251 l 560 1368 l 604 1329 q 540 1228 574 1275 q 477 1151 506 1182 q 433 1110 449 1119 l 396 1110 z "},"Ț":{"ha":826,"x_min":28,"x_max":799,"o":"m 282 0 l 264 22 l 282 47 q 331 144 317 93 q 344 279 344 194 l 344 813 q 335 898 344 878 q 297 918 326 918 l 235 918 q 158 908 186 918 q 113 871 129 897 q 83 794 97 844 l 75 763 l 28 779 l 28 1026 l 50 1044 l 75 1026 q 233 997 114 997 l 593 997 q 751 1026 713 997 l 776 1044 l 799 1026 l 799 779 l 751 763 l 743 794 q 714 871 731 844 q 669 908 697 897 q 592 918 642 918 l 529 918 q 491 898 500 918 q 482 813 482 878 l 482 185 q 501 96 482 121 q 571 56 519 71 l 603 47 l 586 0 l 282 0 m 350 -449 l 310 -422 l 374 -297 q 390 -240 390 -264 q 358 -189 390 -212 l 333 -172 l 326 -139 l 350 -129 q 390 -117 369 -122 q 428 -112 410 -112 q 492 -133 465 -112 q 518 -206 518 -154 q 485 -293 518 -249 q 404 -390 453 -337 l 350 -449 z "},"U":{"ha":1026,"x_min":33,"x_max":958,"o":"m 518 -19 q 334 14 417 -19 q 203 119 251 47 q 154 306 154 192 l 154 813 q 136 903 154 878 q 65 942 118 928 l 33 950 l 50 997 l 354 997 l 372 975 l 354 950 q 306 853 321 903 q 292 718 292 803 l 292 306 q 324 177 292 231 q 413 96 357 124 q 536 68 468 68 q 660 96 604 68 q 748 177 715 124 q 781 306 781 231 l 781 813 q 763 903 781 878 q 692 942 744 928 l 660 950 l 676 997 l 940 997 l 958 975 l 940 950 q 892 853 907 903 q 878 718 878 803 l 878 306 q 830 119 878 192 q 700 14 782 47 q 518 -19 618 -19 z "},"Ú":{"ha":1026,"x_min":33,"x_max":958,"o":"m 518 -19 q 334 14 417 -19 q 203 119 251 47 q 154 306 154 192 l 154 813 q 136 903 154 878 q 65 942 118 928 l 33 950 l 50 997 l 354 997 l 372 975 l 354 950 q 306 853 321 903 q 292 718 292 803 l 292 306 q 324 177 292 231 q 413 96 357 124 q 536 68 468 68 q 660 96 604 68 q 748 177 715 124 q 781 306 781 231 l 781 813 q 763 903 781 878 q 692 942 744 928 l 660 950 l 676 997 l 940 997 l 958 975 l 940 950 q 892 853 907 903 q 878 718 878 803 l 878 306 q 830 119 878 192 q 700 14 782 47 q 518 -19 618 -19 m 447 1097 l 407 1146 l 624 1363 q 666 1328 650 1350 q 682 1275 682 1306 q 665 1220 682 1244 q 604 1175 647 1196 l 447 1097 z "},"Ŭ":{"ha":1026,"x_min":33,"x_max":958,"o":"m 518 -19 q 334 14 417 -19 q 203 119 251 47 q 154 306 154 192 l 154 813 q 136 903 154 878 q 65 942 118 928 l 33 950 l 50 997 l 354 997 l 372 975 l 354 950 q 306 853 321 903 q 292 718 292 803 l 292 306 q 324 177 292 231 q 413 96 357 124 q 536 68 468 68 q 660 96 604 68 q 748 177 715 124 q 781 306 781 231 l 781 813 q 763 903 781 878 q 692 942 744 928 l 660 950 l 676 997 l 940 997 l 958 975 l 940 950 q 892 853 907 903 q 878 718 878 803 l 878 306 q 830 119 878 192 q 700 14 782 47 q 518 -19 618 -19 m 531 1113 q 407 1161 457 1113 q 357 1307 357 1210 l 433 1307 q 462 1242 433 1265 q 531 1218 490 1218 q 599 1242 571 1218 q 626 1307 626 1265 l 703 1307 q 653 1161 703 1210 q 531 1113 604 1113 z "},"Û":{"ha":1026,"x_min":33,"x_max":958,"o":"m 518 -19 q 334 14 417 -19 q 203 119 251 47 q 154 306 154 192 l 154 813 q 136 903 154 878 q 65 942 118 928 l 33 950 l 50 997 l 354 997 l 372 975 l 354 950 q 306 853 321 903 q 292 718 292 803 l 292 306 q 324 177 292 231 q 413 96 357 124 q 536 68 468 68 q 660 96 604 68 q 748 177 715 124 q 781 306 781 231 l 781 813 q 763 903 781 878 q 692 942 744 928 l 660 950 l 676 997 l 940 997 l 958 975 l 940 950 q 892 853 907 903 q 878 718 878 803 l 878 306 q 830 119 878 192 q 700 14 782 47 q 518 -19 618 -19 m 386 1097 l 340 1136 q 404 1235 371 1189 q 466 1313 438 1281 q 513 1356 494 1346 l 550 1356 q 594 1315 565 1347 q 656 1237 622 1283 q 721 1136 690 1190 l 676 1097 l 531 1213 l 386 1097 z "},"Ü":{"ha":1026,"x_min":33,"x_max":958,"o":"m 518 -19 q 334 14 417 -19 q 203 119 251 47 q 154 306 154 192 l 154 813 q 136 903 154 878 q 65 942 118 928 l 33 950 l 50 997 l 354 997 l 372 975 l 354 950 q 306 853 321 903 q 292 718 292 803 l 292 306 q 324 177 292 231 q 413 96 357 124 q 536 68 468 68 q 660 96 604 68 q 748 177 715 124 q 781 306 781 231 l 781 813 q 763 903 781 878 q 692 942 744 928 l 660 950 l 676 997 l 940 997 l 958 975 l 940 950 q 892 853 907 903 q 878 718 878 803 l 878 306 q 830 119 878 192 q 700 14 782 47 q 518 -19 618 -19 m 660 1131 q 624 1146 644 1131 q 590 1182 604 1161 q 575 1221 575 1203 q 590 1260 575 1239 q 624 1297 604 1282 q 660 1313 643 1313 q 698 1297 678 1313 q 733 1260 718 1282 q 747 1221 747 1239 q 733 1182 747 1203 q 698 1146 718 1161 q 660 1131 678 1131 m 397 1131 q 362 1146 382 1131 q 327 1182 342 1161 q 313 1221 313 1203 q 327 1260 313 1239 q 361 1297 342 1282 q 397 1313 381 1313 q 435 1297 415 1313 q 470 1260 456 1282 q 485 1221 485 1239 q 470 1182 485 1203 q 435 1146 456 1161 q 397 1131 415 1131 z "},"Ù":{"ha":1026,"x_min":33,"x_max":958,"o":"m 518 -19 q 334 14 417 -19 q 203 119 251 47 q 154 306 154 192 l 154 813 q 136 903 154 878 q 65 942 118 928 l 33 950 l 50 997 l 354 997 l 372 975 l 354 950 q 306 853 321 903 q 292 718 292 803 l 292 306 q 324 177 292 231 q 413 96 357 124 q 536 68 468 68 q 660 96 604 68 q 748 177 715 124 q 781 306 781 231 l 781 813 q 763 903 781 878 q 692 942 744 928 l 660 950 l 676 997 l 940 997 l 958 975 l 940 950 q 892 853 907 903 q 878 718 878 803 l 878 306 q 830 119 878 192 q 700 14 782 47 q 518 -19 618 -19 m 628 1097 l 471 1175 q 410 1220 428 1196 q 393 1275 393 1244 q 409 1328 393 1306 q 451 1363 425 1350 l 668 1146 l 628 1097 z "},"Ű":{"ha":1026,"x_min":33,"x_max":958,"o":"m 518 -19 q 334 14 417 -19 q 203 119 251 47 q 154 306 154 192 l 154 813 q 136 903 154 878 q 65 942 118 928 l 33 950 l 50 997 l 354 997 l 372 975 l 354 950 q 306 853 321 903 q 292 718 292 803 l 292 306 q 324 177 292 231 q 413 96 357 124 q 536 68 468 68 q 660 96 604 68 q 748 177 715 124 q 781 306 781 231 l 781 813 q 763 903 781 878 q 692 942 744 928 l 660 950 l 676 997 l 940 997 l 958 975 l 940 950 q 892 853 907 903 q 878 718 878 803 l 878 306 q 830 119 878 192 q 700 14 782 47 q 518 -19 618 -19 m 660 1097 l 619 1146 l 836 1363 q 878 1328 863 1350 q 894 1275 894 1306 q 877 1220 894 1244 q 817 1175 860 1196 l 660 1097 m 372 1097 l 332 1146 l 549 1363 q 591 1328 575 1350 q 607 1275 607 1306 q 590 1220 607 1244 q 529 1175 572 1196 l 372 1097 z "},"Ū":{"ha":1026,"x_min":33,"x_max":958,"o":"m 518 -19 q 334 14 417 -19 q 203 119 251 47 q 154 306 154 192 l 154 813 q 136 903 154 878 q 65 942 118 928 l 33 950 l 50 997 l 354 997 l 372 975 l 354 950 q 306 853 321 903 q 292 718 292 803 l 292 306 q 324 177 292 231 q 413 96 357 124 q 536 68 468 68 q 660 96 604 68 q 748 177 715 124 q 781 306 781 231 l 781 813 q 763 903 781 878 q 692 942 744 928 l 660 950 l 676 997 l 940 997 l 958 975 l 940 950 q 892 853 907 903 q 878 718 878 803 l 878 306 q 830 119 878 192 q 700 14 782 47 q 518 -19 618 -19 m 325 1164 q 333 1224 325 1192 q 361 1275 342 1257 l 735 1275 q 727 1215 735 1247 q 699 1164 719 1182 l 325 1164 z "},"Ų":{"ha":1026,"x_min":33,"x_max":958,"o":"m 518 -19 q 334 14 417 -19 q 203 119 251 47 q 154 306 154 192 l 154 813 q 136 903 154 878 q 65 942 118 928 l 33 950 l 50 997 l 354 997 l 372 975 l 354 950 q 306 853 321 903 q 292 718 292 803 l 292 306 q 324 177 292 231 q 413 96 357 124 q 536 68 468 68 q 660 96 604 68 q 748 177 715 124 q 781 306 781 231 l 781 813 q 763 903 781 878 q 692 942 744 928 l 660 950 l 676 997 l 940 997 l 958 975 l 940 950 q 892 853 907 903 q 878 718 878 803 l 878 306 q 830 119 878 192 q 700 14 782 47 q 518 -19 618 -19 m 554 -412 q 437 -372 486 -412 q 388 -254 388 -331 q 458 -96 388 -169 q 665 68 529 -22 l 701 14 q 545 -120 592 -58 q 499 -231 499 -182 q 523 -299 499 -276 q 583 -321 547 -321 q 683 -289 628 -321 q 783 -194 738 -257 l 831 -237 q 696 -369 768 -326 q 554 -412 624 -412 z "},"Ů":{"ha":1026,"x_min":33,"x_max":958,"o":"m 518 -19 q 334 14 417 -19 q 203 119 251 47 q 154 306 154 192 l 154 813 q 136 903 154 878 q 65 942 118 928 l 33 950 l 50 997 l 354 997 l 372 975 l 354 950 q 306 853 321 903 q 292 718 292 803 l 292 306 q 324 177 292 231 q 413 96 357 124 q 536 68 468 68 q 660 96 604 68 q 748 177 715 124 q 781 306 781 231 l 781 813 q 763 903 781 878 q 692 942 744 928 l 660 950 l 676 997 l 940 997 l 958 975 l 940 950 q 892 853 907 903 q 878 718 878 803 l 878 306 q 830 119 878 192 q 700 14 782 47 q 518 -19 618 -19 m 528 1074 q 412 1116 451 1074 q 372 1221 372 1158 q 412 1326 372 1283 q 528 1369 451 1369 q 648 1326 608 1369 q 688 1221 688 1283 q 648 1116 688 1158 q 528 1074 608 1074 m 528 1140 q 574 1164 558 1140 q 589 1221 589 1188 q 574 1278 589 1254 q 528 1301 558 1301 q 485 1278 500 1301 q 469 1221 469 1254 q 485 1164 469 1188 q 528 1140 500 1140 z "},"V":{"ha":947,"x_min":7,"x_max":926,"o":"m 403 0 l 132 806 q 99 881 117 851 q 60 931 82 910 q 7 975 38 953 l 25 997 l 338 997 l 354 950 l 322 942 q 275 920 290 933 q 260 881 260 907 q 264 851 260 867 q 275 813 268 835 l 501 115 l 696 719 q 715 792 708 760 q 722 849 722 824 q 660 942 719 925 l 628 950 l 644 997 l 908 997 l 926 975 l 906 950 q 860 884 879 918 q 829 811 842 850 l 561 0 l 403 0 z "},"W":{"ha":1510,"x_min":7,"x_max":1489,"o":"m 403 0 l 132 806 q 99 881 117 851 q 60 931 82 910 q 7 975 38 953 l 25 997 l 338 997 l 354 950 l 322 942 q 275 920 290 933 q 260 881 260 907 q 264 851 260 867 q 275 813 268 835 l 501 115 l 708 761 l 694 806 q 662 881 679 851 q 622 931 644 910 q 569 975 600 953 l 588 997 l 900 997 l 917 950 l 885 942 q 838 920 853 933 q 822 881 822 907 q 826 851 822 867 q 838 813 831 835 l 1064 115 l 1258 719 q 1278 792 1271 760 q 1285 849 1285 824 q 1222 942 1282 925 l 1190 950 l 1207 997 l 1471 997 l 1489 975 l 1468 950 q 1423 884 1442 918 q 1392 811 1404 850 l 1124 0 l 965 0 l 761 606 l 561 0 l 403 0 z "},"Ẃ":{"ha":1510,"x_min":7,"x_max":1489,"o":"m 403 0 l 132 806 q 99 881 117 851 q 60 931 82 910 q 7 975 38 953 l 25 997 l 338 997 l 354 950 l 322 942 q 275 920 290 933 q 260 881 260 907 q 264 851 260 867 q 275 813 268 835 l 501 115 l 708 761 l 694 806 q 662 881 679 851 q 622 931 644 910 q 569 975 600 953 l 588 997 l 900 997 l 917 950 l 885 942 q 838 920 853 933 q 822 881 822 907 q 826 851 822 867 q 838 813 831 835 l 1064 115 l 1258 719 q 1278 792 1271 760 q 1285 849 1285 824 q 1222 942 1282 925 l 1190 950 l 1207 997 l 1471 997 l 1489 975 l 1468 950 q 1423 884 1442 918 q 1392 811 1404 850 l 1124 0 l 965 0 l 761 606 l 561 0 l 403 0 m 672 1097 l 632 1146 l 849 1363 q 891 1328 875 1350 q 907 1275 907 1306 q 890 1220 907 1244 q 829 1175 872 1196 l 672 1097 z "},"Ŵ":{"ha":1510,"x_min":7,"x_max":1489,"o":"m 403 0 l 132 806 q 99 881 117 851 q 60 931 82 910 q 7 975 38 953 l 25 997 l 338 997 l 354 950 l 322 942 q 275 920 290 933 q 260 881 260 907 q 264 851 260 867 q 275 813 268 835 l 501 115 l 708 761 l 694 806 q 662 881 679 851 q 622 931 644 910 q 569 975 600 953 l 588 997 l 900 997 l 917 950 l 885 942 q 838 920 853 933 q 822 881 822 907 q 826 851 822 867 q 838 813 831 835 l 1064 115 l 1258 719 q 1278 792 1271 760 q 1285 849 1285 824 q 1222 942 1282 925 l 1190 950 l 1207 997 l 1471 997 l 1489 975 l 1468 950 q 1423 884 1442 918 q 1392 811 1404 850 l 1124 0 l 965 0 l 761 606 l 561 0 l 403 0 m 611 1097 l 565 1136 q 629 1235 596 1189 q 691 1313 663 1281 q 738 1356 719 1346 l 775 1356 q 819 1315 790 1347 q 881 1237 847 1283 q 946 1136 915 1190 l 901 1097 l 756 1213 l 611 1097 z "},"Ẅ":{"ha":1510,"x_min":7,"x_max":1489,"o":"m 403 0 l 132 806 q 99 881 117 851 q 60 931 82 910 q 7 975 38 953 l 25 997 l 338 997 l 354 950 l 322 942 q 275 920 290 933 q 260 881 260 907 q 264 851 260 867 q 275 813 268 835 l 501 115 l 708 761 l 694 806 q 662 881 679 851 q 622 931 644 910 q 569 975 600 953 l 588 997 l 900 997 l 917 950 l 885 942 q 838 920 853 933 q 822 881 822 907 q 826 851 822 867 q 838 813 831 835 l 1064 115 l 1258 719 q 1278 792 1271 760 q 1285 849 1285 824 q 1222 942 1282 925 l 1190 950 l 1207 997 l 1471 997 l 1489 975 l 1468 950 q 1423 884 1442 918 q 1392 811 1404 850 l 1124 0 l 965 0 l 761 606 l 561 0 l 403 0 m 885 1131 q 849 1146 869 1131 q 815 1182 829 1161 q 800 1221 800 1203 q 815 1260 800 1239 q 849 1297 829 1282 q 885 1313 868 1313 q 923 1297 903 1313 q 958 1260 943 1282 q 972 1221 972 1239 q 958 1182 972 1203 q 923 1146 943 1161 q 885 1131 903 1131 m 622 1131 q 587 1146 607 1131 q 552 1182 567 1161 q 538 1221 538 1203 q 552 1260 538 1239 q 586 1297 567 1282 q 622 1313 606 1313 q 660 1297 640 1313 q 695 1260 681 1282 q 710 1221 710 1239 q 695 1182 710 1203 q 660 1146 681 1161 q 622 1131 640 1131 z "},"Ẁ":{"ha":1510,"x_min":7,"x_max":1489,"o":"m 403 0 l 132 806 q 99 881 117 851 q 60 931 82 910 q 7 975 38 953 l 25 997 l 338 997 l 354 950 l 322 942 q 275 920 290 933 q 260 881 260 907 q 264 851 260 867 q 275 813 268 835 l 501 115 l 708 761 l 694 806 q 662 881 679 851 q 622 931 644 910 q 569 975 600 953 l 588 997 l 900 997 l 917 950 l 885 942 q 838 920 853 933 q 822 881 822 907 q 826 851 822 867 q 838 813 831 835 l 1064 115 l 1258 719 q 1278 792 1271 760 q 1285 849 1285 824 q 1222 942 1282 925 l 1190 950 l 1207 997 l 1471 997 l 1489 975 l 1468 950 q 1423 884 1442 918 q 1392 811 1404 850 l 1124 0 l 965 0 l 761 606 l 561 0 l 403 0 m 853 1097 l 696 1175 q 635 1220 653 1196 q 618 1275 618 1244 q 634 1328 618 1306 q 676 1363 650 1350 l 893 1146 l 853 1097 z "},"X":{"ha":944,"x_min":14,"x_max":931,"o":"m 31 0 l 14 47 l 46 56 q 103 79 76 64 q 154 131 129 94 l 403 490 l 165 828 q 107 904 139 864 q 39 975 75 944 l 57 997 l 386 997 l 403 950 l 371 942 q 328 917 340 933 q 317 882 317 901 q 327 838 317 860 q 347 800 338 815 l 490 596 l 633 810 q 658 855 653 839 q 663 888 663 871 q 656 922 663 904 q 644 950 650 939 l 632 975 l 658 997 l 914 997 l 931 950 l 899 942 q 842 918 868 933 q 790 867 815 903 l 547 515 l 797 161 q 851 89 825 122 q 918 22 878 56 l 900 0 l 571 0 l 554 47 l 586 56 q 628 80 617 64 q 640 115 640 96 q 631 160 640 138 q 610 197 621 182 l 458 410 l 311 188 q 288 142 293 158 q 282 110 282 126 q 288 76 282 93 q 300 47 294 58 l 313 22 l 286 0 l 31 0 z "},"Y":{"ha":869,"x_min":7,"x_max":835,"o":"m 303 0 l 285 22 l 303 47 q 352 144 336 93 q 368 279 368 194 l 368 410 l 146 800 q 81 901 111 863 q 7 975 51 940 l 25 997 l 338 997 l 354 950 l 322 942 q 275 920 290 933 q 260 881 260 907 q 276 840 260 867 q 303 793 292 813 l 453 531 l 610 811 q 626 868 626 843 q 608 917 626 899 q 568 942 590 936 l 536 950 l 553 997 l 817 997 l 835 975 l 814 950 q 761 878 788 918 q 715 803 735 839 l 500 421 l 500 185 q 520 95 500 121 q 592 56 540 69 l 624 47 l 607 0 l 303 0 z "},"Ý":{"ha":869,"x_min":7,"x_max":835,"o":"m 303 0 l 285 22 l 303 47 q 352 144 336 93 q 368 279 368 194 l 368 410 l 146 800 q 81 901 111 863 q 7 975 51 940 l 25 997 l 338 997 l 354 950 l 322 942 q 275 920 290 933 q 260 881 260 907 q 276 840 260 867 q 303 793 292 813 l 453 531 l 610 811 q 626 868 626 843 q 608 917 626 899 q 568 942 590 936 l 536 950 l 553 997 l 817 997 l 835 975 l 814 950 q 761 878 788 918 q 715 803 735 839 l 500 421 l 500 185 q 520 95 500 121 q 592 56 540 69 l 624 47 l 607 0 l 303 0 m 389 1097 l 349 1146 l 565 1363 q 608 1328 592 1350 q 624 1275 624 1306 q 606 1220 624 1244 q 546 1175 589 1196 l 389 1097 z "},"Ŷ":{"ha":869,"x_min":7,"x_max":835,"o":"m 303 0 l 285 22 l 303 47 q 352 144 336 93 q 368 279 368 194 l 368 410 l 146 800 q 81 901 111 863 q 7 975 51 940 l 25 997 l 338 997 l 354 950 l 322 942 q 275 920 290 933 q 260 881 260 907 q 276 840 260 867 q 303 793 292 813 l 453 531 l 610 811 q 626 868 626 843 q 608 917 626 899 q 568 942 590 936 l 536 950 l 553 997 l 817 997 l 835 975 l 814 950 q 761 878 788 918 q 715 803 735 839 l 500 421 l 500 185 q 520 95 500 121 q 592 56 540 69 l 624 47 l 607 0 l 303 0 m 328 1097 l 282 1136 q 346 1235 313 1189 q 408 1313 379 1281 q 454 1356 436 1346 l 492 1356 q 535 1315 507 1347 q 598 1237 564 1283 q 663 1136 632 1190 l 618 1097 l 472 1213 l 328 1097 z "},"Ÿ":{"ha":869,"x_min":7,"x_max":835,"o":"m 303 0 l 285 22 l 303 47 q 352 144 336 93 q 368 279 368 194 l 368 410 l 146 800 q 81 901 111 863 q 7 975 51 940 l 25 997 l 338 997 l 354 950 l 322 942 q 275 920 290 933 q 260 881 260 907 q 276 840 260 867 q 303 793 292 813 l 453 531 l 610 811 q 626 868 626 843 q 608 917 626 899 q 568 942 590 936 l 536 950 l 553 997 l 817 997 l 835 975 l 814 950 q 761 878 788 918 q 715 803 735 839 l 500 421 l 500 185 q 520 95 500 121 q 592 56 540 69 l 624 47 l 607 0 l 303 0 m 601 1131 q 566 1146 586 1131 q 531 1182 546 1161 q 517 1221 517 1203 q 531 1260 517 1239 q 565 1297 546 1282 q 601 1313 585 1313 q 640 1297 619 1313 q 674 1260 660 1282 q 689 1221 689 1239 q 674 1182 689 1203 q 640 1146 660 1161 q 601 1131 619 1131 m 339 1131 q 303 1146 324 1131 q 269 1182 283 1161 q 254 1221 254 1203 q 269 1260 254 1239 q 303 1297 283 1282 q 339 1313 322 1313 q 377 1297 357 1313 q 412 1260 397 1282 q 426 1221 426 1239 q 412 1182 426 1203 q 377 1146 397 1161 q 339 1131 357 1131 z "},"Ỳ":{"ha":869,"x_min":7,"x_max":835,"o":"m 303 0 l 285 22 l 303 47 q 352 144 336 93 q 368 279 368 194 l 368 410 l 146 800 q 81 901 111 863 q 7 975 51 940 l 25 997 l 338 997 l 354 950 l 322 942 q 275 920 290 933 q 260 881 260 907 q 276 840 260 867 q 303 793 292 813 l 453 531 l 610 811 q 626 868 626 843 q 608 917 626 899 q 568 942 590 936 l 536 950 l 553 997 l 817 997 l 835 975 l 814 950 q 761 878 788 918 q 715 803 735 839 l 500 421 l 500 185 q 520 95 500 121 q 592 56 540 69 l 624 47 l 607 0 l 303 0 m 569 1097 l 413 1175 q 352 1220 369 1196 q 335 1275 335 1244 q 351 1328 335 1306 q 393 1363 367 1350 l 610 1146 l 569 1097 z "},"Z":{"ha":819,"x_min":28,"x_max":792,"o":"m 736 -35 l 725 -19 q 667 0 710 0 l 28 0 l 579 918 l 286 918 q 209 908 238 918 q 165 871 181 897 q 135 794 149 844 l 126 763 l 79 779 l 79 1026 l 101 1044 l 126 1026 q 285 997 165 997 l 792 997 l 243 79 l 557 79 q 635 90 607 79 q 679 127 663 100 q 708 203 696 154 l 717 235 l 764 218 l 764 -19 l 736 -35 z "},"Ź":{"ha":819,"x_min":28,"x_max":792,"o":"m 736 -35 l 725 -19 q 667 0 710 0 l 28 0 l 579 918 l 286 918 q 209 908 238 918 q 165 871 181 897 q 135 794 149 844 l 126 763 l 79 779 l 79 1026 l 101 1044 l 126 1026 q 285 997 165 997 l 792 997 l 243 79 l 557 79 q 635 90 607 79 q 679 127 663 100 q 708 203 696 154 l 717 235 l 764 218 l 764 -19 l 736 -35 m 351 1097 l 311 1146 l 528 1363 q 570 1328 554 1350 q 586 1275 586 1306 q 569 1220 586 1244 q 508 1175 551 1196 l 351 1097 z "},"Ž":{"ha":819,"x_min":28,"x_max":792,"o":"m 736 -35 l 725 -19 q 667 0 710 0 l 28 0 l 579 918 l 286 918 q 209 908 238 918 q 165 871 181 897 q 135 794 149 844 l 126 763 l 79 779 l 79 1026 l 101 1044 l 126 1026 q 285 997 165 997 l 792 997 l 243 79 l 557 79 q 635 90 607 79 q 679 127 663 100 q 708 203 696 154 l 717 235 l 764 218 l 764 -19 l 736 -35 m 417 1110 q 370 1153 399 1121 q 308 1231 342 1185 q 244 1329 275 1276 l 290 1368 l 435 1251 l 581 1368 l 625 1329 q 560 1228 594 1275 q 498 1151 526 1182 q 454 1110 469 1119 l 417 1110 z "},"Ż":{"ha":819,"x_min":28,"x_max":792,"o":"m 736 -35 l 725 -19 q 667 0 710 0 l 28 0 l 579 918 l 286 918 q 209 908 238 918 q 165 871 181 897 q 135 794 149 844 l 126 763 l 79 779 l 79 1026 l 101 1044 l 126 1026 q 285 997 165 997 l 792 997 l 243 79 l 557 79 q 635 90 607 79 q 679 127 663 100 q 708 203 696 154 l 717 235 l 764 218 l 764 -19 l 736 -35 m 433 1131 q 398 1146 418 1131 q 363 1182 378 1161 q 349 1221 349 1203 q 363 1260 349 1239 q 397 1297 378 1282 q 433 1313 417 1313 q 472 1297 451 1313 q 506 1260 492 1282 q 521 1221 521 1239 q 506 1182 521 1203 q 472 1146 492 1161 q 433 1131 451 1131 z "},"a":{"ha":839,"x_min":63,"x_max":818,"o":"m 311 -19 q 189 18 246 -19 q 97 131 132 56 q 63 318 63 206 q 106 526 63 439 q 231 661 150 614 q 422 708 313 708 q 558 694 488 708 q 700 674 629 679 l 715 656 l 699 631 q 685 606 690 618 q 681 576 681 594 l 681 122 q 722 79 681 79 q 792 104 757 79 l 818 68 q 741 4 782 28 q 664 -19 700 -19 q 582 15 607 -19 q 557 128 557 50 q 437 12 497 43 q 311 -19 376 -19 m 367 88 q 469 118 419 88 q 557 214 518 149 l 557 589 q 421 632 493 632 q 264 556 319 632 q 208 344 208 481 q 231 194 208 250 q 290 113 253 138 q 367 88 326 88 z "},"á":{"ha":839,"x_min":63,"x_max":818,"o":"m 311 -19 q 189 18 246 -19 q 97 131 132 56 q 63 318 63 206 q 106 526 63 439 q 231 661 150 614 q 422 708 313 708 q 558 694 488 708 q 700 674 629 679 l 715 656 l 699 631 q 685 606 690 618 q 681 576 681 594 l 681 122 q 722 79 681 79 q 792 104 757 79 l 818 68 q 741 4 782 28 q 664 -19 700 -19 q 582 15 607 -19 q 557 128 557 50 q 437 12 497 43 q 311 -19 376 -19 m 367 88 q 469 118 419 88 q 557 214 518 149 l 557 589 q 421 632 493 632 q 264 556 319 632 q 208 344 208 481 q 231 194 208 250 q 290 113 253 138 q 367 88 326 88 m 336 790 l 296 839 l 513 1056 q 555 1021 539 1043 q 571 968 571 999 q 553 913 571 938 q 493 868 536 889 l 336 790 z "},"ă":{"ha":839,"x_min":63,"x_max":818,"o":"m 311 -19 q 189 18 246 -19 q 97 131 132 56 q 63 318 63 206 q 106 526 63 439 q 231 661 150 614 q 422 708 313 708 q 558 694 488 708 q 700 674 629 679 l 715 656 l 699 631 q 685 606 690 618 q 681 576 681 594 l 681 122 q 722 79 681 79 q 792 104 757 79 l 818 68 q 741 4 782 28 q 664 -19 700 -19 q 582 15 607 -19 q 557 128 557 50 q 437 12 497 43 q 311 -19 376 -19 m 367 88 q 469 118 419 88 q 557 214 518 149 l 557 589 q 421 632 493 632 q 264 556 319 632 q 208 344 208 481 q 231 194 208 250 q 290 113 253 138 q 367 88 326 88 m 433 806 q 310 854 360 806 q 260 1000 260 903 l 336 1000 q 365 935 336 958 q 433 911 393 911 q 501 935 474 911 q 529 1000 529 958 l 606 1000 q 556 854 606 903 q 433 806 507 806 z "},"â":{"ha":839,"x_min":63,"x_max":818,"o":"m 311 -19 q 189 18 246 -19 q 97 131 132 56 q 63 318 63 206 q 106 526 63 439 q 231 661 150 614 q 422 708 313 708 q 558 694 488 708 q 700 674 629 679 l 715 656 l 699 631 q 685 606 690 618 q 681 576 681 594 l 681 122 q 722 79 681 79 q 792 104 757 79 l 818 68 q 741 4 782 28 q 664 -19 700 -19 q 582 15 607 -19 q 557 128 557 50 q 437 12 497 43 q 311 -19 376 -19 m 367 88 q 469 118 419 88 q 557 214 518 149 l 557 589 q 421 632 493 632 q 264 556 319 632 q 208 344 208 481 q 231 194 208 250 q 290 113 253 138 q 367 88 326 88 m 289 790 l 243 829 q 307 928 274 882 q 369 1006 340 974 q 415 1049 397 1039 l 453 1049 q 497 1008 468 1040 q 559 930 525 976 q 624 829 593 883 l 579 790 l 433 906 l 289 790 z "},"ä":{"ha":839,"x_min":63,"x_max":818,"o":"m 311 -19 q 189 18 246 -19 q 97 131 132 56 q 63 318 63 206 q 106 526 63 439 q 231 661 150 614 q 422 708 313 708 q 558 694 488 708 q 700 674 629 679 l 715 656 l 699 631 q 685 606 690 618 q 681 576 681 594 l 681 122 q 722 79 681 79 q 792 104 757 79 l 818 68 q 741 4 782 28 q 664 -19 700 -19 q 582 15 607 -19 q 557 128 557 50 q 437 12 497 43 q 311 -19 376 -19 m 367 88 q 469 118 419 88 q 557 214 518 149 l 557 589 q 421 632 493 632 q 264 556 319 632 q 208 344 208 481 q 231 194 208 250 q 290 113 253 138 q 367 88 326 88 m 563 824 q 527 839 547 824 q 492 875 507 854 q 478 914 478 896 q 492 953 478 932 q 526 990 507 975 q 563 1006 546 1006 q 601 990 581 1006 q 635 953 621 975 q 650 914 650 932 q 635 875 650 896 q 601 839 621 854 q 563 824 581 824 m 300 824 q 265 839 285 824 q 230 875 244 854 q 215 914 215 896 q 230 953 215 932 q 264 990 244 975 q 300 1006 283 1006 q 338 990 318 1006 q 373 953 358 975 q 388 914 388 932 q 373 875 388 896 q 338 839 358 854 q 300 824 318 824 z "},"à":{"ha":839,"x_min":63,"x_max":818,"o":"m 311 -19 q 189 18 246 -19 q 97 131 132 56 q 63 318 63 206 q 106 526 63 439 q 231 661 150 614 q 422 708 313 708 q 558 694 488 708 q 700 674 629 679 l 715 656 l 699 631 q 685 606 690 618 q 681 576 681 594 l 681 122 q 722 79 681 79 q 792 104 757 79 l 818 68 q 741 4 782 28 q 664 -19 700 -19 q 582 15 607 -19 q 557 128 557 50 q 437 12 497 43 q 311 -19 376 -19 m 367 88 q 469 118 419 88 q 557 214 518 149 l 557 589 q 421 632 493 632 q 264 556 319 632 q 208 344 208 481 q 231 194 208 250 q 290 113 253 138 q 367 88 326 88 m 531 790 l 374 868 q 313 913 331 889 q 296 968 296 938 q 312 1021 296 999 q 354 1056 328 1043 l 571 839 l 531 790 z "},"ā":{"ha":839,"x_min":63,"x_max":818,"o":"m 311 -19 q 189 18 246 -19 q 97 131 132 56 q 63 318 63 206 q 106 526 63 439 q 231 661 150 614 q 422 708 313 708 q 558 694 488 708 q 700 674 629 679 l 715 656 l 699 631 q 685 606 690 618 q 681 576 681 594 l 681 122 q 722 79 681 79 q 792 104 757 79 l 818 68 q 741 4 782 28 q 664 -19 700 -19 q 582 15 607 -19 q 557 128 557 50 q 437 12 497 43 q 311 -19 376 -19 m 367 88 q 469 118 419 88 q 557 214 518 149 l 557 589 q 421 632 493 632 q 264 556 319 632 q 208 344 208 481 q 231 194 208 250 q 290 113 253 138 q 367 88 326 88 m 228 857 q 236 917 228 885 q 264 968 244 950 l 638 968 q 630 908 638 940 q 601 857 622 875 l 228 857 z "},"ą":{"ha":839,"x_min":63,"x_max":885,"o":"m 311 -19 q 189 18 246 -19 q 97 131 132 56 q 63 318 63 206 q 106 526 63 439 q 231 661 150 614 q 422 708 313 708 q 558 694 488 708 q 700 674 629 679 l 715 656 l 699 631 q 685 606 690 618 q 681 576 681 594 l 681 122 q 722 79 681 79 q 792 104 757 79 l 818 68 q 741 4 782 28 q 664 -19 700 -19 q 582 15 607 -19 q 557 128 557 50 q 437 12 497 43 q 311 -19 376 -19 m 367 88 q 469 118 419 88 q 557 214 518 149 l 557 589 q 421 632 493 632 q 264 556 319 632 q 208 344 208 481 q 231 194 208 250 q 290 113 253 138 q 367 88 326 88 m 608 -412 q 491 -372 540 -412 q 442 -254 442 -331 q 513 -96 442 -169 q 719 68 583 -22 l 756 14 q 599 -120 646 -58 q 553 -231 553 -182 q 577 -299 553 -276 q 638 -321 601 -321 q 737 -289 682 -321 q 838 -194 792 -257 l 885 -237 q 750 -369 822 -326 q 608 -412 678 -412 z "},"å":{"ha":839,"x_min":63,"x_max":818,"o":"m 311 -19 q 189 18 246 -19 q 97 131 132 56 q 63 318 63 206 q 106 526 63 439 q 231 661 150 614 q 422 708 313 708 q 558 694 488 708 q 700 674 629 679 l 715 656 l 699 631 q 685 606 690 618 q 681 576 681 594 l 681 122 q 722 79 681 79 q 792 104 757 79 l 818 68 q 741 4 782 28 q 664 -19 700 -19 q 582 15 607 -19 q 557 128 557 50 q 437 12 497 43 q 311 -19 376 -19 m 367 88 q 469 118 419 88 q 557 214 518 149 l 557 589 q 421 632 493 632 q 264 556 319 632 q 208 344 208 481 q 231 194 208 250 q 290 113 253 138 q 367 88 326 88 m 431 767 q 315 809 354 767 q 275 914 275 851 q 315 1019 275 976 q 431 1063 354 1063 q 551 1019 511 1063 q 590 914 590 976 q 551 809 590 851 q 431 767 511 767 m 431 833 q 476 857 461 833 q 492 914 492 881 q 476 971 492 947 q 431 994 461 994 q 388 971 403 994 q 372 914 372 947 q 388 857 372 881 q 431 833 403 833 z "},"ã":{"ha":839,"x_min":63,"x_max":818,"o":"m 311 -19 q 189 18 246 -19 q 97 131 132 56 q 63 318 63 206 q 106 526 63 439 q 231 661 150 614 q 422 708 313 708 q 558 694 488 708 q 700 674 629 679 l 715 656 l 699 631 q 685 606 690 618 q 681 576 681 594 l 681 122 q 722 79 681 79 q 792 104 757 79 l 818 68 q 741 4 782 28 q 664 -19 700 -19 q 582 15 607 -19 q 557 128 557 50 q 437 12 497 43 q 311 -19 376 -19 m 367 88 q 469 118 419 88 q 557 214 518 149 l 557 589 q 421 632 493 632 q 264 556 319 632 q 208 344 208 481 q 231 194 208 250 q 290 113 253 138 q 367 88 326 88 m 256 821 l 207 864 q 299 962 251 925 q 386 999 346 999 q 438 987 417 999 q 476 963 458 975 q 517 950 494 950 q 558 963 535 950 q 611 1004 581 975 l 658 961 q 568 863 615 900 q 481 826 521 826 q 428 839 450 826 q 389 863 407 851 q 349 875 371 875 q 308 862 332 875 q 256 821 283 849 z "},"æ":{"ha":1201,"x_min":63,"x_max":1129,"o":"m 299 -19 q 167 10 219 -19 q 88 86 114 39 q 63 185 63 133 q 92 298 63 243 q 182 389 122 353 q 328 425 242 425 q 372 422 344 425 q 427 410 399 418 q 475 390 456 403 q 494 360 494 378 q 488 339 494 349 q 474 329 482 329 q 440 338 461 329 q 371 347 419 347 q 273 324 313 347 q 214 263 233 300 q 194 183 194 225 q 228 95 194 135 q 326 56 261 56 q 475 133 421 56 q 529 353 529 210 q 477 546 529 475 q 324 617 425 617 q 206 601 247 617 q 147 569 165 585 q 118 554 128 554 q 94 567 107 554 q 82 594 82 581 q 116 635 82 608 q 211 685 150 663 q 353 708 272 708 q 500 675 435 708 q 607 582 565 642 q 726 675 654 642 q 889 708 797 708 q 1022 679 969 708 q 1099 603 1074 650 q 1125 504 1125 557 q 1095 393 1125 447 q 1006 304 1065 339 q 860 269 947 269 q 820 273 846 269 q 769 284 794 276 q 725 304 743 292 q 707 335 707 317 q 713 356 707 346 q 728 365 719 365 q 756 356 739 365 q 817 347 774 347 q 915 370 876 347 q 974 430 954 393 q 993 506 993 467 q 960 598 993 557 q 861 639 926 639 q 722 561 772 639 q 672 336 672 483 q 724 143 672 214 q 878 72 776 72 q 988 92 936 72 q 1081 151 1039 111 q 1093 157 1086 157 q 1117 144 1104 157 q 1129 117 1129 131 q 1124 104 1129 110 q 849 -19 1017 -19 q 680 25 751 -19 q 569 147 608 69 q 465 25 535 69 q 299 -19 396 -19 z "},"b":{"ha":819,"x_min":35,"x_max":757,"o":"m 396 -19 q 246 4 315 -19 q 136 68 176 28 l 136 936 q 108 967 136 967 l 47 967 l 35 1003 q 127 1063 75 1039 q 218 1086 179 1086 q 250 1074 238 1086 q 263 1042 263 1061 l 263 103 q 329 69 294 81 q 408 58 364 58 q 556 136 501 58 q 610 344 610 214 q 585 494 610 429 q 518 594 561 558 q 418 631 475 631 q 358 622 375 631 q 329 613 340 613 q 315 622 321 613 q 308 643 308 632 q 321 668 308 660 q 391 699 356 690 q 461 708 426 708 q 615 665 549 708 q 719 547 682 622 q 757 372 757 471 q 710 172 757 260 q 581 32 663 83 q 396 -19 500 -19 z "},"c":{"ha":707,"x_min":63,"x_max":651,"o":"m 397 -19 q 224 28 300 -19 q 106 157 149 75 q 63 343 63 239 q 104 536 63 454 q 222 663 146 618 q 399 708 297 708 q 574 656 506 708 q 643 522 643 604 q 605 424 643 463 q 507 386 567 386 q 481 401 481 386 q 489 419 481 408 q 506 453 497 431 q 514 515 514 476 q 478 603 514 571 q 383 636 443 636 q 256 558 304 636 q 207 354 207 481 q 265 149 207 225 q 421 74 322 74 q 604 143 521 74 q 617 147 608 147 q 640 135 628 147 q 651 108 651 122 q 647 96 651 100 q 534 10 599 40 q 397 -19 469 -19 z "},"ć":{"ha":707,"x_min":63,"x_max":651,"o":"m 397 -19 q 224 28 300 -19 q 106 157 149 75 q 63 343 63 239 q 104 536 63 454 q 222 663 146 618 q 399 708 297 708 q 574 656 506 708 q 643 522 643 604 q 605 424 643 463 q 507 386 567 386 q 481 401 481 386 q 489 419 481 408 q 506 453 497 431 q 514 515 514 476 q 478 603 514 571 q 383 636 443 636 q 256 558 304 636 q 207 354 207 481 q 265 149 207 225 q 421 74 322 74 q 604 143 521 74 q 617 147 608 147 q 640 135 628 147 q 651 108 651 122 q 647 96 651 100 q 534 10 599 40 q 397 -19 469 -19 m 299 790 l 258 839 l 475 1056 q 517 1021 501 1043 q 533 968 533 999 q 516 913 533 938 q 456 868 499 889 l 299 790 z "},"č":{"ha":707,"x_min":63,"x_max":651,"o":"m 397 -19 q 224 28 300 -19 q 106 157 149 75 q 63 343 63 239 q 104 536 63 454 q 222 663 146 618 q 399 708 297 708 q 574 656 506 708 q 643 522 643 604 q 605 424 643 463 q 507 386 567 386 q 481 401 481 386 q 489 419 481 408 q 506 453 497 431 q 514 515 514 476 q 478 603 514 571 q 383 636 443 636 q 256 558 304 636 q 207 354 207 481 q 265 149 207 225 q 421 74 322 74 q 604 143 521 74 q 617 147 608 147 q 640 135 628 147 q 651 108 651 122 q 647 96 651 100 q 534 10 599 40 q 397 -19 469 -19 m 378 803 q 331 846 360 814 q 269 924 303 878 q 206 1022 236 969 l 251 1061 l 396 944 l 542 1061 l 586 1022 q 522 922 556 968 q 459 844 488 875 q 415 803 431 813 l 378 803 z "},"ç":{"ha":707,"x_min":63,"x_max":651,"o":"m 397 -19 q 224 28 300 -19 q 106 157 149 75 q 63 343 63 239 q 104 536 63 454 q 222 663 146 618 q 399 708 297 708 q 574 656 506 708 q 643 522 643 604 q 605 424 643 463 q 507 386 567 386 q 481 401 481 386 q 489 419 481 408 q 506 453 497 431 q 514 515 514 476 q 478 603 514 571 q 383 636 443 636 q 256 558 304 636 q 207 354 207 481 q 265 149 207 225 q 421 74 322 74 q 604 143 521 74 q 617 147 608 147 q 640 135 628 147 q 651 108 651 122 q 647 96 651 100 q 534 10 599 40 q 397 -19 469 -19 m 322 -410 q 218 -383 265 -410 q 171 -303 171 -356 q 197 -244 171 -265 q 260 -222 224 -222 q 283 -236 283 -222 q 274 -256 283 -246 q 264 -297 264 -265 q 281 -337 264 -322 q 321 -351 299 -351 q 386 -318 364 -351 q 408 -246 408 -285 q 385 -175 408 -207 q 315 -143 363 -143 q 279 -149 299 -143 q 239 -167 260 -154 l 211 -142 l 375 71 l 408 40 l 301 -97 q 354 -92 325 -92 q 463 -130 415 -92 q 511 -249 511 -168 q 487 -328 511 -292 q 419 -387 463 -365 q 322 -410 376 -410 z "},"ċ":{"ha":707,"x_min":63,"x_max":651,"o":"m 397 -19 q 224 28 300 -19 q 106 157 149 75 q 63 343 63 239 q 104 536 63 454 q 222 663 146 618 q 399 708 297 708 q 574 656 506 708 q 643 522 643 604 q 605 424 643 463 q 507 386 567 386 q 481 401 481 386 q 489 419 481 408 q 506 453 497 431 q 514 515 514 476 q 478 603 514 571 q 383 636 443 636 q 256 558 304 636 q 207 354 207 481 q 265 149 207 225 q 421 74 322 74 q 604 143 521 74 q 617 147 608 147 q 640 135 628 147 q 651 108 651 122 q 647 96 651 100 q 534 10 599 40 q 397 -19 469 -19 m 394 824 q 359 839 379 824 q 324 875 339 854 q 310 914 310 896 q 324 953 310 932 q 358 990 339 975 q 394 1006 378 1006 q 433 990 413 1006 q 467 953 453 975 q 482 914 482 932 q 467 875 482 896 q 433 839 453 854 q 394 824 413 824 z "},"d":{"ha":839,"x_min":63,"x_max":818,"o":"m 311 -19 q 189 18 246 -19 q 97 131 132 56 q 63 318 63 206 q 106 526 63 439 q 231 661 150 614 q 422 708 313 708 q 554 690 494 708 l 554 936 q 526 967 554 967 l 465 967 l 453 1003 q 545 1063 493 1039 q 636 1086 597 1086 q 668 1074 656 1086 q 681 1042 681 1061 l 681 122 q 722 79 681 79 q 792 104 757 79 l 818 68 q 741 4 782 28 q 664 -19 700 -19 q 582 15 607 -19 q 557 128 557 50 q 437 12 497 43 q 311 -19 376 -19 m 367 88 q 469 118 419 88 q 557 214 518 149 l 557 589 q 421 632 493 632 q 264 556 319 632 q 208 344 208 481 q 231 194 208 250 q 290 113 253 138 q 367 88 326 88 z "},"ð":{"ha":811,"x_min":60,"x_max":776,"o":"m 406 -19 q 222 24 300 -19 q 102 145 144 67 q 60 331 60 224 q 102 517 60 439 q 222 638 144 596 q 406 681 300 681 q 510 661 460 681 q 599 597 560 642 q 535 824 575 725 l 397 756 q 403 833 397 808 q 426 868 408 858 l 497 903 q 419 999 463 964 q 328 1035 376 1035 q 249 1001 276 1035 q 221 922 221 968 q 236 851 221 878 q 266 812 251 825 q 281 790 281 799 q 258 776 281 776 q 142 822 182 776 q 103 924 103 868 q 127 1006 103 967 q 202 1072 151 1046 q 329 1097 253 1097 q 476 1056 413 1097 q 588 947 540 1014 l 776 1043 q 771 964 776 989 q 747 931 765 939 l 632 872 q 703 687 676 786 q 740 494 729 588 q 751 331 751 400 q 709 145 751 224 q 589 24 667 67 q 406 -19 511 -19 m 422 56 q 568 126 514 56 q 622 318 622 197 q 594 469 622 404 q 517 572 567 535 q 401 608 467 608 q 258 533 311 608 q 204 331 204 458 q 233 186 204 249 q 310 90 261 124 q 422 56 360 56 z "},"ď":{"ha":839,"x_min":63,"x_max":953,"o":"m 311 -19 q 189 18 246 -19 q 97 131 132 56 q 63 318 63 206 q 106 526 63 439 q 231 661 150 614 q 422 708 313 708 q 554 690 494 708 l 554 936 q 526 967 554 967 l 465 967 l 453 1003 q 545 1063 493 1039 q 636 1086 597 1086 q 668 1074 656 1086 q 681 1042 681 1061 l 681 122 q 722 79 681 79 q 792 104 757 79 l 818 68 q 741 4 782 28 q 664 -19 700 -19 q 582 15 607 -19 q 557 128 557 50 q 437 12 497 43 q 311 -19 376 -19 m 367 88 q 469 118 419 88 q 557 214 518 149 l 557 589 q 421 632 493 632 q 264 556 319 632 q 208 344 208 481 q 231 194 208 250 q 290 113 253 138 q 367 88 326 88 m 882 794 q 854 821 861 794 q 833 928 843 871 q 817 1036 822 985 q 811 1117 811 1088 q 882 1158 836 1158 q 953 1117 928 1158 q 948 1044 953 1092 q 933 938 943 997 q 910 821 924 879 q 882 794 903 794 z "},"đ":{"ha":839,"x_min":63,"x_max":818,"o":"m 311 -19 q 189 18 246 -19 q 97 131 132 56 q 63 318 63 206 q 106 526 63 439 q 231 661 150 614 q 422 708 313 708 q 554 690 494 708 l 554 808 l 349 808 q 354 851 349 828 q 376 886 360 874 l 554 886 l 554 936 q 526 967 554 967 l 465 967 l 453 1003 q 545 1063 493 1039 q 636 1086 597 1086 q 668 1074 656 1086 q 681 1042 681 1061 l 681 886 l 771 886 q 765 844 771 867 q 743 808 760 822 l 681 808 l 681 122 q 722 79 681 79 q 792 104 757 79 l 818 68 q 741 4 782 28 q 664 -19 700 -19 q 582 15 607 -19 q 557 128 557 50 q 437 12 497 43 q 311 -19 376 -19 m 367 88 q 469 118 419 88 q 557 214 518 149 l 557 589 q 421 632 493 632 q 264 556 319 632 q 208 344 208 481 q 231 194 208 250 q 290 113 253 138 q 367 88 326 88 z "},"e":{"ha":735,"x_min":63,"x_max":663,"o":"m 382 -19 q 213 25 285 -19 q 102 149 142 69 q 63 336 63 229 q 107 532 63 449 q 233 662 151 615 q 422 708 314 708 q 555 679 503 708 q 633 603 607 650 q 658 504 658 557 q 628 393 658 447 q 540 304 599 339 q 393 269 481 269 q 353 273 379 269 q 302 284 328 276 q 258 304 276 292 q 240 335 240 317 q 247 356 240 346 q 261 365 253 365 q 290 356 272 365 q 350 347 307 347 q 449 370 410 347 q 507 430 488 393 q 526 506 526 467 q 493 598 526 557 q 394 639 460 639 q 256 561 306 639 q 206 336 206 483 q 258 143 206 214 q 411 72 310 72 q 521 92 469 72 q 614 151 572 111 q 626 157 619 157 q 650 144 638 157 q 663 117 663 131 q 657 104 663 110 q 382 -19 550 -19 z "},"é":{"ha":735,"x_min":63,"x_max":663,"o":"m 382 -19 q 213 25 285 -19 q 102 149 142 69 q 63 336 63 229 q 107 532 63 449 q 233 662 151 615 q 422 708 314 708 q 555 679 503 708 q 633 603 607 650 q 658 504 658 557 q 628 393 658 447 q 540 304 599 339 q 393 269 481 269 q 353 273 379 269 q 302 284 328 276 q 258 304 276 292 q 240 335 240 317 q 247 356 240 346 q 261 365 253 365 q 290 356 272 365 q 350 347 307 347 q 449 370 410 347 q 507 430 488 393 q 526 506 526 467 q 493 598 526 557 q 394 639 460 639 q 256 561 306 639 q 206 336 206 483 q 258 143 206 214 q 411 72 310 72 q 521 92 469 72 q 614 151 572 111 q 626 157 619 157 q 650 144 638 157 q 663 117 663 131 q 657 104 663 110 q 382 -19 550 -19 m 271 790 l 231 839 l 447 1056 q 490 1021 474 1043 q 506 968 506 999 q 488 913 506 938 q 428 868 471 889 l 271 790 z "},"ě":{"ha":735,"x_min":63,"x_max":663,"o":"m 382 -19 q 213 25 285 -19 q 102 149 142 69 q 63 336 63 229 q 107 532 63 449 q 233 662 151 615 q 422 708 314 708 q 555 679 503 708 q 633 603 607 650 q 658 504 658 557 q 628 393 658 447 q 540 304 599 339 q 393 269 481 269 q 353 273 379 269 q 302 284 328 276 q 258 304 276 292 q 240 335 240 317 q 247 356 240 346 q 261 365 253 365 q 290 356 272 365 q 350 347 307 347 q 449 370 410 347 q 507 430 488 393 q 526 506 526 467 q 493 598 526 557 q 394 639 460 639 q 256 561 306 639 q 206 336 206 483 q 258 143 206 214 q 411 72 310 72 q 521 92 469 72 q 614 151 572 111 q 626 157 619 157 q 650 144 638 157 q 663 117 663 131 q 657 104 663 110 q 382 -19 550 -19 m 350 803 q 303 846 332 814 q 242 924 275 878 q 178 1022 208 969 l 224 1061 l 368 944 l 514 1061 l 558 1022 q 494 922 528 968 q 431 844 460 875 q 388 803 403 813 l 350 803 z "},"ê":{"ha":735,"x_min":63,"x_max":663,"o":"m 382 -19 q 213 25 285 -19 q 102 149 142 69 q 63 336 63 229 q 107 532 63 449 q 233 662 151 615 q 422 708 314 708 q 555 679 503 708 q 633 603 607 650 q 658 504 658 557 q 628 393 658 447 q 540 304 599 339 q 393 269 481 269 q 353 273 379 269 q 302 284 328 276 q 258 304 276 292 q 240 335 240 317 q 247 356 240 346 q 261 365 253 365 q 290 356 272 365 q 350 347 307 347 q 449 370 410 347 q 507 430 488 393 q 526 506 526 467 q 493 598 526 557 q 394 639 460 639 q 256 561 306 639 q 206 336 206 483 q 258 143 206 214 q 411 72 310 72 q 521 92 469 72 q 614 151 572 111 q 626 157 619 157 q 650 144 638 157 q 663 117 663 131 q 657 104 663 110 q 382 -19 550 -19 m 224 790 l 178 829 q 242 928 208 882 q 303 1006 275 974 q 350 1049 332 1039 l 388 1049 q 431 1008 403 1040 q 494 930 460 976 q 558 829 528 883 l 514 790 l 368 906 l 224 790 z "},"ë":{"ha":735,"x_min":63,"x_max":663,"o":"m 382 -19 q 213 25 285 -19 q 102 149 142 69 q 63 336 63 229 q 107 532 63 449 q 233 662 151 615 q 422 708 314 708 q 555 679 503 708 q 633 603 607 650 q 658 504 658 557 q 628 393 658 447 q 540 304 599 339 q 393 269 481 269 q 353 273 379 269 q 302 284 328 276 q 258 304 276 292 q 240 335 240 317 q 247 356 240 346 q 261 365 253 365 q 290 356 272 365 q 350 347 307 347 q 449 370 410 347 q 507 430 488 393 q 526 506 526 467 q 493 598 526 557 q 394 639 460 639 q 256 561 306 639 q 206 336 206 483 q 258 143 206 214 q 411 72 310 72 q 521 92 469 72 q 614 151 572 111 q 626 157 619 157 q 650 144 638 157 q 663 117 663 131 q 657 104 663 110 q 382 -19 550 -19 m 497 824 q 462 839 482 824 q 427 875 442 854 q 413 914 413 896 q 427 953 413 932 q 461 990 442 975 q 497 1006 481 1006 q 535 990 515 1006 q 570 953 556 975 q 585 914 585 932 q 570 875 585 896 q 535 839 556 854 q 497 824 515 824 m 235 824 q 199 839 219 824 q 165 875 179 854 q 150 914 150 896 q 165 953 150 932 q 199 990 179 975 q 235 1006 218 1006 q 273 990 253 1006 q 308 953 293 975 q 322 914 322 932 q 308 875 322 896 q 273 839 293 854 q 235 824 253 824 z "},"ė":{"ha":735,"x_min":63,"x_max":663,"o":"m 382 -19 q 213 25 285 -19 q 102 149 142 69 q 63 336 63 229 q 107 532 63 449 q 233 662 151 615 q 422 708 314 708 q 555 679 503 708 q 633 603 607 650 q 658 504 658 557 q 628 393 658 447 q 540 304 599 339 q 393 269 481 269 q 353 273 379 269 q 302 284 328 276 q 258 304 276 292 q 240 335 240 317 q 247 356 240 346 q 261 365 253 365 q 290 356 272 365 q 350 347 307 347 q 449 370 410 347 q 507 430 488 393 q 526 506 526 467 q 493 598 526 557 q 394 639 460 639 q 256 561 306 639 q 206 336 206 483 q 258 143 206 214 q 411 72 310 72 q 521 92 469 72 q 614 151 572 111 q 626 157 619 157 q 650 144 638 157 q 663 117 663 131 q 657 104 663 110 q 382 -19 550 -19 m 367 824 q 331 839 351 824 q 297 875 311 854 q 282 914 282 896 q 297 953 282 932 q 331 990 311 975 q 367 1006 350 1006 q 405 990 385 1006 q 440 953 425 975 q 454 914 454 932 q 440 875 454 896 q 405 839 425 854 q 367 824 385 824 z "},"è":{"ha":735,"x_min":63,"x_max":663,"o":"m 382 -19 q 213 25 285 -19 q 102 149 142 69 q 63 336 63 229 q 107 532 63 449 q 233 662 151 615 q 422 708 314 708 q 555 679 503 708 q 633 603 607 650 q 658 504 658 557 q 628 393 658 447 q 540 304 599 339 q 393 269 481 269 q 353 273 379 269 q 302 284 328 276 q 258 304 276 292 q 240 335 240 317 q 247 356 240 346 q 261 365 253 365 q 290 356 272 365 q 350 347 307 347 q 449 370 410 347 q 507 430 488 393 q 526 506 526 467 q 493 598 526 557 q 394 639 460 639 q 256 561 306 639 q 206 336 206 483 q 258 143 206 214 q 411 72 310 72 q 521 92 469 72 q 614 151 572 111 q 626 157 619 157 q 650 144 638 157 q 663 117 663 131 q 657 104 663 110 q 382 -19 550 -19 m 465 790 l 308 868 q 248 913 265 889 q 231 968 231 938 q 247 1021 231 999 q 289 1056 263 1043 l 506 839 l 465 790 z "},"ē":{"ha":735,"x_min":63,"x_max":663,"o":"m 382 -19 q 213 25 285 -19 q 102 149 142 69 q 63 336 63 229 q 107 532 63 449 q 233 662 151 615 q 422 708 314 708 q 555 679 503 708 q 633 603 607 650 q 658 504 658 557 q 628 393 658 447 q 540 304 599 339 q 393 269 481 269 q 353 273 379 269 q 302 284 328 276 q 258 304 276 292 q 240 335 240 317 q 247 356 240 346 q 261 365 253 365 q 290 356 272 365 q 350 347 307 347 q 449 370 410 347 q 507 430 488 393 q 526 506 526 467 q 493 598 526 557 q 394 639 460 639 q 256 561 306 639 q 206 336 206 483 q 258 143 206 214 q 411 72 310 72 q 521 92 469 72 q 614 151 572 111 q 626 157 619 157 q 650 144 638 157 q 663 117 663 131 q 657 104 663 110 q 382 -19 550 -19 m 163 857 q 171 917 163 885 q 199 968 179 950 l 572 968 q 565 908 572 940 q 536 857 557 875 l 163 857 z "},"ę":{"ha":735,"x_min":63,"x_max":665,"o":"m 382 -19 q 213 25 285 -19 q 102 149 142 69 q 63 336 63 229 q 107 532 63 449 q 233 662 151 615 q 422 708 314 708 q 555 679 503 708 q 633 603 607 650 q 658 504 658 557 q 628 393 658 447 q 540 304 599 339 q 393 269 481 269 q 353 273 379 269 q 302 284 328 276 q 258 304 276 292 q 240 335 240 317 q 247 356 240 346 q 261 365 253 365 q 290 356 272 365 q 350 347 307 347 q 449 370 410 347 q 507 430 488 393 q 526 506 526 467 q 493 598 526 557 q 394 639 460 639 q 256 561 306 639 q 206 336 206 483 q 258 143 206 214 q 411 72 310 72 q 521 92 469 72 q 614 151 572 111 q 626 157 619 157 q 650 144 638 157 q 663 117 663 131 q 657 104 663 110 q 382 -19 550 -19 m 389 -412 q 272 -372 321 -412 q 222 -254 222 -331 q 293 -96 222 -169 q 500 68 364 -22 l 536 14 q 380 -120 426 -58 q 333 -231 333 -182 q 358 -299 333 -276 q 418 -321 382 -321 q 517 -289 463 -321 q 618 -194 572 -257 l 665 -237 q 531 -369 603 -326 q 389 -412 458 -412 z "},"f":{"ha":464,"x_min":-146,"x_max":617,"o":"m 26 -331 q -96 -293 -46 -331 q -146 -189 -146 -256 q -108 -100 -146 -136 q -10 -64 -69 -64 q 17 -79 17 -64 q 7 -96 17 -85 q -12 -126 -3 -107 q -22 -179 -22 -146 q 0 -247 -22 -222 q 54 -271 22 -271 q 122 -236 93 -271 q 151 -125 151 -201 l 151 603 l 29 603 q 35 651 29 640 q 63 668 40 663 l 151 690 q 215 978 151 871 q 410 1086 279 1086 q 558 1043 500 1086 q 617 932 617 1000 q 578 834 617 872 q 481 796 540 796 q 454 811 454 796 q 463 829 454 818 q 479 863 471 840 q 488 925 488 886 q 463 997 488 969 q 394 1024 438 1024 q 303 960 331 1024 q 276 796 276 897 l 276 690 l 471 690 q 439 603 471 628 l 276 603 l 276 -18 q 215 -244 276 -157 q 26 -331 154 -331 z "},"g":{"ha":836,"x_min":83,"x_max":736,"o":"m 393 -386 q 260 -357 313 -386 q 181 -282 207 -328 q 156 -187 156 -236 q 176 -106 156 -144 q 235 -44 196 -68 q 332 -19 275 -19 q 353 -24 347 -19 q 358 -35 358 -29 q 342 -59 358 -43 q 308 -104 325 -75 q 290 -185 290 -133 q 322 -276 290 -237 q 411 -314 354 -314 q 508 -280 471 -314 q 561 -187 544 -246 q 578 -53 578 -128 l 578 168 q 458 52 518 83 q 332 21 397 21 q 210 53 267 21 q 118 153 153 86 q 83 318 83 219 q 127 526 83 439 q 252 661 171 614 q 443 708 333 708 q 579 694 508 708 q 721 674 650 679 l 736 656 l 719 631 q 706 606 711 618 q 701 576 701 594 l 701 -31 q 617 -294 701 -203 q 393 -386 533 -386 m 388 128 q 490 158 440 128 q 578 254 539 189 l 578 589 q 442 632 514 632 q 285 556 340 632 q 229 344 229 481 q 251 217 229 265 q 310 149 274 169 q 388 128 346 128 z "},"ğ":{"ha":836,"x_min":83,"x_max":736,"o":"m 393 -386 q 260 -357 313 -386 q 181 -282 207 -328 q 156 -187 156 -236 q 176 -106 156 -144 q 235 -44 196 -68 q 332 -19 275 -19 q 353 -24 347 -19 q 358 -35 358 -29 q 342 -59 358 -43 q 308 -104 325 -75 q 290 -185 290 -133 q 322 -276 290 -237 q 411 -314 354 -314 q 508 -280 471 -314 q 561 -187 544 -246 q 578 -53 578 -128 l 578 168 q 458 52 518 83 q 332 21 397 21 q 210 53 267 21 q 118 153 153 86 q 83 318 83 219 q 127 526 83 439 q 252 661 171 614 q 443 708 333 708 q 579 694 508 708 q 721 674 650 679 l 736 656 l 719 631 q 706 606 711 618 q 701 576 701 594 l 701 -31 q 617 -294 701 -203 q 393 -386 533 -386 m 388 128 q 490 158 440 128 q 578 254 539 189 l 578 589 q 442 632 514 632 q 285 556 340 632 q 229 344 229 481 q 251 217 229 265 q 310 149 274 169 q 388 128 346 128 m 432 806 q 308 854 358 806 q 258 1000 258 903 l 335 1000 q 363 935 335 958 q 432 911 392 911 q 500 935 472 911 q 528 1000 528 958 l 604 1000 q 555 854 604 903 q 432 806 506 806 z "},"ģ":{"ha":836,"x_min":83,"x_max":736,"o":"m 393 -386 q 260 -357 313 -386 q 181 -282 207 -328 q 156 -187 156 -236 q 176 -106 156 -144 q 235 -44 196 -68 q 332 -19 275 -19 q 353 -24 347 -19 q 358 -35 358 -29 q 342 -59 358 -43 q 308 -104 325 -75 q 290 -185 290 -133 q 322 -276 290 -237 q 411 -314 354 -314 q 508 -280 471 -314 q 561 -187 544 -246 q 578 -53 578 -128 l 578 168 q 458 52 518 83 q 332 21 397 21 q 210 53 267 21 q 118 153 153 86 q 83 318 83 219 q 127 526 83 439 q 252 661 171 614 q 443 708 333 708 q 579 694 508 708 q 721 674 650 679 l 736 656 l 719 631 q 706 606 711 618 q 701 576 701 594 l 701 -31 q 617 -294 701 -203 q 393 -386 533 -386 m 388 128 q 490 158 440 128 q 578 254 539 189 l 578 589 q 442 632 514 632 q 285 556 340 632 q 229 344 229 481 q 251 217 229 265 q 310 149 274 169 q 388 128 346 128 m 518 1171 l 558 1144 l 494 1019 q 478 963 478 986 q 510 911 478 932 l 535 894 l 542 861 l 518 851 q 480 835 500 844 q 440 825 460 825 q 376 851 403 825 q 350 928 350 876 q 383 1016 350 971 q 464 1113 415 1061 l 518 1171 z "},"ġ":{"ha":836,"x_min":83,"x_max":736,"o":"m 393 -386 q 260 -357 313 -386 q 181 -282 207 -328 q 156 -187 156 -236 q 176 -106 156 -144 q 235 -44 196 -68 q 332 -19 275 -19 q 353 -24 347 -19 q 358 -35 358 -29 q 342 -59 358 -43 q 308 -104 325 -75 q 290 -185 290 -133 q 322 -276 290 -237 q 411 -314 354 -314 q 508 -280 471 -314 q 561 -187 544 -246 q 578 -53 578 -128 l 578 168 q 458 52 518 83 q 332 21 397 21 q 210 53 267 21 q 118 153 153 86 q 83 318 83 219 q 127 526 83 439 q 252 661 171 614 q 443 708 333 708 q 579 694 508 708 q 721 674 650 679 l 736 656 l 719 631 q 706 606 711 618 q 701 576 701 594 l 701 -31 q 617 -294 701 -203 q 393 -386 533 -386 m 388 128 q 490 158 440 128 q 578 254 539 189 l 578 589 q 442 632 514 632 q 285 556 340 632 q 229 344 229 481 q 251 217 229 265 q 310 149 274 169 q 388 128 346 128 m 431 824 q 395 839 415 824 q 360 875 375 854 q 346 914 346 896 q 360 953 346 932 q 394 990 375 975 q 431 1006 414 1006 q 469 990 449 1006 q 503 953 489 975 q 518 914 518 932 q 503 875 518 896 q 469 839 489 854 q 431 824 449 824 z "},"h":{"ha":888,"x_min":49,"x_max":860,"o":"m 704 -22 q 622 13 647 -22 q 597 125 597 47 l 597 456 q 571 563 597 526 q 478 600 544 600 q 373 553 418 600 q 302 420 328 506 q 276 222 276 335 q 286 118 276 157 q 321 43 296 79 l 338 21 l 321 0 l 78 0 l 63 43 l 92 50 q 139 81 128 58 q 150 154 150 103 l 150 936 q 122 967 150 967 l 61 967 l 49 1003 q 141 1063 89 1039 q 232 1086 193 1086 q 264 1074 251 1086 q 276 1042 276 1061 l 276 501 q 341 609 300 563 q 433 682 382 656 q 536 708 483 708 q 681 647 640 708 q 722 456 722 586 l 722 119 q 764 72 722 72 q 833 101 799 72 l 860 65 q 782 1 824 25 q 704 -22 740 -22 z "},"ħ":{"ha":888,"x_min":32,"x_max":860,"o":"m 704 -22 q 622 13 647 -22 q 597 125 597 47 l 597 456 q 571 563 597 526 q 478 600 544 600 q 373 553 418 600 q 302 420 328 506 q 276 222 276 335 q 286 118 276 157 q 321 43 296 79 l 338 21 l 321 0 l 78 0 l 63 43 l 92 50 q 139 81 128 58 q 150 154 150 103 l 150 783 l 32 783 q 38 826 32 803 q 60 861 43 849 l 150 861 l 150 936 q 122 967 150 967 l 61 967 l 49 1003 q 141 1063 89 1039 q 232 1086 193 1086 q 264 1074 251 1086 q 276 1042 276 1061 l 276 861 l 454 861 q 449 819 454 842 q 426 783 443 797 l 276 783 l 276 501 q 341 609 300 563 q 433 682 382 656 q 536 708 483 708 q 681 647 640 708 q 722 456 722 586 l 722 119 q 764 72 722 72 q 833 101 799 72 l 860 65 q 782 1 824 25 q 704 -22 740 -22 z "},"i":{"ha":433,"x_min":49,"x_max":413,"o":"m 257 -19 q 175 15 200 -19 q 150 128 150 50 l 150 558 q 122 589 150 589 l 61 589 l 49 625 q 141 685 89 661 q 232 708 193 708 q 263 696 251 708 q 275 664 275 683 l 275 122 q 317 75 275 75 q 386 104 351 75 l 413 68 q 335 4 376 28 q 257 -19 293 -19 m 215 824 q 180 839 200 824 q 145 875 160 854 q 131 914 131 896 q 145 953 131 932 q 179 990 160 975 q 215 1006 199 1006 q 253 990 233 1006 q 288 953 274 975 q 303 914 303 932 q 288 875 303 896 q 253 839 274 854 q 215 824 233 824 z "},"ı":{"ha":433,"x_min":49,"x_max":413,"o":"m 257 -19 q 175 15 200 -19 q 150 128 150 50 l 150 558 q 122 589 150 589 l 61 589 l 49 625 q 141 685 89 661 q 232 708 193 708 q 263 696 251 708 q 275 664 275 683 l 275 122 q 317 75 275 75 q 386 104 351 75 l 413 68 q 335 4 376 28 q 257 -19 293 -19 z "},"í":{"ha":433,"x_min":49,"x_max":413,"o":"m 257 -19 q 175 15 200 -19 q 150 128 150 50 l 150 558 q 122 589 150 589 l 61 589 l 49 625 q 141 685 89 661 q 232 708 193 708 q 263 696 251 708 q 275 664 275 683 l 275 122 q 317 75 275 75 q 386 104 351 75 l 413 68 q 335 4 376 28 q 257 -19 293 -19 m 119 790 l 79 839 l 296 1056 q 338 1021 322 1043 q 354 968 354 999 q 337 913 354 938 q 276 868 319 889 l 119 790 z "},"î":{"ha":433,"x_min":26,"x_max":413,"o":"m 257 -19 q 175 15 200 -19 q 150 128 150 50 l 150 558 q 122 589 150 589 l 61 589 l 49 625 q 141 685 89 661 q 232 708 193 708 q 263 696 251 708 q 275 664 275 683 l 275 122 q 317 75 275 75 q 386 104 351 75 l 413 68 q 335 4 376 28 q 257 -19 293 -19 m 72 790 l 26 829 q 90 928 57 882 q 152 1006 124 974 q 199 1049 181 1039 l 236 1049 q 280 1008 251 1040 q 342 930 308 976 q 407 829 376 883 l 363 790 l 217 906 l 72 790 z "},"ï":{"ha":433,"x_min":-1,"x_max":433,"o":"m 257 -19 q 175 15 200 -19 q 150 128 150 50 l 150 558 q 122 589 150 589 l 61 589 l 49 625 q 141 685 89 661 q 232 708 193 708 q 263 696 251 708 q 275 664 275 683 l 275 122 q 317 75 275 75 q 386 104 351 75 l 413 68 q 335 4 376 28 q 257 -19 293 -19 m 346 824 q 310 839 331 824 q 276 875 290 854 q 261 914 261 896 q 276 953 261 932 q 310 990 290 975 q 346 1006 329 1006 q 384 990 364 1006 q 419 953 404 975 q 433 914 433 932 q 419 875 433 896 q 384 839 404 854 q 346 824 364 824 m 83 824 q 48 839 68 824 q 13 875 28 854 q -1 914 -1 896 q 13 953 -1 932 q 47 990 28 975 q 83 1006 67 1006 q 122 990 101 1006 q 156 953 142 975 q 171 914 171 932 q 156 875 171 896 q 122 839 142 854 q 83 824 101 824 z "},"ì":{"ha":433,"x_min":49,"x_max":413,"o":"m 257 -19 q 175 15 200 -19 q 150 128 150 50 l 150 558 q 122 589 150 589 l 61 589 l 49 625 q 141 685 89 661 q 232 708 193 708 q 263 696 251 708 q 275 664 275 683 l 275 122 q 317 75 275 75 q 386 104 351 75 l 413 68 q 335 4 376 28 q 257 -19 293 -19 m 314 790 l 157 868 q 97 913 114 889 q 79 968 79 938 q 95 1021 79 999 q 138 1056 111 1043 l 354 839 l 314 790 z "},"ĳ":{"ha":814,"x_min":49,"x_max":726,"o":"m 257 -19 q 175 15 200 -19 q 150 128 150 50 l 150 558 q 122 589 150 589 l 61 589 l 49 625 q 141 685 89 661 q 232 708 193 708 q 263 696 251 708 q 275 664 275 683 l 275 122 q 317 75 275 75 q 386 104 351 75 l 413 68 q 335 4 376 28 q 257 -19 293 -19 m 215 824 q 180 839 200 824 q 145 875 160 854 q 131 914 131 896 q 145 953 131 932 q 179 990 160 975 q 215 1006 199 1006 q 253 990 233 1006 q 288 953 274 975 q 303 914 303 932 q 288 875 303 896 q 253 839 274 854 q 215 824 233 824 m 451 -386 q 329 -349 379 -386 q 279 -244 279 -311 q 317 -156 279 -192 q 415 -119 356 -119 q 442 -135 442 -119 q 432 -151 442 -140 q 413 -182 422 -162 q 403 -235 403 -201 q 425 -302 403 -278 q 479 -326 447 -326 q 547 -292 518 -326 q 576 -181 576 -257 l 576 558 q 549 589 576 589 l 488 589 l 475 625 q 567 685 515 661 q 658 708 619 708 q 690 696 678 708 q 703 664 703 683 l 703 -74 q 641 -299 703 -212 q 451 -386 579 -386 m 639 824 q 603 839 624 824 q 569 875 583 854 q 554 914 554 896 q 569 953 554 932 q 603 990 583 975 q 639 1006 622 1006 q 677 990 657 1006 q 712 953 697 975 q 726 914 726 932 q 712 875 726 896 q 677 839 697 854 q 639 824 657 824 z "},"ī":{"ha":433,"x_min":11,"x_max":421,"o":"m 257 -19 q 175 15 200 -19 q 150 128 150 50 l 150 558 q 122 589 150 589 l 61 589 l 49 625 q 141 685 89 661 q 232 708 193 708 q 263 696 251 708 q 275 664 275 683 l 275 122 q 317 75 275 75 q 386 104 351 75 l 413 68 q 335 4 376 28 q 257 -19 293 -19 m 11 857 q 19 917 11 885 q 47 968 28 950 l 421 968 q 413 908 421 940 q 385 857 406 875 l 11 857 z "},"į":{"ha":433,"x_min":35,"x_max":478,"o":"m 257 -19 q 175 15 200 -19 q 150 128 150 50 l 150 558 q 122 589 150 589 l 61 589 l 49 625 q 141 685 89 661 q 232 708 193 708 q 263 696 251 708 q 275 664 275 683 l 275 122 q 317 75 275 75 q 386 104 351 75 l 413 68 q 335 4 376 28 q 257 -19 293 -19 m 215 824 q 180 839 200 824 q 145 875 160 854 q 131 914 131 896 q 145 953 131 932 q 179 990 160 975 q 215 1006 199 1006 q 253 990 233 1006 q 288 953 274 975 q 303 914 303 932 q 288 875 303 896 q 253 839 274 854 q 215 824 233 824 m 201 -412 q 84 -372 133 -412 q 35 -254 35 -331 q 106 -96 35 -169 q 313 68 176 -22 l 349 14 q 192 -120 239 -58 q 146 -231 146 -182 q 170 -299 146 -276 q 231 -321 194 -321 q 330 -289 275 -321 q 431 -194 385 -257 l 478 -237 q 343 -369 415 -326 q 201 -412 271 -412 z "},"j":{"ha":381,"x_min":-154,"x_max":293,"o":"m 18 -386 q -104 -349 -54 -386 q -154 -244 -154 -311 q -116 -156 -154 -192 q -18 -119 -78 -119 q 8 -135 8 -119 q -1 -151 8 -140 q -21 -182 -11 -162 q -31 -235 -31 -201 q -8 -302 -31 -278 q 46 -326 14 -326 q 114 -292 85 -326 q 143 -181 143 -257 l 143 558 q 115 589 143 589 l 54 589 l 42 625 q 134 685 82 661 q 225 708 186 708 q 257 696 244 708 q 269 664 269 683 l 269 -74 q 208 -299 269 -212 q 18 -386 146 -386 m 206 824 q 170 839 190 824 q 135 875 150 854 q 121 914 121 896 q 135 953 121 932 q 169 990 150 975 q 206 1006 189 1006 q 244 990 224 1006 q 278 953 264 975 q 293 914 293 932 q 278 875 293 896 q 244 839 264 854 q 206 824 224 824 z "},"ȷ":{"ha":381,"x_min":-154,"x_max":269,"o":"m 18 -386 q -104 -349 -54 -386 q -154 -244 -154 -311 q -116 -156 -154 -192 q -18 -119 -78 -119 q 8 -135 8 -119 q -1 -151 8 -140 q -21 -182 -11 -162 q -31 -235 -31 -201 q -8 -302 -31 -278 q 46 -326 14 -326 q 114 -292 85 -326 q 143 -181 143 -257 l 143 558 q 115 589 143 589 l 54 589 l 42 625 q 134 685 82 661 q 225 708 186 708 q 257 696 244 708 q 269 664 269 683 l 269 -74 q 208 -299 269 -212 q 18 -386 146 -386 z "},"k":{"ha":811,"x_min":49,"x_max":783,"o":"m 635 -19 q 536 19 569 -19 q 467 128 503 58 l 364 324 l 351 328 q 331 340 336 332 q 325 357 325 347 q 330 375 325 367 q 346 383 335 383 q 374 377 357 383 q 435 371 392 371 q 524 393 489 371 q 577 448 560 415 q 594 514 594 481 q 572 583 594 554 q 501 613 549 613 q 381 563 432 613 q 303 426 331 514 q 276 222 276 339 q 285 117 276 157 q 321 43 294 78 l 338 21 l 321 0 l 78 0 l 63 43 l 92 50 q 139 81 128 58 q 150 154 150 103 l 150 936 q 122 967 150 967 l 61 967 l 49 1003 q 141 1063 89 1039 q 232 1086 193 1086 q 264 1074 251 1086 q 276 1042 276 1061 l 276 501 q 339 609 300 563 q 427 682 378 656 q 528 708 476 708 q 635 683 593 708 q 699 615 678 657 q 719 526 719 574 q 696 433 719 479 q 626 353 672 386 q 514 313 581 321 l 622 107 q 648 76 633 85 q 681 68 663 68 q 719 78 700 68 q 754 104 739 89 l 783 68 q 711 1 749 21 q 635 -19 674 -19 z "},"ķ":{"ha":811,"x_min":49,"x_max":783,"o":"m 635 -19 q 536 19 569 -19 q 467 128 503 58 l 364 324 l 351 328 q 331 340 336 332 q 325 357 325 347 q 330 375 325 367 q 346 383 335 383 q 374 377 357 383 q 435 371 392 371 q 524 393 489 371 q 577 448 560 415 q 594 514 594 481 q 572 583 594 554 q 501 613 549 613 q 381 563 432 613 q 303 426 331 514 q 276 222 276 339 q 285 117 276 157 q 321 43 294 78 l 338 21 l 321 0 l 78 0 l 63 43 l 92 50 q 139 81 128 58 q 150 154 150 103 l 150 936 q 122 967 150 967 l 61 967 l 49 1003 q 141 1063 89 1039 q 232 1086 193 1086 q 264 1074 251 1086 q 276 1042 276 1061 l 276 501 q 339 609 300 563 q 427 682 378 656 q 528 708 476 708 q 635 683 593 708 q 699 615 678 657 q 719 526 719 574 q 696 433 719 479 q 626 353 672 386 q 514 313 581 321 l 622 107 q 648 76 633 85 q 681 68 663 68 q 719 78 700 68 q 754 104 739 89 l 783 68 q 711 1 749 21 q 635 -19 674 -19 m 342 -449 l 301 -422 l 365 -297 q 382 -240 382 -264 q 350 -189 382 -212 l 325 -172 l 318 -139 l 342 -129 q 381 -117 361 -122 q 419 -112 401 -112 q 483 -133 457 -112 q 510 -206 510 -154 q 477 -293 510 -249 q 396 -390 444 -337 l 342 -449 z "},"l":{"ha":419,"x_min":35,"x_max":399,"o":"m 243 -19 q 161 15 186 -19 q 136 128 136 50 l 136 936 q 108 967 136 967 l 47 967 l 35 1003 q 127 1063 75 1039 q 218 1086 179 1086 q 249 1074 238 1086 q 261 1042 261 1061 l 261 122 q 303 75 261 75 q 372 104 338 75 l 399 68 q 321 4 363 28 q 243 -19 279 -19 z "},"ĺ":{"ha":419,"x_min":35,"x_max":399,"o":"m 243 -19 q 161 15 186 -19 q 136 128 136 50 l 136 936 q 108 967 136 967 l 47 967 l 35 1003 q 127 1063 75 1039 q 218 1086 179 1086 q 249 1074 238 1086 q 261 1042 261 1061 l 261 122 q 303 75 261 75 q 372 104 338 75 l 399 68 q 321 4 363 28 q 243 -19 279 -19 m 126 1186 l 86 1235 l 303 1451 q 345 1417 329 1439 q 361 1364 361 1394 q 344 1309 361 1333 q 283 1264 326 1285 l 126 1186 z "},"ľ":{"ha":419,"x_min":35,"x_max":528,"o":"m 243 -19 q 161 15 186 -19 q 136 128 136 50 l 136 936 q 108 967 136 967 l 47 967 l 35 1003 q 127 1063 75 1039 q 218 1086 179 1086 q 249 1074 238 1086 q 261 1042 261 1061 l 261 122 q 303 75 261 75 q 372 104 338 75 l 399 68 q 321 4 363 28 q 243 -19 279 -19 m 457 794 q 429 821 436 794 q 408 928 418 871 q 392 1036 397 985 q 386 1117 386 1088 q 457 1158 411 1158 q 528 1117 503 1158 q 523 1044 528 1092 q 508 938 518 997 q 485 821 499 879 q 457 794 478 794 z "},"ļ":{"ha":419,"x_min":35,"x_max":399,"o":"m 243 -19 q 161 15 186 -19 q 136 128 136 50 l 136 936 q 108 967 136 967 l 47 967 l 35 1003 q 127 1063 75 1039 q 218 1086 179 1086 q 249 1074 238 1086 q 261 1042 261 1061 l 261 122 q 303 75 261 75 q 372 104 338 75 l 399 68 q 321 4 363 28 q 243 -19 279 -19 m 146 -449 l 106 -422 l 169 -297 q 186 -240 186 -264 q 154 -189 186 -212 l 129 -172 l 122 -139 l 146 -129 q 185 -117 165 -122 q 224 -112 206 -112 q 288 -133 261 -112 q 314 -206 314 -154 q 281 -293 314 -249 q 200 -390 249 -337 l 146 -449 z "},"ł":{"ha":419,"x_min":-7,"x_max":415,"o":"m 243 -19 q 161 15 186 -19 q 136 128 136 50 l 136 411 l -7 339 q -1 426 -7 399 q 26 464 6 454 l 136 519 l 136 936 q 108 967 136 967 l 47 967 l 35 1003 q 127 1063 75 1039 q 218 1086 179 1086 q 249 1074 238 1086 q 261 1042 261 1061 l 261 582 l 415 658 q 409 572 415 599 q 382 533 403 544 l 261 474 l 261 122 q 303 75 261 75 q 372 104 338 75 l 399 68 q 321 4 363 28 q 243 -19 279 -19 z "},"m":{"ha":1307,"x_min":56,"x_max":1279,"o":"m 1124 -19 q 1042 15 1067 -19 q 1017 128 1017 50 l 1017 458 q 914 600 1017 600 q 811 555 856 600 q 741 428 767 510 q 713 239 715 347 l 713 222 q 724 112 713 156 q 774 21 735 68 l 757 0 l 588 0 l 588 458 q 485 600 588 600 q 380 553 425 600 q 309 420 335 506 q 283 222 283 335 q 293 118 283 157 q 328 43 303 79 l 344 21 l 328 0 l 85 0 l 69 43 l 99 50 q 146 81 135 58 q 157 154 157 103 l 157 544 q 129 575 157 575 l 68 575 l 56 611 q 148 671 96 647 q 239 694 200 694 q 271 682 258 694 q 283 650 283 669 l 283 501 q 347 609 307 563 q 435 682 386 656 q 535 708 485 708 q 663 658 619 708 q 713 501 706 608 q 776 609 736 563 q 865 682 815 656 q 964 708 914 708 q 1099 649 1057 708 q 1142 458 1142 589 l 1142 122 q 1183 75 1142 75 q 1253 104 1215 75 l 1279 68 q 1201 4 1243 28 q 1124 -19 1160 -19 z "},"n":{"ha":894,"x_min":56,"x_max":867,"o":"m 711 -19 q 629 15 654 -19 q 604 128 604 50 l 604 458 q 485 600 604 600 q 380 553 425 600 q 309 420 335 506 q 283 222 283 335 q 293 118 283 157 q 328 43 303 79 l 344 21 l 328 0 l 85 0 l 69 43 l 99 50 q 146 81 135 58 q 157 154 157 103 l 157 544 q 129 575 157 575 l 68 575 l 56 611 q 148 671 96 647 q 239 694 200 694 q 271 682 258 694 q 283 650 283 669 l 283 501 q 348 609 307 563 q 440 682 389 656 q 543 708 490 708 q 685 649 640 708 q 729 458 729 589 l 729 122 q 771 75 729 75 q 840 104 803 75 l 867 68 q 789 4 831 28 q 711 -19 747 -19 z "},"ń":{"ha":894,"x_min":56,"x_max":867,"o":"m 711 -19 q 629 15 654 -19 q 604 128 604 50 l 604 458 q 485 600 604 600 q 380 553 425 600 q 309 420 335 506 q 283 222 283 335 q 293 118 283 157 q 328 43 303 79 l 344 21 l 328 0 l 85 0 l 69 43 l 99 50 q 146 81 135 58 q 157 154 157 103 l 157 544 q 129 575 157 575 l 68 575 l 56 611 q 148 671 96 647 q 239 694 200 694 q 271 682 258 694 q 283 650 283 669 l 283 501 q 348 609 307 563 q 440 682 389 656 q 543 708 490 708 q 685 649 640 708 q 729 458 729 589 l 729 122 q 771 75 729 75 q 840 104 803 75 l 867 68 q 789 4 831 28 q 711 -19 747 -19 m 350 790 l 310 839 l 526 1056 q 569 1021 553 1043 q 585 968 585 999 q 567 913 585 938 q 507 868 550 889 l 350 790 z "},"ň":{"ha":894,"x_min":56,"x_max":867,"o":"m 711 -19 q 629 15 654 -19 q 604 128 604 50 l 604 458 q 485 600 604 600 q 380 553 425 600 q 309 420 335 506 q 283 222 283 335 q 293 118 283 157 q 328 43 303 79 l 344 21 l 328 0 l 85 0 l 69 43 l 99 50 q 146 81 135 58 q 157 154 157 103 l 157 544 q 129 575 157 575 l 68 575 l 56 611 q 148 671 96 647 q 239 694 200 694 q 271 682 258 694 q 283 650 283 669 l 283 501 q 348 609 307 563 q 440 682 389 656 q 543 708 490 708 q 685 649 640 708 q 729 458 729 589 l 729 122 q 771 75 729 75 q 840 104 803 75 l 867 68 q 789 4 831 28 q 711 -19 747 -19 m 429 803 q 383 846 411 814 q 321 924 354 878 q 257 1022 288 969 l 303 1061 l 447 944 l 593 1061 l 638 1022 q 573 922 607 968 q 510 844 539 875 q 467 803 482 813 l 429 803 z "},"ņ":{"ha":894,"x_min":56,"x_max":867,"o":"m 711 -19 q 629 15 654 -19 q 604 128 604 50 l 604 458 q 485 600 604 600 q 380 553 425 600 q 309 420 335 506 q 283 222 283 335 q 293 118 283 157 q 328 43 303 79 l 344 21 l 328 0 l 85 0 l 69 43 l 99 50 q 146 81 135 58 q 157 154 157 103 l 157 544 q 129 575 157 575 l 68 575 l 56 611 q 148 671 96 647 q 239 694 200 694 q 271 682 258 694 q 283 650 283 669 l 283 501 q 348 609 307 563 q 440 682 389 656 q 543 708 490 708 q 685 649 640 708 q 729 458 729 589 l 729 122 q 771 75 729 75 q 840 104 803 75 l 867 68 q 789 4 831 28 q 711 -19 747 -19 m 383 -449 l 343 -422 l 407 -297 q 424 -240 424 -264 q 392 -189 424 -212 l 367 -172 l 360 -139 l 383 -129 q 423 -117 403 -122 q 461 -112 443 -112 q 525 -133 499 -112 q 551 -206 551 -154 q 519 -293 551 -249 q 438 -390 486 -337 l 383 -449 z "},"ñ":{"ha":894,"x_min":56,"x_max":867,"o":"m 711 -19 q 629 15 654 -19 q 604 128 604 50 l 604 458 q 485 600 604 600 q 380 553 425 600 q 309 420 335 506 q 283 222 283 335 q 293 118 283 157 q 328 43 303 79 l 344 21 l 328 0 l 85 0 l 69 43 l 99 50 q 146 81 135 58 q 157 154 157 103 l 157 544 q 129 575 157 575 l 68 575 l 56 611 q 148 671 96 647 q 239 694 200 694 q 271 682 258 694 q 283 650 283 669 l 283 501 q 348 609 307 563 q 440 682 389 656 q 543 708 490 708 q 685 649 640 708 q 729 458 729 589 l 729 122 q 771 75 729 75 q 840 104 803 75 l 867 68 q 789 4 831 28 q 711 -19 747 -19 m 269 821 l 221 864 q 313 962 265 925 q 400 999 360 999 q 451 987 431 999 q 490 963 472 975 q 531 950 508 950 q 572 963 549 950 q 625 1004 594 975 l 672 961 q 582 863 629 900 q 494 826 535 826 q 442 839 464 826 q 403 863 421 851 q 363 875 385 875 q 322 862 346 875 q 269 821 297 849 z "},"ŋ":{"ha":817,"x_min":56,"x_max":729,"o":"m 604 458 q 485 600 604 600 q 380 553 425 600 q 309 420 335 506 q 283 222 283 335 q 292 117 283 157 q 328 43 301 78 l 344 21 l 328 0 l 85 0 l 69 43 l 99 50 q 146 81 135 58 q 157 154 157 103 l 157 544 q 129 575 157 575 l 68 575 l 56 611 q 148 671 96 647 q 239 694 200 694 q 271 682 258 694 q 283 650 283 669 l 283 501 q 348 609 307 563 q 440 682 389 656 q 543 708 490 708 q 685 649 640 708 q 729 458 729 589 l 729 38 q 681 -167 729 -85 q 533 -269 633 -250 l 513 -215 q 576 -177 549 -212 q 604 -69 604 -142 l 604 458 z "},"o":{"ha":803,"x_min":63,"x_max":740,"o":"m 401 -19 q 222 25 297 -19 q 104 151 146 69 q 63 344 63 233 q 104 538 63 457 q 222 664 146 619 q 401 708 297 708 q 581 664 506 708 q 699 538 657 619 q 740 344 740 457 q 699 151 740 233 q 581 25 657 69 q 401 -19 506 -19 m 397 56 q 539 134 483 56 q 594 340 594 213 q 585 433 594 382 q 555 531 576 485 q 497 606 533 576 q 406 636 461 636 q 302 599 347 636 q 232 497 257 563 q 207 343 207 431 q 258 134 207 213 q 397 56 310 56 z "},"ó":{"ha":803,"x_min":63,"x_max":740,"o":"m 401 -19 q 222 25 297 -19 q 104 151 146 69 q 63 344 63 233 q 104 538 63 457 q 222 664 146 619 q 401 708 297 708 q 581 664 506 708 q 699 538 657 619 q 740 344 740 457 q 699 151 740 233 q 581 25 657 69 q 401 -19 506 -19 m 397 56 q 539 134 483 56 q 594 340 594 213 q 585 433 594 382 q 555 531 576 485 q 497 606 533 576 q 406 636 461 636 q 302 599 347 636 q 232 497 257 563 q 207 343 207 431 q 258 134 207 213 q 397 56 310 56 m 304 790 l 264 839 l 481 1056 q 523 1021 507 1043 q 539 968 539 999 q 522 913 539 938 q 461 868 504 889 l 304 790 z "},"ô":{"ha":803,"x_min":63,"x_max":740,"o":"m 401 -19 q 222 25 297 -19 q 104 151 146 69 q 63 344 63 233 q 104 538 63 457 q 222 664 146 619 q 401 708 297 708 q 581 664 506 708 q 699 538 657 619 q 740 344 740 457 q 699 151 740 233 q 581 25 657 69 q 401 -19 506 -19 m 397 56 q 539 134 483 56 q 594 340 594 213 q 585 433 594 382 q 555 531 576 485 q 497 606 533 576 q 406 636 461 636 q 302 599 347 636 q 232 497 257 563 q 207 343 207 431 q 258 134 207 213 q 397 56 310 56 m 257 790 l 211 829 q 275 928 242 882 q 337 1006 308 974 q 383 1049 365 1039 l 421 1049 q 465 1008 436 1040 q 527 930 493 976 q 592 829 561 883 l 547 790 l 401 906 l 257 790 z "},"ö":{"ha":803,"x_min":63,"x_max":740,"o":"m 401 -19 q 222 25 297 -19 q 104 151 146 69 q 63 344 63 233 q 104 538 63 457 q 222 664 146 619 q 401 708 297 708 q 581 664 506 708 q 699 538 657 619 q 740 344 740 457 q 699 151 740 233 q 581 25 657 69 q 401 -19 506 -19 m 397 56 q 539 134 483 56 q 594 340 594 213 q 585 433 594 382 q 555 531 576 485 q 497 606 533 576 q 406 636 461 636 q 302 599 347 636 q 232 497 257 563 q 207 343 207 431 q 258 134 207 213 q 397 56 310 56 m 531 824 q 495 839 515 824 q 460 875 475 854 q 446 914 446 896 q 460 953 446 932 q 494 990 475 975 q 531 1006 514 1006 q 569 990 549 1006 q 603 953 589 975 q 618 914 618 932 q 603 875 618 896 q 569 839 589 854 q 531 824 549 824 m 268 824 q 233 839 253 824 q 198 875 213 854 q 183 914 183 896 q 198 953 183 932 q 232 990 213 975 q 268 1006 251 1006 q 306 990 286 1006 q 341 953 326 975 q 356 914 356 932 q 341 875 356 896 q 306 839 326 854 q 268 824 286 824 z "},"ò":{"ha":803,"x_min":63,"x_max":740,"o":"m 401 -19 q 222 25 297 -19 q 104 151 146 69 q 63 344 63 233 q 104 538 63 457 q 222 664 146 619 q 401 708 297 708 q 581 664 506 708 q 699 538 657 619 q 740 344 740 457 q 699 151 740 233 q 581 25 657 69 q 401 -19 506 -19 m 397 56 q 539 134 483 56 q 594 340 594 213 q 585 433 594 382 q 555 531 576 485 q 497 606 533 576 q 406 636 461 636 q 302 599 347 636 q 232 497 257 563 q 207 343 207 431 q 258 134 207 213 q 397 56 310 56 m 499 790 l 342 868 q 281 913 299 889 q 264 968 264 938 q 280 1021 264 999 q 322 1056 296 1043 l 539 839 l 499 790 z "},"ő":{"ha":803,"x_min":63,"x_max":765,"o":"m 401 -19 q 222 25 297 -19 q 104 151 146 69 q 63 344 63 233 q 104 538 63 457 q 222 664 146 619 q 401 708 297 708 q 581 664 506 708 q 699 538 657 619 q 740 344 740 457 q 699 151 740 233 q 581 25 657 69 q 401 -19 506 -19 m 397 56 q 539 134 483 56 q 594 340 594 213 q 585 433 594 382 q 555 531 576 485 q 497 606 533 576 q 406 636 461 636 q 302 599 347 636 q 232 497 257 563 q 207 343 207 431 q 258 134 207 213 q 397 56 310 56 m 531 790 l 490 839 l 707 1056 q 749 1021 733 1043 q 765 968 765 999 q 748 913 765 938 q 688 868 731 889 l 531 790 m 243 790 l 203 839 l 419 1056 q 462 1021 446 1043 q 478 968 478 999 q 460 913 478 938 q 400 868 443 889 l 243 790 z "},"ō":{"ha":803,"x_min":63,"x_max":740,"o":"m 401 -19 q 222 25 297 -19 q 104 151 146 69 q 63 344 63 233 q 104 538 63 457 q 222 664 146 619 q 401 708 297 708 q 581 664 506 708 q 699 538 657 619 q 740 344 740 457 q 699 151 740 233 q 581 25 657 69 q 401 -19 506 -19 m 397 56 q 539 134 483 56 q 594 340 594 213 q 585 433 594 382 q 555 531 576 485 q 497 606 533 576 q 406 636 461 636 q 302 599 347 636 q 232 497 257 563 q 207 343 207 431 q 258 134 207 213 q 397 56 310 56 m 196 857 q 204 917 196 885 q 232 968 213 950 l 606 968 q 598 908 606 940 q 569 857 590 875 l 196 857 z "},"ø":{"ha":803,"x_min":63,"x_max":740,"o":"m 213 -94 l 250 11 q 112 137 161 50 q 63 344 63 224 q 104 538 63 457 q 222 664 146 619 q 401 708 297 708 q 493 699 450 708 l 524 785 l 599 785 l 560 675 q 692 549 644 635 q 740 344 740 464 q 699 151 740 233 q 581 25 657 69 q 401 -19 506 -19 q 315 -11 357 -19 l 286 -94 l 213 -94 m 207 343 q 282 104 207 181 l 467 624 q 406 636 439 636 q 302 599 347 636 q 232 497 257 563 q 207 343 207 431 m 397 56 q 539 134 483 56 q 594 340 594 213 q 579 463 594 394 q 525 578 564 531 l 343 65 q 397 56 368 56 z "},"õ":{"ha":803,"x_min":63,"x_max":740,"o":"m 401 -19 q 222 25 297 -19 q 104 151 146 69 q 63 344 63 233 q 104 538 63 457 q 222 664 146 619 q 401 708 297 708 q 581 664 506 708 q 699 538 657 619 q 740 344 740 457 q 699 151 740 233 q 581 25 657 69 q 401 -19 506 -19 m 397 56 q 539 134 483 56 q 594 340 594 213 q 585 433 594 382 q 555 531 576 485 q 497 606 533 576 q 406 636 461 636 q 302 599 347 636 q 232 497 257 563 q 207 343 207 431 q 258 134 207 213 q 397 56 310 56 m 224 821 l 175 864 q 267 962 219 925 q 354 999 314 999 q 406 987 385 999 q 444 963 426 975 q 485 950 463 950 q 526 963 503 950 q 579 1004 549 975 l 626 961 q 536 863 583 900 q 449 826 489 826 q 397 839 418 826 q 357 863 375 851 q 317 875 339 875 q 276 862 300 875 q 224 821 251 849 z "},"œ":{"ha":1269,"x_min":63,"x_max":1197,"o":"m 401 -19 q 222 25 297 -19 q 104 151 146 69 q 63 344 63 233 q 104 538 63 457 q 222 664 146 619 q 401 708 297 708 q 560 675 492 708 q 674 581 629 642 q 793 675 721 642 q 957 708 865 708 q 1090 679 1038 708 q 1167 603 1142 650 q 1193 504 1193 557 q 1163 393 1193 447 q 1074 304 1133 339 q 928 269 1015 269 q 888 273 914 269 q 837 284 863 276 q 793 304 811 292 q 775 335 775 317 q 781 356 775 346 q 796 365 788 365 q 824 356 807 365 q 885 347 842 347 q 983 370 944 347 q 1042 430 1022 393 q 1061 506 1061 467 q 1028 598 1061 557 q 929 639 994 639 q 790 561 840 639 q 740 336 740 483 q 792 143 740 214 q 946 72 844 72 q 1056 91 1004 72 q 1149 151 1107 110 q 1161 157 1154 157 q 1185 144 1172 157 q 1197 117 1197 131 q 1192 104 1197 110 q 1067 15 1136 49 q 917 -19 999 -19 q 772 13 836 -19 q 667 100 708 44 q 555 12 622 43 q 401 -19 488 -19 m 397 56 q 539 134 483 56 q 594 340 594 213 q 585 433 594 382 q 555 531 576 485 q 497 606 533 576 q 406 636 461 636 q 302 599 347 636 q 232 497 257 563 q 207 343 207 431 q 258 134 207 213 q 397 56 310 56 z "},"p":{"ha":826,"x_min":42,"x_max":764,"o":"m 99 -369 l 82 -349 l 99 -326 q 133 -251 124 -290 q 143 -147 143 -212 l 143 529 q 138 560 143 550 q 114 575 132 571 l 42 590 l 42 636 q 91 663 57 650 q 165 683 125 675 q 235 692 204 692 q 268 628 268 692 l 268 621 q 468 708 358 708 q 622 665 556 708 q 726 547 689 622 q 764 372 764 471 q 724 172 764 260 q 616 32 685 83 q 458 -19 547 -19 q 319 18 376 -19 q 307 43 307 26 q 312 67 307 56 q 328 78 317 78 q 359 67 339 78 q 426 56 379 56 q 525 93 482 56 q 592 196 568 131 q 617 344 617 261 q 592 486 617 425 q 524 582 568 547 q 424 617 481 617 q 268 563 339 617 l 268 -215 q 280 -289 268 -267 q 326 -319 292 -311 l 356 -326 l 340 -369 l 99 -369 z "},"þ":{"ha":826,"x_min":42,"x_max":764,"o":"m 99 -369 l 82 -349 l 99 -326 q 133 -251 124 -290 q 143 -147 143 -212 l 143 924 q 138 955 143 944 q 114 969 132 965 l 42 985 l 42 1031 q 91 1057 57 1044 q 165 1078 125 1069 q 235 1086 204 1086 q 268 1022 268 1086 l 268 621 q 468 708 358 708 q 622 665 556 708 q 726 547 689 622 q 764 372 764 471 q 724 172 764 260 q 616 32 685 83 q 458 -19 547 -19 q 319 18 376 -19 q 307 43 307 26 q 312 67 307 56 q 328 78 317 78 q 359 67 339 78 q 426 56 379 56 q 525 93 482 56 q 592 196 568 131 q 617 344 617 261 q 592 486 617 425 q 524 582 568 547 q 424 617 481 617 q 268 563 339 617 l 268 -215 q 280 -289 268 -267 q 326 -319 292 -311 l 356 -326 l 340 -369 l 99 -369 z "},"q":{"ha":818,"x_min":63,"x_max":731,"o":"m 456 -369 l 456 -324 l 499 -304 q 544 -269 531 -289 q 557 -203 557 -249 l 557 128 q 437 12 497 43 q 311 -19 376 -19 q 189 18 246 -19 q 97 131 132 56 q 63 318 63 206 q 106 526 63 439 q 231 661 150 614 q 422 708 313 708 q 560 694 488 708 q 703 674 632 679 l 718 656 l 701 631 q 689 606 694 618 q 683 576 683 594 l 683 -164 q 690 -264 683 -229 q 717 -326 697 -299 l 731 -349 l 714 -369 l 456 -369 m 367 88 q 469 118 419 88 q 557 214 518 149 l 557 589 q 421 632 493 632 q 264 556 319 632 q 208 344 208 481 q 231 194 208 250 q 290 113 253 138 q 367 88 326 88 z "},"r":{"ha":607,"x_min":56,"x_max":607,"o":"m 85 0 l 69 43 l 99 50 q 146 81 135 58 q 157 154 157 103 l 157 544 q 129 575 157 575 l 68 575 l 56 611 q 148 671 96 647 q 239 694 200 694 q 271 682 258 694 q 283 650 283 669 l 283 501 l 292 501 q 365 651 315 594 q 472 708 414 708 q 568 671 529 708 q 607 567 607 633 q 569 478 607 514 q 471 442 531 442 q 444 457 444 442 q 454 476 444 464 q 474 508 464 489 q 483 553 483 528 q 470 592 483 578 q 438 607 457 607 q 372 570 408 607 q 310 448 336 533 q 283 217 283 363 q 293 116 283 154 q 328 43 303 78 l 344 21 l 328 0 l 85 0 z "},"ŕ":{"ha":607,"x_min":56,"x_max":607,"o":"m 85 0 l 69 43 l 99 50 q 146 81 135 58 q 157 154 157 103 l 157 544 q 129 575 157 575 l 68 575 l 56 611 q 148 671 96 647 q 239 694 200 694 q 271 682 258 694 q 283 650 283 669 l 283 501 l 292 501 q 365 651 315 594 q 472 708 414 708 q 568 671 529 708 q 607 567 607 633 q 569 478 607 514 q 471 442 531 442 q 444 457 444 442 q 454 476 444 464 q 474 508 464 489 q 483 553 483 528 q 470 592 483 578 q 438 607 457 607 q 372 570 408 607 q 310 448 336 533 q 283 217 283 363 q 293 116 283 154 q 328 43 303 78 l 344 21 l 328 0 l 85 0 m 221 790 l 181 839 l 397 1056 q 440 1021 424 1043 q 456 968 456 999 q 438 913 456 938 q 378 868 421 889 l 221 790 z "},"ř":{"ha":607,"x_min":56,"x_max":607,"o":"m 85 0 l 69 43 l 99 50 q 146 81 135 58 q 157 154 157 103 l 157 544 q 129 575 157 575 l 68 575 l 56 611 q 148 671 96 647 q 239 694 200 694 q 271 682 258 694 q 283 650 283 669 l 283 501 l 292 501 q 365 651 315 594 q 472 708 414 708 q 568 671 529 708 q 607 567 607 633 q 569 478 607 514 q 471 442 531 442 q 444 457 444 442 q 454 476 444 464 q 474 508 464 489 q 483 553 483 528 q 470 592 483 578 q 438 607 457 607 q 372 570 408 607 q 310 448 336 533 q 283 217 283 363 q 293 116 283 154 q 328 43 303 78 l 344 21 l 328 0 l 85 0 m 300 803 q 253 846 282 814 q 192 924 225 878 q 128 1022 158 969 l 174 1061 l 318 944 l 464 1061 l 508 1022 q 444 922 478 968 q 381 844 410 875 q 338 803 353 813 l 300 803 z "},"ŗ":{"ha":607,"x_min":56,"x_max":607,"o":"m 85 0 l 69 43 l 99 50 q 146 81 135 58 q 157 154 157 103 l 157 544 q 129 575 157 575 l 68 575 l 56 611 q 148 671 96 647 q 239 694 200 694 q 271 682 258 694 q 283 650 283 669 l 283 501 l 292 501 q 365 651 315 594 q 472 708 414 708 q 568 671 529 708 q 607 567 607 633 q 569 478 607 514 q 471 442 531 442 q 444 457 444 442 q 454 476 444 464 q 474 508 464 489 q 483 553 483 528 q 470 592 483 578 q 438 607 457 607 q 372 570 408 607 q 310 448 336 533 q 283 217 283 363 q 293 116 283 154 q 328 43 303 78 l 344 21 l 328 0 l 85 0 m 154 -449 l 114 -422 l 178 -297 q 194 -240 194 -264 q 163 -189 194 -212 l 138 -172 l 131 -139 l 154 -129 q 194 -117 174 -122 q 232 -112 214 -112 q 296 -133 269 -112 q 322 -206 322 -154 q 290 -293 322 -249 q 208 -390 257 -337 l 154 -449 z "},"s":{"ha":668,"x_min":75,"x_max":592,"o":"m 317 -19 q 194 1 249 -19 q 107 62 139 22 q 75 154 75 101 q 107 232 75 201 q 190 263 139 263 q 210 259 201 263 q 219 246 219 256 q 211 220 219 238 q 203 168 203 203 q 224 100 203 126 q 275 61 244 74 q 335 49 306 49 q 428 80 392 49 q 465 161 465 111 q 444 217 465 194 q 388 258 422 240 q 314 293 353 276 q 213 342 264 314 q 126 412 161 369 q 92 521 92 454 q 125 619 92 578 q 215 685 158 661 q 344 708 272 708 q 508 670 442 708 q 574 565 574 632 q 541 479 574 514 q 457 444 508 444 q 428 463 428 444 q 438 491 428 474 q 449 540 449 508 q 431 600 449 578 q 387 632 413 622 q 335 642 361 642 q 244 613 276 642 q 213 540 213 585 q 235 476 213 503 q 296 431 258 450 q 375 393 333 411 q 476 347 426 372 q 558 283 525 321 q 592 189 592 246 q 517 38 592 94 q 317 -19 442 -19 z "},"ś":{"ha":668,"x_min":75,"x_max":592,"o":"m 317 -19 q 194 1 249 -19 q 107 62 139 22 q 75 154 75 101 q 107 232 75 201 q 190 263 139 263 q 210 259 201 263 q 219 246 219 256 q 211 220 219 238 q 203 168 203 203 q 224 100 203 126 q 275 61 244 74 q 335 49 306 49 q 428 80 392 49 q 465 161 465 111 q 444 217 465 194 q 388 258 422 240 q 314 293 353 276 q 213 342 264 314 q 126 412 161 369 q 92 521 92 454 q 125 619 92 578 q 215 685 158 661 q 344 708 272 708 q 508 670 442 708 q 574 565 574 632 q 541 479 574 514 q 457 444 508 444 q 428 463 428 444 q 438 491 428 474 q 449 540 449 508 q 431 600 449 578 q 387 632 413 622 q 335 642 361 642 q 244 613 276 642 q 213 540 213 585 q 235 476 213 503 q 296 431 258 450 q 375 393 333 411 q 476 347 426 372 q 558 283 525 321 q 592 189 592 246 q 517 38 592 94 q 317 -19 442 -19 m 224 790 l 183 839 l 400 1056 q 442 1021 426 1043 q 458 968 458 999 q 441 913 458 938 q 381 868 424 889 l 224 790 z "},"š":{"ha":668,"x_min":75,"x_max":592,"o":"m 317 -19 q 194 1 249 -19 q 107 62 139 22 q 75 154 75 101 q 107 232 75 201 q 190 263 139 263 q 210 259 201 263 q 219 246 219 256 q 211 220 219 238 q 203 168 203 203 q 224 100 203 126 q 275 61 244 74 q 335 49 306 49 q 428 80 392 49 q 465 161 465 111 q 444 217 465 194 q 388 258 422 240 q 314 293 353 276 q 213 342 264 314 q 126 412 161 369 q 92 521 92 454 q 125 619 92 578 q 215 685 158 661 q 344 708 272 708 q 508 670 442 708 q 574 565 574 632 q 541 479 574 514 q 457 444 508 444 q 428 463 428 444 q 438 491 428 474 q 449 540 449 508 q 431 600 449 578 q 387 632 413 622 q 335 642 361 642 q 244 613 276 642 q 213 540 213 585 q 235 476 213 503 q 296 431 258 450 q 375 393 333 411 q 476 347 426 372 q 558 283 525 321 q 592 189 592 246 q 517 38 592 94 q 317 -19 442 -19 m 303 803 q 256 846 285 814 q 194 924 228 878 q 131 1022 161 969 l 176 1061 l 321 944 l 467 1061 l 511 1022 q 447 922 481 968 q 384 844 413 875 q 340 803 356 813 l 303 803 z "},"ş":{"ha":668,"x_min":75,"x_max":592,"o":"m 317 -19 q 194 1 249 -19 q 107 62 139 22 q 75 154 75 101 q 107 232 75 201 q 190 263 139 263 q 210 259 201 263 q 219 246 219 256 q 211 220 219 238 q 203 168 203 203 q 224 100 203 126 q 275 61 244 74 q 335 49 306 49 q 428 80 392 49 q 465 161 465 111 q 444 217 465 194 q 388 258 422 240 q 314 293 353 276 q 213 342 264 314 q 126 412 161 369 q 92 521 92 454 q 125 619 92 578 q 215 685 158 661 q 344 708 272 708 q 508 670 442 708 q 574 565 574 632 q 541 479 574 514 q 457 444 508 444 q 428 463 428 444 q 438 491 428 474 q 449 540 449 508 q 431 600 449 578 q 387 632 413 622 q 335 642 361 642 q 244 613 276 642 q 213 540 213 585 q 235 476 213 503 q 296 431 258 450 q 375 393 333 411 q 476 347 426 372 q 558 283 525 321 q 592 189 592 246 q 517 38 592 94 q 317 -19 442 -19 m 343 -421 q 239 -394 286 -421 q 192 -314 192 -367 q 218 -255 192 -276 q 281 -233 244 -233 q 304 -247 304 -233 q 294 -267 304 -257 q 285 -308 285 -276 q 302 -348 285 -333 q 342 -362 319 -362 q 407 -329 385 -362 q 429 -257 429 -296 q 406 -186 429 -218 q 336 -154 383 -154 q 300 -160 319 -154 q 260 -178 281 -165 l 232 -153 l 396 60 l 429 29 l 322 -108 q 375 -103 346 -103 q 484 -141 436 -103 q 532 -260 532 -179 q 508 -340 532 -303 q 440 -399 483 -376 q 343 -421 397 -421 z "},"ș":{"ha":668,"x_min":75,"x_max":592,"o":"m 317 -19 q 194 1 249 -19 q 107 62 139 22 q 75 154 75 101 q 107 232 75 201 q 190 263 139 263 q 210 259 201 263 q 219 246 219 256 q 211 220 219 238 q 203 168 203 203 q 224 100 203 126 q 275 61 244 74 q 335 49 306 49 q 428 80 392 49 q 465 161 465 111 q 444 217 465 194 q 388 258 422 240 q 314 293 353 276 q 213 342 264 314 q 126 412 161 369 q 92 521 92 454 q 125 619 92 578 q 215 685 158 661 q 344 708 272 708 q 508 670 442 708 q 574 565 574 632 q 541 479 574 514 q 457 444 508 444 q 428 463 428 444 q 438 491 428 474 q 449 540 449 508 q 431 600 449 578 q 387 632 413 622 q 335 642 361 642 q 244 613 276 642 q 213 540 213 585 q 235 476 213 503 q 296 431 258 450 q 375 393 333 411 q 476 347 426 372 q 558 283 525 321 q 592 189 592 246 q 517 38 592 94 q 317 -19 442 -19 m 299 -460 l 258 -433 l 322 -308 q 339 -251 339 -275 q 307 -200 339 -224 l 282 -183 l 275 -150 l 299 -140 q 338 -128 318 -133 q 376 -124 358 -124 q 440 -144 414 -124 q 467 -217 467 -165 q 434 -304 467 -260 q 353 -401 401 -349 l 299 -460 z "},"ß":{"ha":882,"x_min":18,"x_max":857,"o":"m 604 -19 q 444 15 510 -19 q 435 28 439 19 q 432 43 432 36 q 437 67 432 56 q 453 78 442 78 q 482 71 465 78 q 528 57 499 64 q 606 50 557 50 q 665 61 635 50 q 715 97 694 72 q 735 163 735 122 q 698 258 735 218 q 597 331 661 299 l 493 383 q 413 452 440 417 q 385 549 385 488 q 413 632 385 590 q 476 717 440 674 q 539 808 511 761 q 567 908 567 856 q 531 992 567 971 q 453 1014 494 1014 q 351 980 390 1014 q 294 887 313 946 q 276 753 276 828 l 276 279 q 290 144 276 194 q 339 47 304 93 l 357 22 l 339 0 l 35 0 l 18 47 l 50 56 q 121 96 103 71 q 139 185 139 121 l 139 731 q 183 925 139 846 q 306 1045 228 1004 q 486 1086 385 1086 q 633 1042 572 1086 q 693 908 693 999 q 674 834 693 868 q 628 769 656 800 q 574 710 601 739 q 527 651 546 681 q 508 589 508 622 q 582 483 508 521 l 681 433 q 806 340 754 396 q 857 201 857 283 q 825 92 857 143 q 736 11 793 42 q 604 -19 679 -19 z "},"t":{"ha":474,"x_min":15,"x_max":444,"o":"m 257 -19 q 169 16 200 -19 q 138 114 138 51 l 138 603 l 15 603 q 21 651 15 640 q 49 668 26 663 q 133 709 103 682 q 177 771 163 736 q 199 844 192 806 q 213 872 203 867 q 264 878 224 878 l 264 690 l 444 690 q 413 603 444 628 l 264 603 l 264 156 q 276 94 264 113 q 317 76 289 76 q 411 121 358 76 l 438 85 q 351 9 401 38 q 257 -19 301 -19 z "},"ť":{"ha":474,"x_min":15,"x_max":504,"o":"m 257 -19 q 169 16 200 -19 q 138 114 138 51 l 138 603 l 15 603 q 21 651 15 640 q 49 668 26 663 q 133 709 103 682 q 177 771 163 736 q 199 844 192 806 q 213 872 203 867 q 264 878 224 878 l 264 690 l 444 690 q 413 603 444 628 l 264 603 l 264 156 q 276 94 264 113 q 317 76 289 76 q 411 121 358 76 l 438 85 q 351 9 401 38 q 257 -19 301 -19 m 433 808 q 406 835 413 808 q 384 942 394 885 q 368 1050 374 999 q 363 1131 363 1101 q 433 1172 388 1172 q 504 1131 479 1172 q 499 1058 504 1106 q 485 952 494 1011 q 461 835 475 893 q 433 808 454 808 z "},"ț":{"ha":474,"x_min":15,"x_max":444,"o":"m 257 -19 q 169 16 200 -19 q 138 114 138 51 l 138 603 l 15 603 q 21 651 15 640 q 49 668 26 663 q 133 709 103 682 q 177 771 163 736 q 199 844 192 806 q 213 872 203 867 q 264 878 224 878 l 264 690 l 444 690 q 413 603 444 628 l 264 603 l 264 156 q 276 94 264 113 q 317 76 289 76 q 411 121 358 76 l 438 85 q 351 9 401 38 q 257 -19 301 -19 m 174 -449 l 133 -422 l 197 -297 q 214 -240 214 -264 q 182 -189 214 -212 l 157 -172 l 150 -139 l 174 -129 q 213 -117 193 -122 q 251 -112 233 -112 q 315 -133 289 -112 q 342 -206 342 -154 q 309 -293 342 -249 q 228 -390 276 -337 l 174 -449 z "},"u":{"ha":878,"x_min":42,"x_max":850,"o":"m 356 -19 q 199 41 256 -19 q 143 211 143 101 l 143 558 q 115 589 143 589 l 54 589 l 42 625 q 130 685 78 661 q 225 708 182 708 q 257 696 244 708 q 269 664 269 683 l 269 243 q 403 74 269 74 q 548 154 496 74 q 600 376 600 235 q 597 493 600 444 q 582 578 593 542 q 546 647 571 615 l 529 669 l 546 690 l 715 708 l 715 122 q 756 79 715 79 q 824 104 788 79 l 850 68 q 776 5 818 29 q 697 -19 733 -19 q 590 114 590 -19 q 497 17 560 53 q 356 -19 433 -19 z "},"ú":{"ha":878,"x_min":42,"x_max":850,"o":"m 356 -19 q 199 41 256 -19 q 143 211 143 101 l 143 558 q 115 589 143 589 l 54 589 l 42 625 q 130 685 78 661 q 225 708 182 708 q 257 696 244 708 q 269 664 269 683 l 269 243 q 403 74 269 74 q 548 154 496 74 q 600 376 600 235 q 597 493 600 444 q 582 578 593 542 q 546 647 571 615 l 529 669 l 546 690 l 715 708 l 715 122 q 756 79 715 79 q 824 104 788 79 l 850 68 q 776 5 818 29 q 697 -19 733 -19 q 590 114 590 -19 q 497 17 560 53 q 356 -19 433 -19 m 331 790 l 290 839 l 507 1056 q 549 1021 533 1043 q 565 968 565 999 q 548 913 565 938 q 488 868 531 889 l 331 790 z "},"ŭ":{"ha":878,"x_min":42,"x_max":850,"o":"m 356 -19 q 199 41 256 -19 q 143 211 143 101 l 143 558 q 115 589 143 589 l 54 589 l 42 625 q 130 685 78 661 q 225 708 182 708 q 257 696 244 708 q 269 664 269 683 l 269 243 q 403 74 269 74 q 548 154 496 74 q 600 376 600 235 q 597 493 600 444 q 582 578 593 542 q 546 647 571 615 l 529 669 l 546 690 l 715 708 l 715 122 q 756 79 715 79 q 824 104 788 79 l 850 68 q 776 5 818 29 q 697 -19 733 -19 q 590 114 590 -19 q 497 17 560 53 q 356 -19 433 -19 m 428 806 q 304 854 354 806 q 254 1000 254 903 l 331 1000 q 359 935 331 958 q 428 911 388 911 q 496 935 468 911 q 524 1000 524 958 l 600 1000 q 551 854 600 903 q 428 806 501 806 z "},"û":{"ha":878,"x_min":42,"x_max":850,"o":"m 356 -19 q 199 41 256 -19 q 143 211 143 101 l 143 558 q 115 589 143 589 l 54 589 l 42 625 q 130 685 78 661 q 225 708 182 708 q 257 696 244 708 q 269 664 269 683 l 269 243 q 403 74 269 74 q 548 154 496 74 q 600 376 600 235 q 597 493 600 444 q 582 578 593 542 q 546 647 571 615 l 529 669 l 546 690 l 715 708 l 715 122 q 756 79 715 79 q 824 104 788 79 l 850 68 q 776 5 818 29 q 697 -19 733 -19 q 590 114 590 -19 q 497 17 560 53 q 356 -19 433 -19 m 283 790 l 238 829 q 301 928 268 882 q 363 1006 335 974 q 410 1049 392 1039 l 447 1049 q 491 1008 463 1040 q 553 930 519 976 q 618 829 588 883 l 574 790 l 428 906 l 283 790 z "},"ü":{"ha":878,"x_min":42,"x_max":850,"o":"m 356 -19 q 199 41 256 -19 q 143 211 143 101 l 143 558 q 115 589 143 589 l 54 589 l 42 625 q 130 685 78 661 q 225 708 182 708 q 257 696 244 708 q 269 664 269 683 l 269 243 q 403 74 269 74 q 548 154 496 74 q 600 376 600 235 q 597 493 600 444 q 582 578 593 542 q 546 647 571 615 l 529 669 l 546 690 l 715 708 l 715 122 q 756 79 715 79 q 824 104 788 79 l 850 68 q 776 5 818 29 q 697 -19 733 -19 q 590 114 590 -19 q 497 17 560 53 q 356 -19 433 -19 m 557 824 q 522 839 542 824 q 487 875 501 854 q 472 914 472 896 q 487 953 472 932 q 521 990 501 975 q 557 1006 540 1006 q 595 990 575 1006 q 630 953 615 975 q 644 914 644 932 q 630 875 644 896 q 595 839 615 854 q 557 824 575 824 m 294 824 q 259 839 279 824 q 224 875 239 854 q 210 914 210 896 q 224 953 210 932 q 258 990 239 975 q 294 1006 278 1006 q 333 990 313 1006 q 367 953 353 975 q 382 914 382 932 q 367 875 382 896 q 333 839 353 854 q 294 824 313 824 z "},"ù":{"ha":878,"x_min":42,"x_max":850,"o":"m 356 -19 q 199 41 256 -19 q 143 211 143 101 l 143 558 q 115 589 143 589 l 54 589 l 42 625 q 130 685 78 661 q 225 708 182 708 q 257 696 244 708 q 269 664 269 683 l 269 243 q 403 74 269 74 q 548 154 496 74 q 600 376 600 235 q 597 493 600 444 q 582 578 593 542 q 546 647 571 615 l 529 669 l 546 690 l 715 708 l 715 122 q 756 79 715 79 q 824 104 788 79 l 850 68 q 776 5 818 29 q 697 -19 733 -19 q 590 114 590 -19 q 497 17 560 53 q 356 -19 433 -19 m 525 790 l 368 868 q 308 913 325 889 q 290 968 290 938 q 306 1021 290 999 q 349 1056 322 1043 l 565 839 l 525 790 z "},"ű":{"ha":878,"x_min":42,"x_max":850,"o":"m 356 -19 q 199 41 256 -19 q 143 211 143 101 l 143 558 q 115 589 143 589 l 54 589 l 42 625 q 130 685 78 661 q 225 708 182 708 q 257 696 244 708 q 269 664 269 683 l 269 243 q 403 74 269 74 q 548 154 496 74 q 600 376 600 235 q 597 493 600 444 q 582 578 593 542 q 546 647 571 615 l 529 669 l 546 690 l 715 708 l 715 122 q 756 79 715 79 q 824 104 788 79 l 850 68 q 776 5 818 29 q 697 -19 733 -19 q 590 114 590 -19 q 497 17 560 53 q 356 -19 433 -19 m 557 790 l 517 839 l 733 1056 q 776 1021 760 1043 q 792 968 792 999 q 774 913 792 938 q 714 868 757 889 l 557 790 m 269 790 l 229 839 l 446 1056 q 488 1021 472 1043 q 504 968 504 999 q 487 913 504 938 q 426 868 469 889 l 269 790 z "},"ū":{"ha":878,"x_min":42,"x_max":850,"o":"m 356 -19 q 199 41 256 -19 q 143 211 143 101 l 143 558 q 115 589 143 589 l 54 589 l 42 625 q 130 685 78 661 q 225 708 182 708 q 257 696 244 708 q 269 664 269 683 l 269 243 q 403 74 269 74 q 548 154 496 74 q 600 376 600 235 q 597 493 600 444 q 582 578 593 542 q 546 647 571 615 l 529 669 l 546 690 l 715 708 l 715 122 q 756 79 715 79 q 824 104 788 79 l 850 68 q 776 5 818 29 q 697 -19 733 -19 q 590 114 590 -19 q 497 17 560 53 q 356 -19 433 -19 m 222 857 q 231 917 222 885 q 258 968 239 950 l 632 968 q 624 908 632 940 q 596 857 617 875 l 222 857 z "},"ų":{"ha":878,"x_min":42,"x_max":919,"o":"m 356 -19 q 199 41 256 -19 q 143 211 143 101 l 143 558 q 115 589 143 589 l 54 589 l 42 625 q 130 685 78 661 q 225 708 182 708 q 257 696 244 708 q 269 664 269 683 l 269 243 q 403 74 269 74 q 548 154 496 74 q 600 376 600 235 q 597 493 600 444 q 582 578 593 542 q 546 647 571 615 l 529 669 l 546 690 l 715 708 l 715 122 q 756 79 715 79 q 824 104 788 79 l 850 68 q 776 5 818 29 q 697 -19 733 -19 q 590 114 590 -19 q 497 17 560 53 q 356 -19 433 -19 m 643 -412 q 526 -372 575 -412 q 476 -254 476 -331 q 547 -96 476 -169 q 754 68 618 -22 l 790 14 q 634 -120 681 -58 q 588 -231 588 -182 q 612 -299 588 -276 q 672 -321 636 -321 q 772 -289 717 -321 q 872 -194 826 -257 l 919 -237 q 785 -369 857 -326 q 643 -412 713 -412 z "},"ů":{"ha":878,"x_min":42,"x_max":850,"o":"m 356 -19 q 199 41 256 -19 q 143 211 143 101 l 143 558 q 115 589 143 589 l 54 589 l 42 625 q 130 685 78 661 q 225 708 182 708 q 257 696 244 708 q 269 664 269 683 l 269 243 q 403 74 269 74 q 548 154 496 74 q 600 376 600 235 q 597 493 600 444 q 582 578 593 542 q 546 647 571 615 l 529 669 l 546 690 l 715 708 l 715 122 q 756 79 715 79 q 824 104 788 79 l 850 68 q 776 5 818 29 q 697 -19 733 -19 q 590 114 590 -19 q 497 17 560 53 q 356 -19 433 -19 m 425 767 q 309 809 349 767 q 269 914 269 851 q 309 1019 269 976 q 425 1063 349 1063 q 545 1019 506 1063 q 585 914 585 976 q 545 809 585 851 q 425 767 506 767 m 425 833 q 471 857 456 833 q 486 914 486 881 q 471 971 486 947 q 425 994 456 994 q 382 971 397 994 q 367 914 367 947 q 382 857 367 881 q 425 833 397 833 z "},"v":{"ha":768,"x_min":0,"x_max":678,"o":"m 372 -19 q 257 8 301 -19 q 186 97 213 35 q 144 264 160 158 l 101 558 q 93 583 99 576 q 74 589 88 589 l 13 589 l 0 625 q 86 685 36 661 q 175 708 136 708 q 219 664 213 708 l 282 231 q 318 108 294 146 q 388 71 342 71 q 488 119 449 71 q 545 246 526 168 q 564 408 564 324 q 549 536 564 474 q 503 649 535 599 l 489 671 l 506 689 l 671 708 q 676 633 674 669 q 678 561 678 596 q 635 240 678 369 q 522 46 592 111 q 372 -19 453 -19 z "},"w":{"ha":1129,"x_min":0,"x_max":1046,"o":"m 372 -19 q 257 8 301 -19 q 186 97 213 35 q 144 264 160 158 l 101 558 q 93 583 99 576 q 74 589 88 589 l 13 589 l 0 625 q 86 685 36 661 q 175 708 136 708 q 219 664 213 708 l 282 231 q 318 108 294 146 q 388 71 342 71 q 468 120 435 71 q 520 247 501 169 q 539 410 539 325 q 524 538 539 475 q 478 650 510 600 l 464 672 l 481 690 l 643 708 q 648 633 646 669 q 650 561 650 596 q 648 491 650 525 q 643 425 646 457 l 672 231 q 710 108 685 146 q 783 71 735 71 q 864 120 831 71 q 916 247 897 169 q 935 410 935 325 q 920 538 935 475 q 874 650 906 600 l 860 672 l 876 690 l 1039 708 q 1044 633 1042 669 q 1046 561 1046 596 q 1008 240 1046 369 q 907 46 969 111 q 774 -19 844 -19 q 648 20 693 -19 q 578 156 603 60 q 485 24 539 68 q 372 -19 432 -19 z "},"ẃ":{"ha":1129,"x_min":0,"x_max":1046,"o":"m 372 -19 q 257 8 301 -19 q 186 97 213 35 q 144 264 160 158 l 101 558 q 93 583 99 576 q 74 589 88 589 l 13 589 l 0 625 q 86 685 36 661 q 175 708 136 708 q 219 664 213 708 l 282 231 q 318 108 294 146 q 388 71 342 71 q 468 120 435 71 q 520 247 501 169 q 539 410 539 325 q 524 538 539 475 q 478 650 510 600 l 464 672 l 481 690 l 643 708 q 648 633 646 669 q 650 561 650 596 q 648 491 650 525 q 643 425 646 457 l 672 231 q 710 108 685 146 q 783 71 735 71 q 864 120 831 71 q 916 247 897 169 q 935 410 935 325 q 920 538 935 475 q 874 650 906 600 l 860 672 l 876 690 l 1039 708 q 1044 633 1042 669 q 1046 561 1046 596 q 1008 240 1046 369 q 907 46 969 111 q 774 -19 844 -19 q 648 20 693 -19 q 578 156 603 60 q 485 24 539 68 q 372 -19 432 -19 m 468 790 l 428 839 l 644 1056 q 687 1021 671 1043 q 703 968 703 999 q 685 913 703 938 q 625 868 668 889 l 468 790 z "},"ŵ":{"ha":1129,"x_min":0,"x_max":1046,"o":"m 372 -19 q 257 8 301 -19 q 186 97 213 35 q 144 264 160 158 l 101 558 q 93 583 99 576 q 74 589 88 589 l 13 589 l 0 625 q 86 685 36 661 q 175 708 136 708 q 219 664 213 708 l 282 231 q 318 108 294 146 q 388 71 342 71 q 468 120 435 71 q 520 247 501 169 q 539 410 539 325 q 524 538 539 475 q 478 650 510 600 l 464 672 l 481 690 l 643 708 q 648 633 646 669 q 650 561 650 596 q 648 491 650 525 q 643 425 646 457 l 672 231 q 710 108 685 146 q 783 71 735 71 q 864 120 831 71 q 916 247 897 169 q 935 410 935 325 q 920 538 935 475 q 874 650 906 600 l 860 672 l 876 690 l 1039 708 q 1044 633 1042 669 q 1046 561 1046 596 q 1008 240 1046 369 q 907 46 969 111 q 774 -19 844 -19 q 648 20 693 -19 q 578 156 603 60 q 485 24 539 68 q 372 -19 432 -19 m 421 790 l 375 829 q 439 928 406 882 q 501 1006 472 974 q 547 1049 529 1039 l 585 1049 q 628 1008 600 1040 q 691 930 657 976 q 756 829 725 883 l 711 790 l 565 906 l 421 790 z "},"ẅ":{"ha":1129,"x_min":0,"x_max":1046,"o":"m 372 -19 q 257 8 301 -19 q 186 97 213 35 q 144 264 160 158 l 101 558 q 93 583 99 576 q 74 589 88 589 l 13 589 l 0 625 q 86 685 36 661 q 175 708 136 708 q 219 664 213 708 l 282 231 q 318 108 294 146 q 388 71 342 71 q 468 120 435 71 q 520 247 501 169 q 539 410 539 325 q 524 538 539 475 q 478 650 510 600 l 464 672 l 481 690 l 643 708 q 648 633 646 669 q 650 561 650 596 q 648 491 650 525 q 643 425 646 457 l 672 231 q 710 108 685 146 q 783 71 735 71 q 864 120 831 71 q 916 247 897 169 q 935 410 935 325 q 920 538 935 475 q 874 650 906 600 l 860 672 l 876 690 l 1039 708 q 1044 633 1042 669 q 1046 561 1046 596 q 1008 240 1046 369 q 907 46 969 111 q 774 -19 844 -19 q 648 20 693 -19 q 578 156 603 60 q 485 24 539 68 q 372 -19 432 -19 m 694 824 q 659 839 679 824 q 624 875 639 854 q 610 914 610 896 q 624 953 610 932 q 658 990 639 975 q 694 1006 678 1006 q 733 990 713 1006 q 767 953 753 975 q 782 914 782 932 q 767 875 782 896 q 733 839 753 854 q 694 824 713 824 m 432 824 q 397 839 417 824 q 362 875 376 854 q 347 914 347 896 q 362 953 347 932 q 396 990 376 975 q 432 1006 415 1006 q 470 990 450 1006 q 505 953 490 975 q 519 914 519 932 q 505 875 519 896 q 470 839 490 854 q 432 824 450 824 z "},"ẁ":{"ha":1129,"x_min":0,"x_max":1046,"o":"m 372 -19 q 257 8 301 -19 q 186 97 213 35 q 144 264 160 158 l 101 558 q 93 583 99 576 q 74 589 88 589 l 13 589 l 0 625 q 86 685 36 661 q 175 708 136 708 q 219 664 213 708 l 282 231 q 318 108 294 146 q 388 71 342 71 q 468 120 435 71 q 520 247 501 169 q 539 410 539 325 q 524 538 539 475 q 478 650 510 600 l 464 672 l 481 690 l 643 708 q 648 633 646 669 q 650 561 650 596 q 648 491 650 525 q 643 425 646 457 l 672 231 q 710 108 685 146 q 783 71 735 71 q 864 120 831 71 q 916 247 897 169 q 935 410 935 325 q 920 538 935 475 q 874 650 906 600 l 860 672 l 876 690 l 1039 708 q 1044 633 1042 669 q 1046 561 1046 596 q 1008 240 1046 369 q 907 46 969 111 q 774 -19 844 -19 q 648 20 693 -19 q 578 156 603 60 q 485 24 539 68 q 372 -19 432 -19 m 663 790 l 506 868 q 445 913 463 889 q 428 968 428 938 q 444 1021 428 999 q 486 1056 460 1043 l 703 839 l 663 790 z "},"x":{"ha":768,"x_min":28,"x_max":740,"o":"m 611 -19 q 463 78 518 -19 l 350 269 q 263 160 297 208 q 228 88 228 111 q 235 63 228 74 q 254 43 243 53 l 281 21 l 264 0 l 49 0 l 33 29 q 110 106 64 60 q 212 208 157 153 q 321 321 267 264 l 169 582 q 142 613 156 606 q 111 621 129 621 q 58 603 86 621 l 28 644 q 92 694 60 679 q 157 708 124 708 q 306 611 250 708 l 414 422 q 501 532 467 483 q 536 603 536 581 q 528 628 536 618 q 510 647 521 638 l 483 669 l 500 690 l 715 690 l 731 661 q 654 584 701 631 q 553 483 607 538 q 444 371 499 428 l 599 107 q 626 76 613 85 q 657 68 639 68 q 710 86 683 68 l 740 44 q 676 -5 708 10 q 611 -19 644 -19 z "},"y":{"ha":847,"x_min":42,"x_max":713,"o":"m 404 -386 q 271 -357 324 -386 q 192 -282 218 -328 q 167 -187 167 -236 q 187 -106 167 -144 q 247 -44 207 -68 q 343 -19 286 -19 q 364 -24 358 -19 q 369 -35 369 -29 q 353 -59 369 -43 q 319 -104 336 -75 q 301 -185 301 -133 q 333 -276 301 -237 q 422 -314 365 -314 q 519 -280 482 -314 q 572 -187 556 -246 q 589 -53 589 -128 l 589 153 q 494 57 557 93 q 353 21 431 21 q 199 81 254 21 q 143 251 143 142 l 143 560 q 115 590 143 590 l 54 590 l 42 626 q 130 686 78 663 q 225 710 182 710 q 257 697 244 710 q 269 665 269 685 l 269 283 q 400 114 269 114 q 545 184 493 114 q 597 378 597 254 q 594 494 597 446 q 579 580 590 543 q 543 649 568 617 l 526 671 l 543 692 l 713 710 l 713 -31 q 628 -294 713 -203 q 404 -386 544 -386 z "},"ý":{"ha":847,"x_min":42,"x_max":713,"o":"m 404 -386 q 271 -357 324 -386 q 192 -282 218 -328 q 167 -187 167 -236 q 187 -106 167 -144 q 247 -44 207 -68 q 343 -19 286 -19 q 364 -24 358 -19 q 369 -35 369 -29 q 353 -59 369 -43 q 319 -104 336 -75 q 301 -185 301 -133 q 333 -276 301 -237 q 422 -314 365 -314 q 519 -280 482 -314 q 572 -187 556 -246 q 589 -53 589 -128 l 589 153 q 494 57 557 93 q 353 21 431 21 q 199 81 254 21 q 143 251 143 142 l 143 560 q 115 590 143 590 l 54 590 l 42 626 q 130 686 78 663 q 225 710 182 710 q 257 697 244 710 q 269 665 269 685 l 269 283 q 400 114 269 114 q 545 184 493 114 q 597 378 597 254 q 594 494 597 446 q 579 580 590 543 q 543 649 568 617 l 526 671 l 543 692 l 713 710 l 713 -31 q 628 -294 713 -203 q 404 -386 544 -386 m 326 790 l 286 839 l 503 1056 q 545 1021 529 1043 q 561 968 561 999 q 544 913 561 938 q 483 868 526 889 l 326 790 z "},"ŷ":{"ha":847,"x_min":42,"x_max":713,"o":"m 404 -386 q 271 -357 324 -386 q 192 -282 218 -328 q 167 -187 167 -236 q 187 -106 167 -144 q 247 -44 207 -68 q 343 -19 286 -19 q 364 -24 358 -19 q 369 -35 369 -29 q 353 -59 369 -43 q 319 -104 336 -75 q 301 -185 301 -133 q 333 -276 301 -237 q 422 -314 365 -314 q 519 -280 482 -314 q 572 -187 556 -246 q 589 -53 589 -128 l 589 153 q 494 57 557 93 q 353 21 431 21 q 199 81 254 21 q 143 251 143 142 l 143 560 q 115 590 143 590 l 54 590 l 42 626 q 130 686 78 663 q 225 710 182 710 q 257 697 244 710 q 269 665 269 685 l 269 283 q 400 114 269 114 q 545 184 493 114 q 597 378 597 254 q 594 494 597 446 q 579 580 590 543 q 543 649 568 617 l 526 671 l 543 692 l 713 710 l 713 -31 q 628 -294 713 -203 q 404 -386 544 -386 m 279 790 l 233 829 q 297 928 264 882 q 359 1006 331 974 q 406 1049 388 1039 l 443 1049 q 487 1008 458 1040 q 549 930 515 976 q 614 829 583 883 l 569 790 l 424 906 l 279 790 z "},"ÿ":{"ha":847,"x_min":42,"x_max":713,"o":"m 404 -386 q 271 -357 324 -386 q 192 -282 218 -328 q 167 -187 167 -236 q 187 -106 167 -144 q 247 -44 207 -68 q 343 -19 286 -19 q 364 -24 358 -19 q 369 -35 369 -29 q 353 -59 369 -43 q 319 -104 336 -75 q 301 -185 301 -133 q 333 -276 301 -237 q 422 -314 365 -314 q 519 -280 482 -314 q 572 -187 556 -246 q 589 -53 589 -128 l 589 153 q 494 57 557 93 q 353 21 431 21 q 199 81 254 21 q 143 251 143 142 l 143 560 q 115 590 143 590 l 54 590 l 42 626 q 130 686 78 663 q 225 710 182 710 q 257 697 244 710 q 269 665 269 685 l 269 283 q 400 114 269 114 q 545 184 493 114 q 597 378 597 254 q 594 494 597 446 q 579 580 590 543 q 543 649 568 617 l 526 671 l 543 692 l 713 710 l 713 -31 q 628 -294 713 -203 q 404 -386 544 -386 m 553 824 q 517 839 538 824 q 483 875 497 854 q 468 914 468 896 q 483 953 468 932 q 517 990 497 975 q 553 1006 536 1006 q 591 990 571 1006 q 626 953 611 975 q 640 914 640 932 q 626 875 640 896 q 591 839 611 854 q 553 824 571 824 m 290 824 q 255 839 275 824 q 220 875 235 854 q 206 914 206 896 q 220 953 206 932 q 254 990 235 975 q 290 1006 274 1006 q 328 990 308 1006 q 363 953 349 975 q 378 914 378 932 q 363 875 378 896 q 328 839 349 854 q 290 824 308 824 z "},"ỳ":{"ha":847,"x_min":42,"x_max":713,"o":"m 404 -386 q 271 -357 324 -386 q 192 -282 218 -328 q 167 -187 167 -236 q 187 -106 167 -144 q 247 -44 207 -68 q 343 -19 286 -19 q 364 -24 358 -19 q 369 -35 369 -29 q 353 -59 369 -43 q 319 -104 336 -75 q 301 -185 301 -133 q 333 -276 301 -237 q 422 -314 365 -314 q 519 -280 482 -314 q 572 -187 556 -246 q 589 -53 589 -128 l 589 153 q 494 57 557 93 q 353 21 431 21 q 199 81 254 21 q 143 251 143 142 l 143 560 q 115 590 143 590 l 54 590 l 42 626 q 130 686 78 663 q 225 710 182 710 q 257 697 244 710 q 269 665 269 685 l 269 283 q 400 114 269 114 q 545 184 493 114 q 597 378 597 254 q 594 494 597 446 q 579 580 590 543 q 543 649 568 617 l 526 671 l 543 692 l 713 710 l 713 -31 q 628 -294 713 -203 q 404 -386 544 -386 m 521 790 l 364 868 q 303 913 321 889 q 286 968 286 938 q 302 1021 286 999 q 344 1056 318 1043 l 561 839 l 521 790 z "},"z":{"ha":665,"x_min":46,"x_max":619,"o":"m 582 -33 q 516 -7 551 -14 q 417 0 481 0 l 61 0 l 46 43 l 436 610 l 228 610 q 154 599 176 610 q 124 551 132 588 l 107 478 l 64 493 l 64 707 l 81 724 q 147 697 111 704 q 246 690 182 690 l 592 690 q 619 631 619 667 l 582 608 l 217 81 l 435 81 q 509 92 488 81 q 539 139 531 104 l 556 213 l 599 197 l 599 -17 l 582 -33 z "},"ź":{"ha":665,"x_min":46,"x_max":619,"o":"m 582 -33 q 516 -7 551 -14 q 417 0 481 0 l 61 0 l 46 43 l 436 610 l 228 610 q 154 599 176 610 q 124 551 132 588 l 107 478 l 64 493 l 64 707 l 81 724 q 147 697 111 704 q 246 690 182 690 l 592 690 q 619 631 619 667 l 582 608 l 217 81 l 435 81 q 509 92 488 81 q 539 139 531 104 l 556 213 l 599 197 l 599 -17 l 582 -33 m 243 790 l 203 839 l 419 1056 q 462 1021 446 1043 q 478 968 478 999 q 460 913 478 938 q 400 868 443 889 l 243 790 z "},"ž":{"ha":665,"x_min":46,"x_max":619,"o":"m 582 -33 q 516 -7 551 -14 q 417 0 481 0 l 61 0 l 46 43 l 436 610 l 228 610 q 154 599 176 610 q 124 551 132 588 l 107 478 l 64 493 l 64 707 l 81 724 q 147 697 111 704 q 246 690 182 690 l 592 690 q 619 631 619 667 l 582 608 l 217 81 l 435 81 q 509 92 488 81 q 539 139 531 104 l 556 213 l 599 197 l 599 -17 l 582 -33 m 322 803 q 276 846 304 814 q 214 924 247 878 q 150 1022 181 969 l 196 1061 l 340 944 l 486 1061 l 531 1022 q 466 922 500 968 q 403 844 432 875 q 360 803 375 813 l 322 803 z "},"ż":{"ha":665,"x_min":46,"x_max":619,"o":"m 582 -33 q 516 -7 551 -14 q 417 0 481 0 l 61 0 l 46 43 l 436 610 l 228 610 q 154 599 176 610 q 124 551 132 588 l 107 478 l 64 493 l 64 707 l 81 724 q 147 697 111 704 q 246 690 182 690 l 592 690 q 619 631 619 667 l 582 608 l 217 81 l 435 81 q 509 92 488 81 q 539 139 531 104 l 556 213 l 599 197 l 599 -17 l 582 -33 m 339 824 q 303 839 324 824 q 269 875 283 854 q 254 914 254 896 q 269 953 254 932 q 303 990 283 975 q 339 1006 322 1006 q 377 990 357 1006 q 412 953 397 975 q 426 914 426 932 q 412 875 426 896 q 377 839 397 854 q 339 824 357 824 z "},"ﬁ":{"ha":856,"x_min":-146,"x_max":807,"o":"m 26 -331 q -96 -293 -46 -331 q -146 -189 -146 -256 q -108 -100 -146 -136 q -10 -64 -69 -64 q 17 -79 17 -64 q 7 -96 17 -85 q -12 -126 -3 -107 q -22 -179 -22 -146 q 0 -247 -22 -222 q 54 -271 22 -271 q 122 -236 93 -271 q 151 -125 151 -201 l 151 603 l 29 603 q 35 651 29 640 q 63 668 40 663 l 156 690 q 206 899 167 810 q 316 1037 246 988 q 488 1086 386 1086 q 636 1043 578 1086 q 694 932 694 1000 q 656 834 694 872 q 558 796 617 796 q 532 811 532 796 q 540 829 532 818 q 557 863 549 840 q 565 925 565 886 q 541 997 565 969 q 472 1024 517 1024 q 359 982 403 1024 q 296 865 315 940 q 276 690 276 790 l 517 690 q 580 695 556 690 q 626 708 604 700 q 658 696 646 708 q 669 664 669 683 l 669 122 q 711 75 669 75 q 781 104 746 75 l 807 68 q 729 4 771 28 q 651 -19 688 -19 q 569 15 594 -19 q 544 128 544 50 l 544 572 q 517 603 544 603 l 276 603 l 276 -18 q 215 -244 276 -157 q 26 -331 154 -331 z "},"ﬂ":{"ha":869,"x_min":-146,"x_max":849,"o":"m 26 -331 q -96 -293 -46 -331 q -146 -189 -146 -256 q -108 -100 -146 -136 q -10 -64 -69 -64 q 17 -79 17 -64 q 7 -96 17 -85 q -12 -126 -3 -107 q -22 -179 -22 -146 q 0 -247 -22 -222 q 54 -271 22 -271 q 122 -236 93 -271 q 151 -125 151 -201 l 151 603 l 29 603 q 35 651 29 640 q 63 668 40 663 l 156 690 q 203 899 165 810 q 308 1037 242 988 q 468 1086 374 1086 q 539 1074 506 1086 q 599 1043 572 1063 q 647 1071 624 1061 q 683 1081 671 1081 q 707 1068 703 1081 q 711 1036 711 1056 l 711 122 q 753 75 711 75 q 822 104 788 75 l 849 68 q 771 4 813 28 q 693 -19 729 -19 q 611 15 636 -19 q 586 128 586 50 l 586 861 q 554 977 586 931 q 451 1024 522 1024 q 350 982 389 1024 q 294 865 311 940 q 276 690 276 790 l 471 690 q 439 603 471 628 l 276 603 l 276 -18 q 215 -244 276 -157 q 26 -331 154 -331 z "},"ª":{"ha":553,"x_min":63,"x_max":539,"o":"m 197 501 q 101 537 139 501 q 63 628 63 572 q 117 740 63 699 q 264 781 171 781 q 298 780 279 781 q 339 775 317 779 l 339 854 q 272 957 339 957 q 197 851 197 957 q 142 831 172 831 q 103 845 119 831 q 88 883 88 860 q 113 949 88 919 q 181 997 139 979 q 272 1015 222 1015 q 403 972 363 1015 q 443 836 443 929 l 443 607 q 463 583 443 583 q 513 604 482 583 l 539 568 q 480 519 511 538 q 421 501 449 501 q 340 575 350 501 q 281 521 318 540 q 197 501 243 501 m 238 578 q 310 617 282 578 q 339 719 338 657 q 317 724 331 722 q 285 725 303 725 q 175 642 175 725 q 238 578 175 578 z "},"º":{"ha":604,"x_min":56,"x_max":549,"o":"m 301 501 q 122 572 188 501 q 56 758 56 642 q 122 946 56 876 q 301 1015 188 1015 q 482 946 415 1015 q 549 758 549 876 q 482 572 549 642 q 301 501 415 501 m 308 567 q 397 616 364 567 q 429 750 429 665 q 392 897 429 840 q 293 953 354 953 q 206 901 238 953 q 174 758 174 849 q 212 619 174 672 q 308 567 250 567 z "},"А":{"ha":981,"x_min":-22,"x_max":965,"o":"m -6 0 l -22 47 l 10 56 q 69 79 47 65 q 108 117 92 93 q 138 185 124 142 l 356 813 q 367 851 363 835 q 371 881 371 867 q 356 920 371 907 q 308 942 340 933 l 276 950 l 293 997 l 561 997 l 840 192 q 874 117 857 146 q 914 67 892 88 q 965 22 936 46 l 947 0 l 635 0 l 618 47 l 650 56 q 697 77 682 64 q 713 117 713 90 q 708 147 713 131 q 697 185 704 163 l 631 379 l 310 379 l 276 278 q 253 196 261 231 q 244 132 244 161 q 264 47 244 85 l 276 22 l 250 0 l -6 0 m 339 465 l 601 465 l 468 854 l 339 465 z "},"Б":{"ha":864,"x_min":56,"x_max":821,"o":"m 74 0 l 56 47 l 88 56 q 142 79 122 67 q 169 116 161 92 q 176 185 176 140 l 176 718 q 163 853 176 801 q 115 950 149 904 l 97 975 l 115 997 l 540 997 q 639 1003 600 997 q 697 1025 678 1010 l 722 1043 l 746 1025 l 746 779 l 697 763 l 690 794 q 660 872 676 844 q 615 909 643 899 q 539 919 588 919 l 403 919 q 332 899 349 919 q 315 813 315 878 l 315 254 q 331 151 315 189 q 372 97 347 114 q 422 76 396 81 q 468 72 447 72 q 622 136 568 72 q 676 299 676 200 q 649 407 676 358 q 574 485 622 456 q 458 514 525 514 q 397 508 415 514 q 364 501 378 501 q 349 511 354 501 q 344 533 344 521 q 386 571 344 560 q 479 582 428 582 q 661 542 585 582 q 779 435 738 501 q 821 292 821 369 q 786 141 821 207 q 673 38 751 75 q 461 0 594 0 l 74 0 z "},"В":{"ha":904,"x_min":56,"x_max":828,"o":"m 79 0 l 63 47 l 94 56 q 165 96 147 71 q 183 185 183 121 l 183 871 q 153 904 183 904 l 72 904 l 56 956 q 148 983 92 969 q 270 1007 204 997 q 400 1017 336 1017 q 617 980 535 1017 q 738 881 700 943 q 776 743 776 818 q 741 606 776 669 q 631 506 706 542 q 776 412 725 475 q 828 274 828 349 q 792 133 828 194 q 678 35 757 71 q 467 0 599 0 l 79 0 m 475 72 q 629 131 575 72 q 683 281 683 190 q 657 377 683 333 q 581 447 631 421 q 463 474 532 474 q 413 479 438 474 q 372 492 388 485 q 356 506 361 497 q 351 522 351 514 q 371 547 351 547 q 394 542 379 547 q 440 538 408 538 q 588 594 536 538 q 639 740 639 651 q 582 882 639 825 q 414 939 525 939 q 353 928 372 939 q 327 903 333 918 q 321 875 321 888 l 321 254 q 337 152 321 189 q 378 98 353 115 q 428 76 403 81 q 475 72 454 72 z "},"Г":{"ha":707,"x_min":56,"x_max":689,"o":"m 74 0 l 56 22 l 74 47 q 122 144 107 94 q 138 279 138 194 l 138 718 q 122 852 138 801 q 74 950 107 903 l 56 975 l 74 997 l 483 997 q 640 1025 600 997 l 667 1043 l 689 1025 l 689 779 l 640 763 l 633 794 q 606 872 622 846 q 560 909 589 899 q 482 919 532 919 l 363 919 q 291 899 308 919 q 274 813 274 878 l 274 185 q 281 116 274 140 q 308 79 289 92 q 363 56 328 67 l 396 47 l 379 0 l 74 0 z "},"Ѓ":{"ha":707,"x_min":56,"x_max":689,"o":"m 74 0 l 56 22 l 74 47 q 122 144 107 94 q 138 279 138 194 l 138 718 q 122 852 138 801 q 74 950 107 903 l 56 975 l 74 997 l 483 997 q 640 1025 600 997 l 667 1043 l 689 1025 l 689 779 l 640 763 l 633 794 q 606 872 622 846 q 560 909 589 899 q 482 919 532 919 l 363 919 q 291 899 308 919 q 274 813 274 878 l 274 185 q 281 116 274 140 q 308 79 289 92 q 363 56 328 67 l 396 47 l 379 0 l 74 0 m 385 1097 l 344 1146 l 561 1363 q 603 1328 588 1350 q 619 1275 619 1306 q 602 1220 619 1244 q 542 1175 585 1196 l 385 1097 z "},"Ґ":{"ha":726,"x_min":56,"x_max":708,"o":"m 74 0 l 56 22 l 74 47 q 124 143 110 93 q 139 279 139 193 l 139 718 q 124 852 139 801 q 74 950 110 903 l 56 975 l 74 997 l 447 997 q 549 1021 511 997 q 611 1092 588 1044 q 653 1213 635 1140 l 661 1244 l 708 1228 l 708 889 l 686 871 l 661 889 q 602 912 639 904 q 504 919 565 919 l 363 919 q 292 899 310 919 q 275 813 275 878 l 275 185 q 293 95 275 121 q 363 56 311 69 l 396 47 l 379 0 l 74 0 z "},"Ӷ":{"ha":707,"x_min":56,"x_max":689,"o":"m 74 0 l 56 22 l 74 47 q 122 144 107 94 q 138 279 138 194 l 138 718 q 122 852 138 801 q 74 950 107 903 l 56 975 l 74 997 l 483 997 q 640 1025 600 997 l 667 1043 l 689 1025 l 689 779 l 640 763 l 633 794 q 606 872 622 846 q 560 909 589 899 q 482 919 532 919 l 363 919 q 291 899 308 919 q 274 813 274 878 l 274 185 q 275 146 274 163 l 276 146 q 299 96 276 115 q 355 67 321 76 q 426 58 389 58 l 426 -251 l 378 -268 l 369 -235 q 322 -103 346 -156 q 263 -26 299 -51 q 164 0 226 0 l 74 0 z "},"Ғ":{"ha":707,"x_min":24,"x_max":689,"o":"m 74 0 l 56 22 l 74 47 q 122 144 107 94 q 138 279 138 194 l 138 718 q 122 852 138 801 q 74 950 107 903 l 56 975 l 74 997 l 483 997 q 640 1025 600 997 l 667 1043 l 689 1025 l 689 779 l 640 763 l 633 794 q 606 872 622 846 q 560 909 589 899 q 482 919 532 919 l 363 919 q 291 899 308 919 q 274 813 274 878 l 274 185 q 281 116 274 140 q 308 79 289 92 q 363 56 328 67 l 396 47 l 379 0 l 74 0 m 24 460 q 29 502 24 479 q 51 538 35 525 l 446 538 q 440 496 446 518 q 418 460 435 474 l 24 460 z "},"Ҕ":{"ha":836,"x_min":56,"x_max":800,"o":"m 74 0 l 56 22 l 74 47 q 122 144 107 94 q 138 279 138 194 l 138 718 q 123 852 138 801 q 74 950 108 903 l 56 975 l 74 997 l 483 997 q 583 1004 544 997 q 640 1025 621 1011 l 667 1043 l 689 1025 l 689 779 l 640 763 l 633 794 q 606 872 622 846 q 560 909 589 899 q 482 919 532 919 l 363 919 q 291 899 308 919 q 274 813 274 878 l 274 561 q 366 584 318 576 q 476 592 414 592 q 657 544 585 592 q 765 419 729 497 q 800 251 800 342 q 783 126 800 189 q 731 10 765 63 q 644 -74 696 -42 q 524 -106 593 -106 q 442 -83 468 -106 q 415 -31 415 -61 q 432 0 415 0 q 458 -10 444 0 q 507 -21 471 -21 q 590 19 557 -21 q 640 117 624 58 q 657 236 657 176 q 633 370 657 308 q 559 471 608 432 q 435 510 510 510 q 341 498 381 510 q 274 469 301 486 l 274 185 q 283 94 274 118 q 321 56 293 71 l 354 47 l 338 0 l 74 0 z "},"Д":{"ha":940,"x_min":1,"x_max":951,"o":"m 49 -268 l 1 -251 l 1 60 q 143 129 90 72 q 224 285 196 186 q 267 519 253 383 q 293 826 282 656 q 269 908 296 883 q 201 942 242 932 l 171 950 l 188 997 l 865 997 l 881 975 l 865 950 q 815 853 831 904 q 800 718 800 801 l 800 146 q 822 96 800 115 q 879 67 844 76 q 951 58 914 58 l 951 -251 l 904 -268 l 896 -235 q 853 -108 876 -161 q 791 -28 829 -56 q 689 0 753 0 l 264 0 q 163 -28 201 0 q 101 -108 125 -56 q 56 -235 76 -161 l 49 -268 m 193 79 l 574 79 q 647 99 629 79 q 664 185 664 118 l 664 813 q 647 899 664 878 q 574 919 629 919 l 489 919 q 426 909 450 919 q 400 864 403 899 q 332 331 378 525 q 193 79 286 136 z "},"Е":{"ha":847,"x_min":63,"x_max":760,"o":"m 732 -35 l 721 -19 q 663 0 706 0 l 78 0 l 63 44 l 92 53 q 159 91 142 68 q 176 175 176 114 l 176 718 q 162 853 176 803 q 114 950 147 903 l 96 975 l 114 997 l 539 997 q 697 1026 658 997 l 722 1044 l 744 1026 l 744 779 l 697 763 l 689 794 q 660 871 676 844 q 615 908 643 897 q 538 918 588 918 l 403 918 q 331 898 349 918 q 314 813 314 878 l 314 546 l 490 546 q 548 560 522 546 q 600 610 574 574 l 611 625 l 639 610 l 639 372 l 592 356 l 583 388 q 538 451 571 436 q 432 467 506 467 l 314 467 l 314 185 q 331 100 314 121 q 403 79 349 79 l 553 79 q 631 90 603 79 q 675 127 658 100 q 704 203 692 154 l 713 235 l 760 218 l 760 -19 l 732 -35 z "},"Ѐ":{"ha":847,"x_min":63,"x_max":760,"o":"m 732 -35 l 721 -19 q 663 0 706 0 l 78 0 l 63 44 l 92 53 q 159 91 142 68 q 176 175 176 114 l 176 718 q 162 853 176 803 q 114 950 147 903 l 96 975 l 114 997 l 539 997 q 697 1026 658 997 l 722 1044 l 744 1026 l 744 779 l 697 763 l 689 794 q 660 871 676 844 q 615 908 643 897 q 538 918 588 918 l 403 918 q 331 898 349 918 q 314 813 314 878 l 314 546 l 490 546 q 548 560 522 546 q 600 610 574 574 l 611 625 l 639 610 l 639 372 l 592 356 l 583 388 q 538 451 571 436 q 432 467 506 467 l 314 467 l 314 185 q 331 100 314 121 q 403 79 349 79 l 553 79 q 631 90 603 79 q 675 127 658 100 q 704 203 692 154 l 713 235 l 760 218 l 760 -19 l 732 -35 m 533 1097 l 376 1175 q 316 1220 333 1196 q 299 1275 299 1244 q 315 1328 299 1306 q 357 1363 331 1350 l 574 1146 l 533 1097 z "},"Ё":{"ha":847,"x_min":63,"x_max":760,"o":"m 732 -35 l 721 -19 q 663 0 706 0 l 78 0 l 63 44 l 92 53 q 159 91 142 68 q 176 175 176 114 l 176 718 q 162 853 176 803 q 114 950 147 903 l 96 975 l 114 997 l 539 997 q 697 1026 658 997 l 722 1044 l 744 1026 l 744 779 l 697 763 l 689 794 q 660 871 676 844 q 615 908 643 897 q 538 918 588 918 l 403 918 q 331 898 349 918 q 314 813 314 878 l 314 546 l 490 546 q 548 560 522 546 q 600 610 574 574 l 611 625 l 639 610 l 639 372 l 592 356 l 583 388 q 538 451 571 436 q 432 467 506 467 l 314 467 l 314 185 q 331 100 314 121 q 403 79 349 79 l 553 79 q 631 90 603 79 q 675 127 658 100 q 704 203 692 154 l 713 235 l 760 218 l 760 -19 l 732 -35 m 565 1131 q 530 1146 550 1131 q 495 1182 510 1161 q 481 1221 481 1203 q 495 1260 481 1239 q 529 1297 510 1282 q 565 1313 549 1313 q 603 1297 583 1313 q 638 1260 624 1282 q 653 1221 653 1239 q 638 1182 653 1203 q 603 1146 624 1161 q 565 1131 583 1131 m 303 1131 q 267 1146 288 1131 q 233 1182 247 1161 q 218 1221 218 1203 q 233 1260 218 1239 q 267 1297 247 1282 q 303 1313 286 1313 q 341 1297 321 1313 q 376 1260 361 1282 q 390 1221 390 1239 q 376 1182 390 1203 q 341 1146 361 1161 q 303 1131 321 1131 z "},"Ж":{"ha":1411,"x_min":14,"x_max":1397,"o":"m 1264 -19 q 1155 15 1199 -19 q 1078 117 1111 50 l 953 369 q 896 440 931 415 q 814 481 861 465 q 808 487 810 482 q 807 496 807 492 q 812 518 807 507 q 836 529 817 529 l 867 529 l 1094 818 q 1120 887 1118 849 q 1101 953 1122 925 l 1086 975 l 1111 997 l 1350 997 l 1365 950 l 1333 942 q 1278 919 1303 936 q 1225 867 1253 901 l 944 508 q 1056 460 1011 496 q 1135 357 1101 424 l 1267 99 q 1290 68 1278 79 q 1321 57 1303 57 q 1348 61 1335 57 q 1375 76 1361 65 l 1397 36 q 1335 -7 1368 6 q 1264 -19 1301 -19 m 147 -19 q 76 -7 110 -19 q 14 36 43 6 l 36 76 q 64 61 51 65 q 90 57 76 57 q 122 68 110 57 q 144 99 135 79 l 276 357 q 355 460 310 424 q 467 508 400 496 l 186 867 q 134 919 160 901 q 78 942 108 936 l 46 950 l 61 997 l 300 997 l 325 975 l 310 953 q 291 887 289 925 q 317 818 293 849 l 544 529 l 575 529 q 599 518 594 529 q 604 496 604 507 q 603 487 604 492 q 597 481 601 482 q 516 440 550 465 q 458 369 482 415 l 333 117 q 256 15 300 50 q 147 -19 213 -19 m 563 0 l 547 47 l 576 56 q 625 94 613 71 q 638 185 638 118 l 638 813 q 628 903 638 878 q 592 942 619 928 l 563 950 l 576 997 l 824 997 l 840 975 l 824 950 q 786 853 797 904 q 775 718 775 801 l 775 175 q 786 91 775 114 q 829 53 797 68 l 858 44 l 843 0 l 563 0 z "},"З":{"ha":751,"x_min":32,"x_max":718,"o":"m 356 -19 q 199 6 272 -19 q 78 81 125 31 q 32 206 32 131 q 72 311 32 271 q 172 351 113 351 q 194 349 188 351 q 201 335 201 347 q 185 299 201 325 q 169 217 169 272 q 214 101 169 143 q 351 60 258 60 q 510 114 453 60 q 567 265 567 168 q 544 378 567 326 q 474 463 522 431 q 349 494 426 494 q 296 490 314 494 q 265 486 278 486 q 249 514 249 486 q 268 544 249 535 q 331 561 288 553 q 449 605 408 576 q 503 674 489 633 q 518 765 518 715 q 474 893 518 847 q 356 939 429 939 q 253 924 297 939 q 180 869 210 908 q 132 753 150 829 l 125 722 l 79 738 l 79 1014 l 101 1031 l 125 1014 q 151 1001 138 1004 q 178 997 164 997 q 256 1007 213 997 q 374 1017 300 1017 q 519 990 451 1017 q 628 910 586 964 q 669 772 669 856 q 618 629 669 688 q 471 538 567 571 q 663 438 608 508 q 718 256 718 367 q 673 113 718 175 q 547 15 628 50 q 356 -19 465 -19 z "},"И":{"ha":1015,"x_min":15,"x_max":994,"o":"m 32 0 l 15 47 l 49 56 q 103 79 83 67 q 130 116 122 92 q 138 185 138 140 l 138 813 q 119 903 138 878 q 49 942 101 928 l 15 950 l 32 997 l 338 997 l 356 975 l 338 950 q 289 853 303 904 q 275 718 275 801 l 275 315 l 743 824 q 723 906 742 882 q 654 942 704 929 l 624 950 l 640 997 l 943 997 l 964 975 l 943 950 q 893 853 907 906 q 879 718 879 801 l 879 175 q 897 90 879 114 q 967 53 915 67 l 994 44 l 981 0 l 640 0 l 624 47 l 654 56 q 725 94 707 69 q 743 185 743 118 l 743 711 l 275 201 l 275 175 q 292 91 275 114 q 358 53 310 68 l 388 44 l 374 0 l 32 0 z "},"Й":{"ha":1015,"x_min":15,"x_max":994,"o":"m 32 0 l 15 47 l 49 56 q 103 79 83 67 q 130 116 122 92 q 138 185 138 140 l 138 813 q 119 903 138 878 q 49 942 101 928 l 15 950 l 32 997 l 338 997 l 356 975 l 338 950 q 289 853 303 904 q 275 718 275 801 l 275 315 l 743 824 q 723 906 742 882 q 654 942 704 929 l 624 950 l 640 997 l 943 997 l 964 975 l 943 950 q 893 853 907 906 q 879 718 879 801 l 879 175 q 897 90 879 114 q 967 53 915 67 l 994 44 l 981 0 l 640 0 l 624 47 l 654 56 q 725 94 707 69 q 743 185 743 118 l 743 711 l 275 201 l 275 175 q 292 91 275 114 q 358 53 310 68 l 388 44 l 374 0 l 32 0 m 506 1114 q 329 1147 396 1114 q 263 1243 263 1179 q 297 1315 263 1289 q 375 1342 332 1342 q 396 1335 388 1342 q 404 1322 404 1329 q 393 1299 404 1313 q 382 1249 382 1285 q 408 1195 382 1218 q 506 1172 433 1172 q 603 1194 575 1172 q 632 1246 632 1215 q 620 1298 632 1283 q 608 1322 608 1313 q 617 1335 608 1329 q 639 1342 625 1342 q 714 1315 681 1342 q 747 1243 747 1289 q 682 1147 747 1179 q 506 1114 617 1114 z "},"Ѝ":{"ha":1015,"x_min":15,"x_max":994,"o":"m 32 0 l 15 47 l 49 56 q 103 79 83 67 q 130 116 122 92 q 138 185 138 140 l 138 813 q 119 903 138 878 q 49 942 101 928 l 15 950 l 32 997 l 338 997 l 356 975 l 338 950 q 289 853 303 904 q 275 718 275 801 l 275 315 l 743 824 q 723 906 742 882 q 654 942 704 929 l 624 950 l 640 997 l 943 997 l 964 975 l 943 950 q 893 853 907 906 q 879 718 879 801 l 879 175 q 897 90 879 114 q 967 53 915 67 l 994 44 l 981 0 l 640 0 l 624 47 l 654 56 q 725 94 707 69 q 743 185 743 118 l 743 711 l 275 201 l 275 175 q 292 91 275 114 q 358 53 310 68 l 388 44 l 374 0 l 32 0 m 603 1097 l 446 1175 q 385 1220 403 1196 q 368 1275 368 1244 q 384 1328 368 1306 q 426 1363 400 1350 l 643 1146 l 603 1097 z "},"К":{"ha":917,"x_min":21,"x_max":903,"o":"m 769 -19 q 660 16 704 -19 q 585 117 617 51 l 458 369 q 401 440 436 415 q 319 481 367 465 q 313 496 313 483 q 318 518 313 507 q 342 529 324 529 l 374 529 l 600 818 q 626 886 624 847 q 607 953 628 925 l 592 975 l 617 997 l 856 997 l 872 950 l 839 942 q 783 919 808 936 q 731 867 758 901 l 450 508 q 563 460 518 496 q 642 357 607 424 l 772 99 q 796 68 783 79 q 826 57 808 57 q 853 61 840 57 q 881 76 867 65 l 903 36 q 840 -7 874 6 q 769 -19 807 -19 m 38 0 l 21 47 l 54 56 q 108 79 89 67 q 135 116 128 92 q 143 185 143 140 l 143 813 q 125 903 143 878 q 54 942 107 928 l 21 950 l 38 997 l 343 997 l 361 975 l 343 950 q 294 853 308 904 q 281 718 281 801 l 281 175 q 298 91 281 114 q 364 53 315 68 l 393 44 l 379 0 l 38 0 z "},"Ќ":{"ha":917,"x_min":21,"x_max":903,"o":"m 769 -19 q 660 16 704 -19 q 585 117 617 51 l 458 369 q 401 440 436 415 q 319 481 367 465 q 313 496 313 483 q 318 518 313 507 q 342 529 324 529 l 374 529 l 600 818 q 626 886 624 847 q 607 953 628 925 l 592 975 l 617 997 l 856 997 l 872 950 l 839 942 q 783 919 808 936 q 731 867 758 901 l 450 508 q 563 460 518 496 q 642 357 607 424 l 772 99 q 796 68 783 79 q 826 57 808 57 q 853 61 840 57 q 881 76 867 65 l 903 36 q 840 -7 874 6 q 769 -19 807 -19 m 38 0 l 21 47 l 54 56 q 108 79 89 67 q 135 116 128 92 q 143 185 143 140 l 143 813 q 125 903 143 878 q 54 942 107 928 l 21 950 l 38 997 l 343 997 l 361 975 l 343 950 q 294 853 308 904 q 281 718 281 801 l 281 175 q 298 91 281 114 q 364 53 315 68 l 393 44 l 379 0 l 38 0 m 392 1097 l 351 1146 l 568 1363 q 610 1328 594 1350 q 626 1275 626 1306 q 609 1220 626 1244 q 549 1175 592 1196 l 392 1097 z "},"Л":{"ha":936,"x_min":-22,"x_max":911,"o":"m 122 -19 q 22 15 65 -19 q -22 119 -22 50 q -2 183 -22 161 q 44 206 18 206 q 89 156 76 206 q 107 111 94 132 q 143 90 119 90 q 235 161 197 90 q 301 391 272 232 q 353 811 329 550 q 331 903 358 872 q 254 943 304 933 l 221 950 l 239 997 l 863 997 l 879 975 l 863 950 q 813 853 828 904 q 799 718 799 801 l 799 175 q 815 91 799 114 q 883 53 832 68 l 911 44 l 897 0 l 557 0 l 540 47 l 572 56 q 626 79 607 67 q 653 116 646 92 q 661 185 661 140 l 661 813 q 644 899 661 878 q 572 919 626 919 l 532 919 q 472 909 494 919 q 446 864 449 899 q 404 493 428 646 q 352 240 381 340 q 288 83 324 139 q 212 3 253 26 q 122 -19 171 -19 z "},"М":{"ha":1279,"x_min":21,"x_max":1217,"o":"m 36 0 l 21 47 l 53 56 q 126 96 106 71 q 151 185 147 121 l 189 735 q 192 762 190 740 q 194 807 193 783 q 196 842 196 831 q 178 910 196 890 q 115 942 161 931 l 83 950 l 99 997 l 351 997 l 638 299 l 932 997 l 1132 997 l 1153 975 l 1136 950 q 1098 873 1110 913 q 1086 775 1086 833 q 1088 740 1086 767 q 1091 688 1089 714 q 1093 650 1093 661 l 1121 269 q 1149 127 1128 185 q 1217 22 1169 69 l 1199 0 l 894 0 l 878 47 l 910 56 q 972 91 954 69 q 989 156 989 113 q 988 181 989 165 q 986 207 988 196 l 946 786 l 656 100 l 581 100 l 290 786 l 260 358 q 256 306 258 335 q 253 253 254 276 q 251 222 251 231 q 263 124 251 164 q 301 47 275 85 l 318 22 l 297 0 l 36 0 z "},"Н":{"ha":1082,"x_min":56,"x_max":1019,"o":"m 72 0 l 56 47 l 88 56 q 158 96 140 71 q 176 185 176 121 l 176 813 q 158 902 176 878 q 88 942 140 926 l 56 950 l 72 997 l 376 997 l 394 975 l 376 950 q 328 853 342 904 q 314 718 314 803 l 314 549 l 768 549 l 768 813 q 750 902 768 878 q 679 942 732 926 l 647 950 l 664 997 l 968 997 l 986 975 l 968 950 q 919 853 933 904 q 906 718 906 803 l 906 175 q 923 91 906 114 q 990 53 940 68 l 1019 44 l 1004 0 l 664 0 l 647 47 l 679 56 q 750 96 732 71 q 768 185 768 121 l 768 464 l 314 464 l 314 175 q 331 91 314 114 q 399 53 349 68 l 428 44 l 413 0 l 72 0 z "},"О":{"ha":1018,"x_min":49,"x_max":969,"o":"m 508 -19 q 251 50 353 -19 q 99 237 149 119 q 49 497 49 354 q 76 699 49 604 q 162 865 104 793 q 306 976 219 936 q 508 1017 392 1017 q 711 976 625 1017 q 855 865 797 936 q 941 699 913 793 q 969 497 969 604 q 919 237 969 354 q 766 50 868 119 q 508 -19 664 -19 m 503 63 q 674 120 603 63 q 781 276 744 178 q 818 493 818 374 q 809 605 818 544 q 779 724 800 665 q 724 831 758 783 q 638 908 689 879 q 515 938 586 938 q 343 876 414 938 q 235 712 272 814 q 199 486 199 610 q 233 272 199 368 q 335 119 267 176 q 503 63 403 63 z "},"П":{"ha":933,"x_min":25,"x_max":908,"o":"m 43 0 l 25 22 l 43 47 q 92 144 78 93 q 107 279 107 194 l 107 718 q 92 853 107 801 q 43 950 78 904 l 25 975 l 43 997 l 857 997 l 875 975 l 857 950 q 808 853 822 904 q 793 718 793 801 l 793 175 q 810 91 793 114 q 878 53 828 68 l 908 44 l 893 0 l 554 0 l 536 47 l 567 56 q 622 79 603 67 q 649 116 642 92 q 657 185 657 140 l 657 813 q 640 899 657 878 q 567 919 622 919 l 332 919 q 260 899 278 919 q 243 813 243 878 l 243 185 q 251 116 243 140 q 278 79 258 92 q 332 56 297 67 l 365 47 l 349 0 l 43 0 z "},"Р":{"ha":828,"x_min":49,"x_max":800,"o":"m 72 0 l 56 47 l 88 56 q 158 95 140 69 q 176 185 176 121 l 176 871 q 146 904 176 904 l 65 904 l 49 956 q 141 983 85 969 q 263 1007 197 997 q 394 1017 329 1017 q 628 972 539 1017 q 759 851 718 926 q 800 686 800 776 q 765 526 800 600 q 656 407 729 451 q 467 363 582 363 q 382 374 419 363 q 344 411 344 386 q 350 434 344 424 q 367 444 356 444 q 390 440 375 444 q 435 435 404 435 q 599 503 542 435 q 656 682 656 571 q 629 813 656 754 q 550 905 603 871 q 419 939 497 939 q 350 928 372 939 q 321 903 328 918 q 314 875 314 888 l 314 279 q 328 144 314 194 q 376 47 342 93 l 394 22 l 376 0 l 72 0 z "},"С":{"ha":857,"x_min":49,"x_max":821,"o":"m 493 -19 q 297 21 381 -19 q 158 132 214 61 q 76 297 103 203 q 49 497 49 390 q 76 699 49 604 q 158 865 103 793 q 299 976 214 936 q 497 1017 383 1017 q 660 991 589 1017 q 770 919 731 965 q 810 813 810 874 q 767 695 810 740 q 661 650 725 650 q 632 667 632 650 q 642 688 632 674 q 663 728 653 703 q 674 793 674 754 q 625 899 674 858 q 497 939 576 939 q 360 900 415 939 q 270 797 304 861 q 221 653 236 732 q 206 497 206 575 q 242 286 206 382 q 345 133 278 190 q 506 76 413 76 q 663 110 597 76 q 767 201 728 144 q 776 207 771 207 q 805 194 789 207 q 821 168 821 182 q 817 157 821 164 q 683 28 763 76 q 493 -19 604 -19 z "},"Т":{"ha":826,"x_min":28,"x_max":799,"o":"m 282 0 l 264 22 l 282 47 q 331 144 317 93 q 344 279 344 194 l 344 813 q 335 898 344 878 q 297 918 326 918 l 235 918 q 158 908 186 918 q 113 871 129 897 q 83 794 97 844 l 75 763 l 28 779 l 28 1026 l 50 1044 l 75 1026 q 233 997 114 997 l 593 997 q 751 1026 713 997 l 776 1044 l 799 1026 l 799 779 l 751 763 l 743 794 q 714 871 731 844 q 669 908 697 897 q 592 918 642 918 l 529 918 q 491 898 500 918 q 482 813 482 878 l 482 185 q 501 96 482 121 q 571 56 519 71 l 603 47 l 586 0 l 282 0 z "},"У":{"ha":832,"x_min":-49,"x_max":864,"o":"m 251 -19 q 136 16 179 -19 q 93 108 93 51 q 126 197 93 157 q 211 236 160 236 q 240 218 240 236 q 231 186 240 208 q 221 132 221 164 q 235 83 221 101 q 274 65 249 65 q 345 106 314 65 q 418 238 376 146 l 440 288 l 114 800 q 30 917 65 876 q -49 975 -6 957 l -43 997 l 307 997 l 324 950 l 293 942 q 238 885 236 928 q 271 793 240 843 l 506 432 l 640 732 q 665 872 676 814 q 597 942 653 929 l 567 950 l 583 997 l 849 997 l 864 975 l 844 950 q 802 883 819 915 q 768 811 785 850 l 514 233 q 389 35 451 90 q 251 -19 326 -19 z "},"Ў":{"ha":832,"x_min":-49,"x_max":864,"o":"m 251 -19 q 136 16 179 -19 q 93 108 93 51 q 126 197 93 157 q 211 236 160 236 q 240 218 240 236 q 231 186 240 208 q 221 132 221 164 q 235 83 221 101 q 274 65 249 65 q 345 106 314 65 q 418 238 376 146 l 440 288 l 114 800 q 30 917 65 876 q -49 975 -6 957 l -43 997 l 307 997 l 324 950 l 293 942 q 238 885 236 928 q 271 793 240 843 l 506 432 l 640 732 q 665 872 676 814 q 597 942 653 929 l 567 950 l 583 997 l 849 997 l 864 975 l 844 950 q 802 883 819 915 q 768 811 785 850 l 514 233 q 389 35 451 90 q 251 -19 326 -19 m 439 1114 q 263 1147 329 1114 q 196 1243 196 1179 q 231 1315 196 1289 q 308 1342 265 1342 q 329 1335 321 1342 q 338 1322 338 1329 q 326 1299 338 1313 q 315 1249 315 1285 q 341 1195 315 1218 q 439 1172 367 1172 q 537 1194 508 1172 q 565 1246 565 1215 q 553 1298 565 1283 q 542 1322 542 1313 q 550 1335 542 1329 q 572 1342 558 1342 q 647 1315 614 1342 q 681 1243 681 1289 q 615 1147 681 1179 q 439 1114 550 1114 z "}}}
